<svg width="209" height="171" viewBox="0 0 209 171" fill="none" xmlns="http://www.w3.org/2000/svg">
<mask id="mask0_146_1138" style="mask-type:alpha" maskUnits="userSpaceOnUse" x="-17" y="-13" width="238" height="182">
<path d="M198.943 117.055C198.943 122.986 191.244 120.144 189.555 125.129C179.39 155.135 141.172 168.312 105.473 168.312C73.0795 168.312 39.0693 151.986 25.5713 125.129C21.7221 117.47 8.98797 114.231 8.98797 104.994C-64.6424 42.3436 40.7481 -2.43057 105.473 0.21743C222.64 -66.0732 242.476 142.48 198.943 117.055Z" fill="#D9D9D9"/>
</mask>
<g mask="url(#mask0_146_1138)">
<path opacity="0.5" d="M199.343 89.1714C197.966 110.674 181.628 131.205 159.5 132.478C134.085 134.444 110.756 120.374 85.4395 120.225C72.53 119.108 60.4233 124.098 47.8427 125.709C19.4283 126.762 15.0994 93.0536 20.3984 71.3266C42.7471 -31.1048 200.891 -17.1684 199.343 89.1714Z" fill="#FFDD34"/>
<path d="M190.009 180.538H171.846L165.166 148.666L160.533 180.538H141.505L144.123 156.81L145.771 141.882L146.765 132.881L172.581 126.224L184.236 126.867L190.009 180.538Z" fill="#6BB2AB"/>
<path d="M164.037 146.295C160.956 144.485 157.875 142.676 154.794 140.867C153.924 140.357 153.055 139.846 152.185 139.336C152.018 139.238 151.896 139.512 152.061 139.609C155.142 141.418 158.223 143.227 161.304 145.036C162.173 145.547 163.043 146.057 163.913 146.568C164.079 146.666 164.202 146.392 164.037 146.295Z" fill="#389688"/>
<path d="M163.48 146.98C161.275 146.417 159.069 145.855 156.863 145.293C156.676 145.245 156.63 145.542 156.816 145.59C159.022 146.152 161.228 146.714 163.433 147.277C163.621 147.324 163.666 147.027 163.48 146.98Z" fill="#389688"/>
<path d="M185.518 158.524C184.77 152.003 184.022 145.482 183.274 138.962C182.85 135.269 182.426 131.576 182.002 127.883C181.981 127.691 181.682 127.724 181.704 127.917L183.96 147.579C184.708 154.1 185.456 160.621 186.204 167.142C186.628 170.834 187.052 174.527 187.475 178.22C187.497 178.412 187.796 178.379 187.774 178.187L185.518 158.524Z" fill="#389688"/>
<path d="M208.879 63.4774C208.597 66.07 207.892 68.5996 207.192 71.1126C206.547 73.4232 205.904 75.734 205.261 78.0449L197.995 77.8657C197.233 77.3963 196.596 76.7045 196.11 75.9447C195.419 74.8691 194.984 73.654 194.543 72.4557C194.102 71.2578 193.638 70.0482 192.896 69.0096C192.615 68.614 192.288 68.2299 192.16 67.7632C192.029 67.2938 192.18 66.7018 192.626 66.5141C193.11 66.3119 193.636 66.662 194.031 67.0091C195.456 68.2582 196.69 69.7324 197.671 71.3572L197.691 71.3458C197.828 67.1796 197.964 63.0134 198.101 58.8475C198.109 58.614 198.118 58.3724 198.211 58.1561C198.302 57.9371 198.499 57.749 198.732 57.7349C199.167 57.7093 199.403 58.2272 199.508 58.6511C200.174 61.3347 200.529 64.0977 200.572 66.8639C200.771 63.9582 201.064 61.0556 201.445 58.1672C201.528 57.561 201.627 56.9151 202.039 56.4625C202.196 56.289 202.415 56.1468 202.648 56.1694C203.083 56.2122 203.251 56.7526 203.308 57.188C203.72 60.3837 203.771 63.625 203.459 66.8322L203.473 66.8349C203.996 64.1001 204.522 61.3626 205.045 58.6278C205.102 58.3377 205.179 58.0159 205.426 57.8596C205.827 57.6062 206.351 57.9704 206.578 58.3859C206.973 59.1201 206.925 60.005 206.837 60.8359C206.587 63.2034 206.086 65.5399 205.588 67.8707C206.194 66.2004 206.826 64.5355 207.477 62.885C207.607 62.5491 207.804 62.1649 208.162 62.1225C208.455 62.0854 208.725 62.3216 208.831 62.6006C208.933 62.8769 208.91 63.1815 208.879 63.4774Z" fill="#E88846"/>
<path d="M145.771 141.882L144.123 156.81C142.655 156.372 141.181 154.326 140.733 153.142C139.803 150.955 140.046 148.537 140.034 146.209C140.148 144.589 139.557 142.649 140.37 141.198C141.604 140.302 143.316 141.152 144.64 141.462C145.042 141.546 145.429 141.687 145.771 141.882Z" fill="#E88846"/>
<path d="M205.048 77.6547L197.377 77.4653L196.951 77.4532L195.228 84.3299C195.228 84.3299 191.054 74.8936 187.605 70.7176C184.155 66.5417 172.581 66.6529 172.581 66.6529L157.018 69.8375C157.018 69.8375 146.306 76.1495 143.174 78.3333C140.046 80.5145 138.419 80.9741 137.749 93.0421C137.083 105.11 138.25 142.402 138.25 142.402C138.25 142.402 140.778 144.642 145.659 142.888L146.638 134.019C146.638 134.019 161.26 140.569 171.287 127.996C171.287 127.996 181.107 127.87 184.236 126.867L183.569 109.079L184.236 96.0498C184.236 96.0498 190.832 109.956 198.677 109.662C206.521 109.371 205.771 91.3303 205.936 77.6759L205.048 77.6547ZM148.6 118.266L148.879 102.287L150.269 110.137L148.6 118.266Z" fill="#C22227"/>
<path d="M172.582 66.6532C172.582 66.6532 172.395 68.2784 171.987 70.2223H171.984C171.513 72.4513 170.747 75.1012 169.633 76.2007L168.298 75.6178L165.821 80.5987L161.008 77.2581L159.756 78.3455C159.756 78.3455 156.181 76.507 154.553 71.3306C154.553 71.3306 154.891 69.3189 157.51 69.231L157.551 70.6725L164.124 73.6947L169.62 67.9859L169.122 66.4409C169.122 66.4409 169.122 66.4409 169.125 66.4409C169.199 66.4055 170.771 65.8543 172.582 66.6532Z" fill="#F4E9DC"/>
<path d="M205.871 67.2042C204.024 66.6071 202.103 66.2927 200.161 66.2688C199.969 66.2665 200.003 66.565 200.195 66.5674C202.077 66.5906 203.955 66.8989 205.747 67.4778C205.929 67.5368 206.055 67.2635 205.871 67.2042Z" fill="#C4532C"/>
<path d="M203.84 69.3297C202.588 70.0239 201.446 70.8969 200.441 71.9169C200.305 72.0547 200.538 72.2438 200.673 72.1073C201.659 71.1062 202.788 70.254 204.017 69.573C204.185 69.479 204.007 69.2371 203.84 69.3297Z" fill="#C4532C"/>
<path d="M148.11 89.1745L147.895 85.3142C147.885 85.1212 147.586 85.1549 147.597 85.3479C147.851 89.9077 148.105 94.4675 148.358 99.0272C148.43 100.314 148.502 101.601 148.573 102.887C148.584 103.081 148.882 103.047 148.872 102.854C148.618 98.294 148.364 93.7342 148.11 89.1745Z" fill="#8E2323"/>
<path d="M184.325 95.5278C183.56 93.1936 182.717 90.8854 181.795 88.6089C181.53 87.9552 181.259 87.3042 180.982 86.6559C180.906 86.4787 180.626 86.5865 180.702 86.7651C181.668 89.0234 182.558 91.3141 183.367 93.633C183.6 94.2989 183.826 94.9671 184.045 95.6369C184.106 95.8206 184.385 95.7111 184.325 95.5278Z" fill="#8E2323"/>
<path d="M183.168 95.4157C181.783 93.7029 180.399 91.9901 179.014 90.2773C178.893 90.1274 178.65 90.3033 178.772 90.4539C180.156 92.1667 181.54 93.8795 182.925 95.5922C183.046 95.7422 183.29 95.5663 183.168 95.4157Z" fill="#8E2323"/>
<path d="M194.91 84.6939C194.172 87.4128 193.434 90.1314 192.696 92.8504C192.487 93.6203 192.277 94.3903 192.069 95.1602C192.018 95.3466 192.315 95.3921 192.365 95.2071C193.103 92.4885 193.842 89.7695 194.58 87.0509C194.789 86.281 194.998 85.511 195.207 84.741C195.257 84.5544 194.961 84.5089 194.91 84.6939Z" fill="#8E2323"/>
<path d="M177.93 121.273C175.884 123.419 173.839 125.566 171.793 127.713C171.66 127.853 171.893 128.043 172.026 127.904C174.071 125.757 176.117 123.61 178.162 121.463C178.296 121.323 178.062 121.133 177.93 121.273Z" fill="#8E2323"/>
<path d="M174.248 122.648C171.965 125.292 169.638 127.939 166.862 130.082C164.228 132.115 161.17 133.695 157.836 134.113C155.899 134.356 153.908 134.206 152.06 133.555C151.879 133.491 151.754 133.764 151.937 133.829C155.237 134.992 158.887 134.605 162.075 133.272C165.234 131.951 167.949 129.782 170.351 127.376C171.797 125.929 173.144 124.387 174.481 122.838C174.607 122.692 174.374 122.502 174.248 122.648Z" fill="#8E2323"/>
<path d="M148.3 118.661C147.686 120.716 147.197 122.807 146.84 124.922C146.664 125.968 146.519 127.019 146.407 128.073C146.302 129.064 146.201 130.066 146.189 131.063C146.176 132.042 146.308 133.059 146.908 133.864C147.023 134.02 147.266 133.843 147.15 133.688C146.62 132.974 146.491 132.081 146.486 131.213C146.48 130.23 146.587 129.24 146.688 128.263C146.902 126.202 147.239 124.154 147.697 122.133C147.958 120.981 148.258 119.839 148.596 118.708C148.652 118.523 148.355 118.478 148.3 118.661Z" fill="#8E2323"/>
<path d="M172.047 94.4782C168.801 96.8123 165.829 99.5272 163.213 102.552C162.473 103.408 161.762 104.288 161.081 105.191C160.964 105.345 161.196 105.536 161.313 105.381C163.714 102.201 166.486 99.3035 169.561 96.7699C170.426 96.0579 171.314 95.3748 172.223 94.7211C172.381 94.6082 172.204 94.3653 172.047 94.4782Z" fill="#8E2323"/>
<path d="M170.641 100.843C168.878 102.053 167.115 103.263 165.352 104.473C165.193 104.583 165.369 104.826 165.529 104.716C167.291 103.506 169.054 102.296 170.817 101.086C170.977 100.976 170.8 100.734 170.641 100.843Z" fill="#8E2323"/>
<path d="M163.915 74.2317C162.906 75.1172 161.956 76.0688 161.075 77.0821C160.948 77.2283 161.181 77.418 161.308 77.2725C162.172 76.2784 163.101 75.3434 164.092 74.4747C164.236 74.3483 164.061 74.104 163.915 74.2317Z" fill="#E2CAB0"/>
<path d="M168.3 75.3937C167.217 74.808 166.091 74.306 164.932 73.8908C164.751 73.8261 164.626 74.0994 164.808 74.1644C165.968 74.5796 167.093 75.082 168.176 75.6673C168.347 75.7596 168.469 75.4853 168.3 75.3937Z" fill="#E2CAB0"/>
<path d="M168.04 51.4627C167.309 52.9537 166.04 54.1055 164.485 54.6931C163.104 55.2158 161.558 55.2778 160.162 54.7905C159.105 55.1804 157.987 55.3957 156.863 55.4193C155.886 55.4372 154.904 55.3249 153.965 55.053C153.1 54.802 152.263 54.3946 151.652 53.7153C150.406 52.3395 150.433 50.4023 150.743 48.6689C149.896 47.6324 149.253 46.3304 149.536 44.9634C149.654 44.3966 149.928 43.8827 150.35 43.4871C150.769 43.0946 151.291 42.8375 151.814 42.61C152.383 42.362 152.959 42.1376 153.487 41.8097C154.074 41.4408 154.611 41.0007 155.192 40.6256C156.21 39.976 157.453 39.5389 158.604 40.1088C159.489 40.5458 160.144 41.4404 160.229 42.4297C161.156 41.9748 162.168 41.653 163.207 41.6355C164.193 41.6177 165.137 41.8923 165.96 42.4358C168.819 44.3349 169.498 48.4951 168.04 51.4627Z" fill="#36344C"/>
<path d="M168.506 56.1165L168.759 57.5307C168.925 58.4608 168.904 59.385 168.727 60.2591C168.553 61.1184 168.225 61.9362 167.774 62.6714V62.6745C166.709 64.3987 164.953 65.6775 162.82 66.0582C160.686 66.442 158.594 65.8456 157.001 64.5965C156.266 64.0206 155.64 63.309 155.162 62.4854C154.749 61.768 154.451 60.9735 154.298 60.1142L154.044 58.7C150.013 59.4204 148.907 54.3802 150.417 52.9511C150.456 52.9127 150.5 52.8773 150.538 52.8446C151.592 51.9736 152.575 52.7119 152.925 53.0424C152.335 50.1931 153.315 48.6016 153.315 48.6016C154.661 48.7876 155.906 48.7876 157.03 48.6754C158.818 48.4981 160.305 48.0318 161.415 47.5621C162.852 46.9569 164.178 46.0579 164.178 46.0579C164.178 46.0579 166.7 48.1511 167.52 50.5917C167.523 50.5947 167.523 50.5978 167.523 50.6004C167.523 50.6004 167.966 49.3779 169.046 49.3011C169.3 49.2806 169.589 49.3247 169.923 49.4666C171.834 50.2817 172.543 55.3988 168.506 56.1165Z" fill="#E88846"/>
<path d="M169.781 67.8535L164.127 73.7264L157.163 70.8858L157.122 69.1822L157.001 64.5934C158.594 65.8452 160.686 66.442 162.82 66.0578C164.95 65.6771 166.706 64.3983 167.774 62.6741L169.294 66.5923C169.291 66.5923 169.291 66.5923 169.291 66.5923L169.781 67.8535Z" fill="#E88846"/>
<path d="M169.293 66.5927L169.78 67.8536L169.29 66.5927C169.29 66.5927 169.29 66.5927 169.293 66.5927Z" fill="#E88846"/>
<path d="M167.773 62.6754C167.773 62.6754 166.117 70.4346 157.121 69.1822L157.002 64.5951C158.593 65.8462 160.686 66.441 162.821 66.0575C164.952 65.6774 166.707 64.398 167.773 62.6754Z" fill="#C4532C"/>
<path d="M162.581 57.9447C161.728 58.2328 160.87 58.5037 160.007 58.7605C159.974 56.7677 159.914 54.7756 159.822 52.7848C159.812 52.5749 159.489 52.615 159.498 52.8236C159.593 54.8804 159.656 56.9389 159.687 58.9977C159.689 59.114 159.82 59.1561 159.911 59.1295C160.848 58.8538 161.779 58.5597 162.704 58.247C162.903 58.1796 162.78 57.8777 162.581 57.9447Z" fill="#C4532C"/>
<path d="M164.721 58.1244C164.86 59.4052 164.245 60.7049 163.176 61.4186C163.001 61.5352 163.198 61.795 163.373 61.6787C164.536 60.9027 165.195 59.4743 165.045 58.0857C165.022 57.8768 164.698 57.9155 164.721 58.1244Z" fill="#36344C"/>
<path d="M156.602 59.7104C157.309 59.7104 157.882 59.1367 157.882 58.4289C157.882 57.7212 157.309 57.1475 156.602 57.1475C155.894 57.1475 155.321 57.7212 155.321 58.4289C155.321 59.1367 155.894 59.7104 156.602 59.7104Z" fill="#C4532C"/>
<path d="M166.505 56.8984C167.212 56.8984 167.785 56.3247 167.785 55.6169C167.785 54.9092 167.212 54.3354 166.505 54.3354C165.797 54.3354 165.224 54.9092 165.224 55.6169C165.224 56.3247 165.797 56.8984 166.505 56.8984Z" fill="#C4532C"/>
<path d="M157.02 55.9247C157.508 55.7862 157.765 55.1856 157.594 54.5832C157.423 53.9807 156.889 53.6046 156.401 53.7431C155.914 53.8816 155.657 54.4823 155.828 55.0847C155.999 55.6871 156.532 56.0632 157.02 55.9247Z" fill="#36344C"/>
<path d="M163.781 54.2635C164.269 54.125 164.526 53.5243 164.355 52.9219C164.184 52.3195 163.65 51.9434 163.163 52.0819C162.675 52.2204 162.418 52.821 162.589 53.4234C162.76 54.0259 163.294 54.4019 163.781 54.2635Z" fill="#36344C"/>
<path d="M156.941 52.0471C156.836 51.9194 156.688 51.8136 156.519 51.7957C156.461 51.795 156.402 51.794 156.344 51.7933C156.227 51.8078 156.122 51.8503 156.028 51.921L154.736 52.6859C154.605 52.7638 154.506 52.965 154.485 53.1088C154.46 53.2692 154.505 53.4734 154.61 53.6005C154.716 53.7282 154.863 53.834 155.033 53.8518C155.091 53.8525 155.149 53.8535 155.207 53.8542C155.324 53.8397 155.43 53.7972 155.523 53.7265L156.815 52.9616C156.947 52.8837 157.045 52.6826 157.066 52.5387C157.091 52.3783 157.047 52.1741 156.941 52.0471Z" fill="#36344C"/>
<path d="M161.576 50.7312C161.599 50.5671 161.669 50.3992 161.803 50.2951C161.853 50.2638 161.902 50.2324 161.951 50.2011C162.058 50.1519 162.17 50.1327 162.287 50.1435L163.787 50.1155C163.94 50.1128 164.129 50.2321 164.223 50.3436C164.328 50.4673 164.398 50.6644 164.375 50.8275C164.352 50.9916 164.282 51.1594 164.147 51.2636C164.098 51.2949 164.048 51.3262 163.999 51.3576C163.892 51.4068 163.78 51.426 163.663 51.4152L162.163 51.4432C162.01 51.4459 161.821 51.3266 161.727 51.2154C161.623 51.0914 161.553 50.8946 161.576 50.7312Z" fill="#36344C"/>
<path d="M42.0716 141.361L37.4866 180.538H59.0016L63.4136 151.707L68.4074 180.538H90.6279L84.1615 141.361H42.0716Z" fill="#C22227"/>
<path d="M62.0334 151.622C60.1615 151.084 58.2899 150.546 56.418 150.008C56.2398 149.957 56.1964 150.243 56.3728 150.293C58.2448 150.832 60.1164 151.37 61.9883 151.908C62.1665 151.959 62.2102 151.673 62.0334 151.622Z" fill="#8E2323"/>
<path d="M61.0252 152.684L55.5686 153.02C55.3834 153.031 55.4154 153.318 55.6009 153.307L61.0575 152.971C61.2427 152.96 61.2107 152.672 61.0252 152.684Z" fill="#8E2323"/>
<path d="M51.787 71.6224C51.787 71.6224 48.76 71.6436 47.1662 74.0512C47.1662 74.0512 38.9363 75.8839 37.2381 78.8381C35.5399 81.7922 25.2198 98.6029 25.2198 98.6029L34.1095 116.048C34.1095 116.048 38.3877 115.008 37.9173 110.498L40.7389 106.969L42.6199 118.629L40.9477 145.139C40.9477 145.139 46.9305 150.525 50.7188 150.995C54.5072 151.466 63.782 145.086 63.782 145.086C63.782 145.086 72.8481 151.021 76.2182 151.361C79.5886 151.701 85.1536 144.773 85.1536 144.773L82.2014 113.322L82.7499 95.361L92.2339 100.067C92.2339 100.067 95.4986 105.415 101.332 101.917L99.1314 87.5964C99.1314 87.5964 84.3697 76.9925 80.9211 74.6554C77.4725 72.3182 66.0291 72.5375 66.0291 72.5375C66.0291 72.5375 64.078 70.6553 62.0492 70.969L51.787 71.6224Z" fill="#F2B34E"/>
<path d="M56.8262 85.5549C55.7856 84.0335 54.732 82.4953 53.3766 81.2327C52.1818 80.1194 50.7049 79.1779 49.073 78.8972C48.2605 78.7574 47.4025 78.813 46.6731 79.2079C46.5027 77.8381 46.6798 76.4435 47.2018 75.163C47.2718 74.9912 47.0092 74.8712 46.9388 75.0437C46.3707 76.4381 46.1858 77.9675 46.4118 79.4566C46.4286 79.5668 46.5478 79.6176 46.6401 79.5573C48.0039 78.6651 49.8455 79.244 51.1534 79.9566C52.6297 80.7613 53.8275 81.9845 54.8552 83.2976C55.4688 84.0814 56.0311 84.9032 56.5928 85.7244C56.6979 85.8787 56.9309 85.7086 56.8262 85.5549Z" fill="#EA8C11"/>
<path d="M67.1978 73.9161C67.1254 73.7453 66.856 73.8494 66.9287 74.0213C67.4719 75.3021 67.8594 76.6408 68.0898 78.0122C64.9547 78.3623 62.5521 80.7093 60.8095 83.1735C60.2639 83.9448 59.7588 84.7434 59.2561 85.5427C59.1581 85.6983 59.3807 85.8827 59.4793 85.7256C61.1331 83.0977 62.9383 80.2975 65.8548 78.9436C66.6206 78.5881 67.4345 78.3543 68.276 78.2788C68.3511 78.272 68.4154 78.1949 68.4033 78.1191C68.173 76.6748 67.7689 75.2626 67.1978 73.9161Z" fill="#EA8C11"/>
<path d="M37.5375 109.875C36.2842 106.995 34.4998 104.359 32.2961 102.122C31.6661 101.483 31.0014 100.878 30.307 100.309C30.1629 100.191 29.9804 100.414 30.1242 100.532C32.5234 102.499 34.5496 104.905 36.0831 107.603C36.5209 108.373 36.9149 109.167 37.2685 109.979C37.3425 110.15 37.6123 110.046 37.5375 109.875Z" fill="#EA8C11"/>
<path d="M92.148 87.5118C92.1867 87.3299 91.9015 87.285 91.8627 87.4667C91.2246 90.4666 91.029 93.5589 91.2862 96.6155C91.36 97.4916 91.4718 98.364 91.6186 99.231C91.6496 99.4133 91.9368 99.3826 91.9055 99.1987C91.3926 96.1761 91.3256 93.0835 91.7159 90.0424C91.825 89.1933 91.9698 88.3492 92.148 87.5118Z" fill="#EA8C11"/>
<path d="M61.7996 122.584C61.2615 115.236 60.7234 107.887 60.1856 100.538C59.8836 96.4136 59.5819 92.2895 59.2798 88.1651C59.2663 87.9798 58.9791 88.0118 58.9929 88.1975C59.531 95.5463 60.0691 102.895 60.6069 110.244C61.145 117.593 61.6831 124.942 62.2209 132.29L63.1267 144.663C63.1402 144.849 63.4274 144.817 63.4136 144.631C62.8759 137.282 62.3378 129.933 61.7996 122.584Z" fill="#EA8C11"/>
<path d="M39.5446 95.0779C39.3964 94.0559 39.2479 93.0339 39.0997 92.0119C39.0731 91.8286 38.7859 91.8596 38.8128 92.0442C39.3371 95.6568 39.8611 99.2694 40.3854 102.882C40.5336 103.904 40.6821 104.926 40.8302 105.948C40.8568 106.131 41.1441 106.1 41.1171 105.915C40.5932 102.303 40.0689 98.6905 39.5446 95.0779Z" fill="#EA8C11"/>
<path d="M39.9237 105.333C39.3344 103.105 38.7451 100.876 38.1558 98.647C38.1083 98.4678 37.8396 98.5739 37.8868 98.7522C38.476 100.981 39.0653 103.21 39.6546 105.439C39.7018 105.618 39.9705 105.512 39.9237 105.333Z" fill="#EA8C11"/>
<path d="M83.1126 84.5495C82.9722 87.1528 82.8321 89.7562 82.6917 92.3592C82.652 93.0995 82.6119 93.8398 82.5721 94.5805C82.5624 94.7645 82.8473 94.8113 82.8574 94.6256C82.9978 92.0223 83.1379 89.4189 83.2783 86.8159C83.318 86.0756 83.3581 85.3352 83.3978 84.5946C83.4079 84.411 83.1227 84.3638 83.1126 84.5495Z" fill="#EA8C11"/>
<path d="M63.818 74.6224L57.7856 86.7379L50.3605 75.4652L50.5942 72.8146L51.0097 68.1066C52.4917 69.5737 54.5633 70.4286 56.7929 70.2871C59.0187 70.1482 60.9648 69.0454 62.2575 67.4077L63.818 74.6224Z" fill="#F59551"/>
<path d="M62.2577 67.4081C62.2577 67.4081 59.7773 73.7393 50.719 71.4004L51.0096 68.1066C52.4916 69.5737 54.5632 70.4286 56.7928 70.2871C59.0186 70.1486 60.9647 69.0454 62.2577 67.4081Z" fill="#AA3617"/>
<path d="M63.3389 61.8294L63.4254 63.2052C63.4789 64.1062 63.3628 64.9837 63.0974 65.7985C62.8381 66.5954 62.4384 67.3384 61.9256 67.9887V67.9918C60.7237 69.5138 58.9137 70.5402 56.8441 70.6686C54.7715 70.8 52.845 70.0061 51.4674 68.6424C50.8293 68.0157 50.3104 67.2666 49.9494 66.4343C49.6332 65.7061 49.4365 64.9153 49.3826 64.083L49.2991 62.7072C45.5118 62.9457 44.9154 58.3503 46.326 56.9717C46.3739 56.9239 46.4244 56.8821 46.4752 56.8434C46.517 56.8107 46.5618 56.7807 46.6005 56.7537C47.6979 56.0404 48.5509 56.8491 48.8489 57.2012C49.3022 56.7982 49.6271 56.2523 49.7645 55.6613C49.9016 55.0942 49.8628 54.4887 49.6571 53.9425C50.1699 53.8828 50.6649 53.656 51.0408 53.2948C51.5358 52.8204 51.8132 52.1252 51.7745 51.4388C52.1981 51.6565 52.681 51.7492 53.1551 51.7135C53.4087 51.6986 53.6592 51.6417 53.8977 51.5524C54.5775 51.2899 55.1382 50.7288 55.3948 50.0455C56.0451 50.5708 56.8859 50.8572 57.7237 50.8424C58.5588 50.8276 59.3879 50.5081 60.0199 49.9592C60.0765 50.5829 60.3001 51.1827 60.655 51.702C60.7416 51.8361 60.8399 51.9645 60.9504 52.0868C61.3975 52.6091 61.9852 53.0148 62.6442 53.2207C62.2805 54.1217 62.328 55.1781 62.7576 56.0468C62.7576 56.0498 62.7607 56.0498 62.7637 56.0529C62.8381 56.1364 62.9159 56.217 62.9964 56.2975L63.0055 56.4677V56.4767C63.0055 56.4767 63.0055 56.4767 63.0085 56.4737C63.0412 56.408 63.5931 55.3607 64.5979 55.4055C64.8394 55.4146 65.1108 55.4891 65.4122 55.6593C65.5166 55.7189 65.6179 55.7937 65.7105 55.883C67.144 57.2309 67.0188 61.6026 63.3389 61.8294Z" fill="#F59551"/>
<path d="M57.5016 62.9232C56.6587 63.1041 55.8122 63.2679 54.9629 63.4182C55.1495 61.5187 55.3091 59.6166 55.4391 57.7124C55.4529 57.5116 55.1404 57.5143 55.1266 57.7141C54.9922 59.6816 54.8276 61.6468 54.6329 63.6092C54.6218 63.7198 54.7424 63.7743 54.8313 63.7588C55.7529 63.5988 56.6712 63.4205 57.5855 63.2244C57.7828 63.182 57.6979 62.8811 57.5016 62.9232Z" fill="#AA3617"/>
<path d="M51.7599 63.9577C52.4372 63.9577 52.9863 63.4083 52.9863 62.7305C52.9863 62.0527 52.4372 61.5033 51.7599 61.5033C51.0825 61.5033 50.5334 62.0527 50.5334 62.7305C50.5334 63.4083 51.0825 63.9577 51.7599 63.9577Z" fill="#AA3617"/>
<path d="M61.4892 62.364C62.1666 62.364 62.7156 61.8145 62.7156 61.1368C62.7156 60.459 62.1666 59.9095 61.4892 59.9095C60.8119 59.9095 60.2628 60.459 60.2628 61.1368C60.2628 61.8145 60.8119 62.364 61.4892 62.364Z" fill="#AA3617"/>
<path d="M52.4334 60.4002C52.9126 60.3217 53.2226 59.7782 53.1258 59.1863C53.029 58.5944 52.562 58.1781 52.0828 58.2566C51.6036 58.3351 51.2936 58.8785 51.3904 59.4705C51.4872 60.0624 51.9541 60.4787 52.4334 60.4002Z" fill="#36344C"/>
<path d="M59.0482 59.5583C59.5275 59.4798 59.8375 58.9363 59.7407 58.3444C59.6439 57.7524 59.1769 57.3362 58.6977 57.4147C58.2184 57.4931 57.9084 58.0366 58.0052 58.6286C58.102 59.2205 58.569 59.6368 59.0482 59.5583Z" fill="#36344C"/>
<path d="M52.779 56.6949C52.6924 56.5618 52.5638 56.4452 52.4042 56.4095C52.3489 56.4024 52.2934 56.3954 52.2382 56.3879C52.1254 56.389 52.0206 56.4179 51.9233 56.4749L50.6107 57.0615C50.4773 57.1212 50.3618 57.3018 50.3255 57.4366C50.2851 57.5865 50.3046 57.7857 50.3908 57.9178C50.4773 58.0509 50.606 58.1674 50.7656 58.2032C50.8208 58.2102 50.8764 58.2173 50.9316 58.2247C51.0444 58.2237 51.1491 58.1947 51.2465 58.1378L52.5591 57.5511C52.6928 57.4915 52.8079 57.3109 52.8443 57.1761C52.8847 57.0265 52.8652 56.8273 52.779 56.6949Z" fill="#36344C"/>
<path d="M57.3319 55.9494C57.3717 55.7957 57.4565 55.6438 57.5963 55.5595C57.6465 55.5349 57.6966 55.5107 57.7468 55.4861C57.8539 55.451 57.9627 55.4449 58.0728 55.4682L59.5036 55.6053C59.6491 55.6192 59.8161 55.7536 59.8932 55.8699C59.9794 55.9989 60.0242 56.194 59.9844 56.347C59.9447 56.5006 59.8599 56.6526 59.7201 56.7369C59.6699 56.7615 59.6198 56.7857 59.5696 56.8103C59.4625 56.8454 59.3537 56.8514 59.2436 56.8282L57.8128 56.691C57.6673 56.6772 57.5003 56.5428 57.4232 56.4265C57.3373 56.2975 57.2925 56.1024 57.3319 55.9494Z" fill="#36344C"/>
<path d="M66.783 54.0916C66.6251 54.775 66.1719 55.3478 65.7095 55.8823C65.6169 55.7926 65.5155 55.7182 65.4112 55.6585C65.1101 55.4883 64.8387 55.4139 64.5969 55.4048C63.5921 55.36 63.0402 56.4076 63.0075 56.473C63.0075 56.4699 63.0045 56.4699 63.0045 56.4669L62.9954 56.2967C62.9149 56.2162 62.8374 56.1357 62.7627 56.0521C62.7597 56.0491 62.7566 56.0491 62.7566 56.046C62.4347 55.3953 62.3273 54.6375 62.4465 53.9215C61.8532 54.002 61.2359 53.9036 60.7049 53.5963C60.1472 53.2769 59.7209 52.7637 59.4882 52.1699C59.1572 52.3549 58.7962 52.4864 58.4177 52.543C57.5439 52.6713 56.6522 52.4089 55.9636 51.8744C55.74 52.0773 55.4894 52.2535 55.215 52.3937C54.4247 52.7937 53.4882 52.8503 52.6443 52.5935C52.4891 53.0231 52.2446 53.417 51.9166 53.7395C51.3529 54.2945 50.5986 54.6079 49.817 54.6497C49.8558 54.9869 49.844 55.33 49.7635 55.6612C49.6264 56.2519 49.3012 56.7981 48.8479 57.2011C48.5495 56.849 47.6969 56.0403 46.5995 56.7536C46.5608 56.7806 46.516 56.8102 46.4742 56.8433C46.4234 56.882 46.3729 56.9238 46.325 56.9717C45.9971 56.6913 45.7822 56.2704 45.7644 55.8347C45.7435 55.2589 46.0715 54.68 46.5786 54.4023C46.0897 53.9309 45.8839 53.1849 46.0627 52.5312C46.2385 51.8748 46.7934 51.3376 47.4555 51.1793C46.9248 50.505 46.9096 49.4722 47.4198 48.7831C47.9296 48.0907 48.9196 47.8043 49.719 48.1116C49.4715 47.2402 49.8948 46.2256 50.6852 45.7869C51.4785 45.3481 52.5608 45.5301 53.1693 46.2017C53.2915 45.2737 54.0462 44.465 54.9645 44.28C55.8801 44.095 56.8909 44.5455 57.3651 45.3542C57.72 44.6051 58.5669 44.1219 59.3899 44.1934C60.2159 44.2678 60.9645 44.8916 61.1851 45.6915C61.8262 45.1605 62.855 45.3455 63.4486 45.9301C64.045 46.512 64.2716 47.3773 64.3164 48.21C64.898 47.9444 65.6287 48.1591 66.058 48.6339C66.4874 49.1053 66.6426 49.7856 66.5709 50.4215C66.5022 51.057 66.2308 51.6537 65.8998 52.1999C66.6312 52.4264 66.9501 53.3456 66.783 54.0916Z" fill="#36344C"/>
<path d="M60.1795 65.8384C59.635 66.5743 58.7211 66.9345 57.8227 66.7896C57.0475 66.6666 55.9181 65.9893 56.2137 65.0442C56.3461 64.6193 56.7707 64.3328 57.1799 64.2098C57.5705 64.0899 57.9796 64.102 58.3645 64.2253C58.4844 63.8682 58.6538 63.5325 58.9706 63.3048C59.3613 63.0214 59.8751 63.0062 60.2445 63.3354C60.9608 63.9757 60.6809 65.1611 60.1795 65.8384Z" fill="#F4E9DC"/>
<path d="M14.169 90.4985C14.169 90.4985 20.4785 121.636 27.4935 120.067C34.5084 118.499 35.1749 115.029 33.999 112.136C32.8234 109.244 21.223 87.3613 21.223 87.3613C21.223 87.3613 21.223 83.028 20.0475 79.4397C18.8719 75.8514 19.342 71.1653 18.8325 70.5965C18.323 70.0277 16.1675 69.2533 16.481 77.1652C16.481 77.1652 7.59479 66.93 6.23301 68.3614C4.87123 69.7928 11.2494 76.9495 11.2494 76.9495C11.2494 76.9495 2.69623 70.0475 1.883 71.2438C1.06977 72.44 8.40802 78.7927 8.40802 78.7927C8.40802 78.7927 2.30426 73.7632 1.41257 74.7141C0.520883 75.665 7.68302 81.4396 7.68302 81.4396C7.68302 81.4396 0.374064 80.5082 0.354533 81.7924C0.335003 83.0765 7.25199 83.9297 7.25199 83.9297C7.25199 83.9297 10.2763 89.0084 14.169 90.4985Z" fill="#F59551"/>
<path d="M13.4151 76.768C12.9174 77.0618 12.4368 77.3819 11.9644 77.7135C11.9604 77.6953 11.9526 77.6784 11.9398 77.664L11.1182 76.7215C11.068 76.6642 10.9868 76.6426 10.9212 76.6901C10.8636 76.7319 10.8397 76.8296 10.8899 76.8873L11.7115 77.8297C11.7236 77.8436 11.7374 77.855 11.7526 77.8641C10.9343 78.4524 10.1514 79.089 9.41797 79.7811C8.96101 79.2881 8.50439 78.7955 8.04743 78.3025C7.99558 78.2466 7.91745 78.2226 7.85044 78.2712C7.79454 78.3119 7.76727 78.412 7.81913 78.4683L9.19606 79.9536C9.20246 79.9607 9.2102 79.9654 9.21761 79.9711C8.98795 80.1932 8.76099 80.4186 8.54076 80.6504C8.41549 80.7822 8.63471 80.9601 8.75897 80.8294C10.1797 79.3343 11.8055 78.0444 13.5808 76.9961C13.737 76.9038 13.5703 76.6763 13.4151 76.768Z" fill="#AA3617"/>
<path d="M15.1353 80.5177C14.675 81.8983 14.4268 83.3334 14.3945 84.7881C14.3904 84.9687 14.6706 84.936 14.6746 84.7564C14.7059 83.3563 14.9491 81.9626 15.3919 80.634C15.4491 80.4638 15.1925 80.3459 15.1353 80.5177Z" fill="#AA3617"/>
<path d="M19.6801 88.6339C18.5591 89.0029 17.4617 89.4396 16.3935 89.9417C16.2302 90.0185 16.3312 90.282 16.4959 90.2045C17.564 89.7021 18.6611 89.2654 19.7825 88.8967C19.9549 88.8401 19.8525 88.5773 19.6801 88.6339Z" fill="#AA3617"/>
<path d="M104.34 69.6215C104.34 69.6215 108.477 101.121 101.333 101.918C94.1892 102.714 92.4331 99.6482 92.6062 96.5307C92.7796 93.4127 96.6495 68.9469 96.6495 68.9469C96.6495 68.9469 95.2432 64.8485 95.1907 61.0728C95.1382 57.2972 93.1726 53.0174 93.4699 52.3142C93.7673 51.6109 95.5544 50.1778 97.8257 57.7625C97.8257 57.7625 102.909 45.1942 104.661 46.1056C106.414 47.0168 102.704 55.8587 102.704 55.8587C102.704 55.8587 108.554 46.5514 109.711 47.4184C110.868 48.2854 105.989 56.6788 105.989 56.6788C105.989 56.6788 110.13 49.9386 111.282 50.5481C112.433 51.1577 107.534 58.9466 107.534 58.9466C107.534 58.9466 114.144 55.6905 114.58 56.8989C115.015 58.1072 108.75 61.1618 108.75 61.1618C108.75 61.1618 107.538 66.9471 104.34 69.6215Z" fill="#F59551"/>
<path d="M100.597 56.3898C101.163 56.506 101.722 56.6526 102.276 56.8123C102.274 56.7941 102.275 56.7753 102.283 56.7574L102.754 55.5989C102.783 55.5285 102.853 55.4817 102.93 55.5056C102.998 55.5265 103.052 55.6111 103.024 55.6818L102.553 56.8403C102.546 56.8571 102.536 56.8726 102.525 56.8861C103.49 57.1766 104.437 57.5243 105.355 57.9408C105.627 57.3262 105.899 56.7116 106.172 56.097C106.203 56.0272 106.269 55.9794 106.348 56.0036C106.414 56.0238 106.473 56.1098 106.441 56.1798L105.621 58.0321C105.617 58.0409 105.611 58.0476 105.607 58.0557C105.896 58.1912 106.183 58.3307 106.467 58.4783C106.629 58.5622 106.479 58.8018 106.319 58.7182C104.49 57.7659 102.534 57.0741 100.514 56.6597C100.336 56.6233 100.42 56.3537 100.597 56.3898Z" fill="#AA3617"/>
<path d="M100.186 60.4956C101.069 61.6517 101.769 62.9285 102.272 64.2938C102.335 64.4633 102.059 64.5236 101.997 64.3552C101.513 63.041 100.831 61.802 99.9806 60.6893C99.8715 60.5465 100.076 60.3517 100.186 60.4956Z" fill="#AA3617"/>
<path d="M98.5213 69.6494C99.7012 69.6339 100.881 69.6905 102.054 69.8182C102.233 69.8377 102.223 70.1197 102.043 70.1002C100.869 69.9722 99.6897 69.9159 98.5098 69.9314C98.3283 69.9337 98.3401 69.6517 98.5213 69.6494Z" fill="#AA513A"/>
<path d="M128.213 64.4861C127.067 65.7898 125.232 66.4418 123.536 65.9882C121.782 65.5226 120.453 64.1916 118.858 63.3987C118.015 62.9782 117.099 62.6415 116.441 61.9386C116.357 61.8514 116.282 61.7584 116.213 61.6623C116.138 61.5693 116.066 61.4669 116 61.356C115.051 59.6887 116.021 57.5949 117.054 56.2069C118.171 54.7078 119.825 53.6234 121.692 53.368C123.466 53.1278 125.229 53.7377 126.613 54.8432C128.03 55.9758 129.081 57.607 129.45 59.3855C129.817 61.1545 129.423 63.1133 128.213 64.4861Z" fill="#AF3737"/>
<path d="M130.794 70.2768C130.794 76.5611 126.608 80.3135 121.287 80.3135C115.965 80.3135 111.523 76.5611 111.523 70.2768C111.523 63.9925 115.837 60.2758 121.158 60.2758C126.48 60.2758 130.794 63.9925 130.794 70.2768Z" fill="#AF3737"/>
<path d="M83.8443 50.6362C83.6732 51.9851 83.2617 53.2918 83.0068 54.6289C82.6526 56.4764 82.5957 58.3722 82.2653 60.2258C81.9501 61.9982 81.3436 63.7858 80.1307 65.1077C80.1459 65.5613 80.1576 66.0151 80.1728 66.4687L73.1986 64.7414C73.2494 64.0234 73.3006 63.3053 73.3518 62.5872C72.3641 60.4603 71.9978 58.0928 71.2741 55.8547C70.4423 53.2861 69.1334 50.8768 68.497 48.2539C68.4579 48.0857 68.4189 47.9146 68.4488 47.7461C68.4758 47.5779 68.5869 47.4125 68.7519 47.3677C69.0132 47.2986 69.2442 47.5449 69.4005 47.7673C70.3521 49.1162 71.1929 50.5493 71.9102 52.0363C71.2499 49.717 70.7754 47.3468 70.4841 44.9523C70.4211 44.4506 70.37 43.9398 70.4541 43.4411C70.4871 43.2399 70.5743 43.0084 70.7724 42.9575C70.9586 42.9124 71.1357 43.0505 71.2616 43.1947C71.592 43.5731 71.7809 44.054 71.955 44.5257C72.8497 46.9293 73.5703 49.3925 74.2849 51.856L74.3418 51.8381C73.7475 48.7677 73.1501 45.6825 73.039 42.5582C73.0329 42.3779 73.0268 42.1916 73.0871 42.0235C73.1501 41.8523 73.2881 41.702 73.4683 41.6781C73.7054 41.6481 73.9067 41.8462 74.0478 42.0386C74.5492 42.7237 74.8223 43.5438 75.0594 44.3579C75.5817 46.1394 75.975 47.954 76.3262 49.7776C76.2003 47.861 76.0831 45.9474 76.0319 44.0274C76.0141 43.3996 76.008 42.7567 76.206 42.1616C76.2902 41.9092 76.4852 41.6299 76.7465 41.669C76.9505 41.699 77.0707 41.9062 77.1546 42.0925C78.2264 44.4358 78.4036 47.0674 78.809 49.6122C79.0794 51.3125 79.4576 52.9919 79.9438 54.6413C80.4062 52.9889 81.1658 51.4206 82.1714 50.0297C82.3246 49.8194 82.4865 49.6091 82.7027 49.471C82.9189 49.3298 83.2011 49.2698 83.4352 49.375C83.8685 49.5697 83.9046 50.1648 83.8443 50.6362Z" fill="#F99958"/>
<path d="M77.577 49.7632C77.2319 49.9044 76.8935 50.0607 76.5597 50.2262C76.5241 49.9647 76.4884 49.7032 76.4527 49.4417C76.4422 49.3639 76.3681 49.2965 76.2866 49.3093C76.2078 49.3218 76.1429 49.3919 76.1543 49.4754C76.1924 49.7544 76.2304 50.0331 76.2685 50.3121C76.2708 50.33 76.2776 50.3472 76.286 50.363C75.099 50.9806 73.9931 51.7503 73.0034 52.6547C72.862 52.7837 73.0371 53.028 73.1799 52.8976C74.5026 51.6889 76.0277 50.7208 77.6861 50.0432C77.8646 49.9701 77.7565 49.6897 77.577 49.7632Z" fill="#D36D29"/>
<path d="M72.0676 51.8362C72.0268 51.7688 71.9177 51.7553 71.8578 51.8029C71.7894 51.8571 71.781 51.9407 71.8245 52.0128C71.8325 52.0259 71.8403 52.0394 71.848 52.0529C71.8504 52.0573 71.8527 52.062 71.8551 52.0664C71.8686 52.0926 71.8814 52.1193 71.8932 52.1459C71.9154 52.1961 71.9346 52.2476 71.9511 52.3002C71.9585 52.3241 71.9656 52.3484 71.9716 52.3727C71.9736 52.3814 71.9767 52.3956 71.9773 52.3993C71.9797 52.4107 71.982 52.4225 71.9841 52.434C71.9948 52.4919 72.0016 52.5506 72.0053 52.6092C72.0103 52.6877 72.0938 52.7538 72.1713 52.7416C72.2548 52.7285 72.309 52.6597 72.3036 52.5755C72.2875 52.313 72.203 52.061 72.0676 51.8362Z" fill="#D36D29"/>
<path d="M78.2695 57.9856C77.2842 56.623 76.0258 55.4803 74.5799 54.6241C74.4135 54.5257 74.2913 54.8003 74.4556 54.8977C75.8558 55.7266 77.0731 56.8433 78.0264 58.1622C78.1399 58.3192 78.383 58.1427 78.2695 57.9856Z" fill="#D36D29"/>
<path d="M151.371 167.22C151.368 167.562 151.362 167.905 151.35 168.25C151.341 168.539 151.332 168.854 151.14 169.088C150.99 169.268 150.75 169.377 150.519 169.304C150.3 169.235 150.164 169.04 150.075 168.842C149.943 168.55 149.864 168.226 149.771 167.923C149.669 167.586 149.573 167.25 149.483 166.913C149.399 166.607 149.324 166.297 149.249 165.988C149.21 166.619 149.159 167.25 149.066 167.877C148.94 168.74 148.736 169.599 148.4 170.407C148.277 170.701 148.117 171.065 147.781 171.161C147.499 171.242 147.247 171.08 147.121 170.831C146.964 170.521 146.986 170.172 146.989 169.836C146.998 169.337 147.007 168.836 147.016 168.337C147.022 167.959 147.028 167.577 147.033 167.198C146.983 167.415 146.928 167.631 146.868 167.844C146.688 168.508 146.478 169.166 146.217 169.803C146.028 170.263 145.55 170.846 144.992 170.533C144.773 170.413 144.674 170.179 144.628 169.947C144.565 169.613 144.572 169.256 144.572 168.917C144.572 168.469 144.602 168.021 144.65 167.577C144.476 167.88 144.289 168.181 144.088 168.469C143.938 168.679 143.779 168.926 143.527 169.025C143.32 169.103 143.089 169.034 142.969 168.844C142.873 168.688 142.87 168.493 142.888 168.319C142.914 168.043 142.996 167.769 143.053 167.499C143.181 166.886 143.311 166.276 143.44 165.663C143.572 165.038 143.704 164.416 143.836 163.792C143.965 163.194 144.109 162.593 144.16 161.98C144.206 161.419 144.109 160.878 143.974 160.343C143.767 159.998 143.569 159.643 143.395 159.276C142.587 157.558 142.245 155.536 142.911 153.716C143.335 152.553 144.212 151.547 145.325 151.024C145.403 150.97 145.481 150.916 145.562 150.871C146.042 150.603 146.595 150.462 147.145 150.528C147.688 150.591 148.18 150.874 148.559 151.261C149.438 152.162 149.657 153.448 149.907 154.632C150.195 156.023 150.459 157.42 150.681 158.823C151.119 161.599 151.392 164.408 151.371 167.22Z" fill="#F99958"/>
<path d="M146.917 160.574C146.851 161.999 146.797 163.467 146.37 164.84C146.284 165.118 146.111 165.54 145.749 165.506C145.447 165.478 145.355 165.077 145.297 164.836C145.126 164.126 145.112 163.391 145.036 162.668C144.96 161.948 144.814 161.236 144.453 160.601C144.358 160.433 144.116 160.611 144.211 160.778C144.591 161.446 144.697 162.22 144.764 162.974C144.83 163.72 144.835 164.527 145.102 165.236C145.193 165.477 145.352 165.714 145.613 165.786C145.908 165.868 146.218 165.713 146.397 165.479C146.61 165.203 146.689 164.835 146.772 164.504C146.871 164.114 146.944 163.718 147.001 163.32C147.129 162.426 147.171 161.522 147.213 160.621C147.222 160.43 146.925 160.38 146.917 160.574Z" fill="#D36D29"/>
<path d="M144.901 165.86C144.812 166.402 144.723 166.943 144.634 167.485C144.602 167.676 144.899 167.723 144.93 167.532C145.019 166.99 145.108 166.448 145.198 165.907C145.229 165.716 144.933 165.669 144.901 165.86Z" fill="#D36D29"/>
<path d="M147.024 164.585C146.977 165.434 146.929 166.283 146.882 167.132C146.871 167.323 147.168 167.372 147.179 167.179C147.226 166.33 147.274 165.481 147.321 164.631C147.332 164.44 147.035 164.391 147.024 164.585Z" fill="#D36D29"/>
<path d="M149.087 162.231C149.049 162.044 148.75 162.075 148.789 162.265C149.052 163.557 149.188 164.871 149.196 166.19C149.197 166.383 149.496 166.349 149.495 166.156C149.487 164.837 149.35 163.523 149.087 162.231Z" fill="#D36D29"/>
<path d="M118.682 134.104L98.0694 133.101C98.0694 133.101 90.8918 132.767 90.0574 180.538H109.42L115.414 153.813L118.682 180.538H136.294C136.294 180.538 140.634 138.279 130.285 133.936L118.682 134.104Z" fill="#36344C"/>
<path d="M132.079 135.691C111.298 141.765 100.532 134.438 100.532 134.438L103.579 116.983L106.167 91.8438L127.783 92.8472L130.287 121.493C130.098 121.511 132.079 135.691 132.079 135.691Z" fill="#F4E9DC"/>
<path d="M123.439 109.175C123.426 110.331 123.309 111.482 123.165 112.627C123.021 113.771 122.871 114.916 122.688 116.055C122.34 118.257 121.86 120.543 120.8 122.523C120.388 123.289 119.794 124.064 118.902 124.253C117.921 124.46 117.035 123.814 116.371 123.171C115.51 122.333 114.708 121.429 113.88 120.555C113.129 119.762 112.348 118.987 111.676 118.121C111.063 117.328 110.553 116.439 110.361 115.444C110.157 114.396 110.361 113.318 110.763 112.338C111.174 111.328 111.781 110.412 112.42 109.535C113.036 108.688 113.699 107.88 114.417 107.117C114.672 106.846 114.936 106.588 115.207 106.33C115.654 105.855 116.125 105.395 116.621 104.963C117.395 104.287 118.233 103.608 119.139 103.115C119.587 102.869 120.085 102.697 120.602 102.748C121.031 102.79 121.43 102.998 121.748 103.283C122.466 103.929 122.823 104.884 123.06 105.794C123.348 106.898 123.447 108.039 123.439 109.175Z" fill="#F2B34E"/>
<path d="M125.186 119.017C125.605 121.96 122.292 123.298 119.98 122.057C117.522 119.606 116.593 109.465 122.436 111.78C125.044 113.109 125.347 116.408 125.186 119.017Z" fill="#C22227"/>
<path d="M112.77 109.418C110.66 110.547 108.088 110.49 106.04 109.249C105.497 108.92 104.999 108.509 104.57 108.04C104.44 107.898 104.196 108.074 104.327 108.216C105.968 110.01 108.45 110.866 110.845 110.414C111.556 110.279 112.241 110.039 112.879 109.699C113.047 109.609 112.941 109.327 112.77 109.418Z" fill="#E2CAB0"/>
<path d="M129.872 110.446C127.605 111.783 124.773 111.913 122.394 110.787C121.744 110.48 121.142 110.085 120.595 109.617C120.448 109.491 120.259 109.724 120.405 109.85C122.466 111.616 125.297 112.268 127.922 111.581C128.67 111.385 129.383 111.082 130.049 110.689C130.215 110.591 130.038 110.349 129.872 110.446Z" fill="#E2CAB0"/>
<path d="M127.696 76.6514L127.618 77.9703C127.584 78.4751 127.503 78.9647 127.365 79.4243C126.924 80.9686 125.951 82.2753 124.669 83.1494C123.478 83.9665 122.015 84.4113 120.472 84.318C118.686 84.2128 117.101 83.4105 115.96 82.1971C114.732 80.8843 114.015 79.0937 114.129 77.1649L114.207 75.8521C110.445 75.6267 110.541 70.8772 112.201 69.9246C113.483 69.1918 114.264 70.2882 114.462 70.6158C114.462 70.6158 115.597 70.6036 117.149 70.2313C118.812 69.8347 120.953 69.0297 122.697 67.3893C122.983 67.1248 123.259 66.8337 123.52 66.5153C123.91 66.0435 124.271 65.5148 124.583 64.9261C124.583 64.9261 125.73 65.7372 126.693 67.2573C127.048 67.8102 127.375 68.4558 127.612 69.1891C127.84 69.8802 127.99 70.6521 128.008 71.4962H128.002V71.5084C128.002 71.5084 128.002 71.5053 128.008 71.4993V71.4962C128.104 71.3581 129.077 70.0362 130.392 71.0127C130.578 71.1508 130.737 71.3433 130.858 71.5714C130.933 71.7065 130.996 71.8568 131.05 72.0189C131.62 73.8004 130.725 76.8317 127.696 76.6514Z" fill="#F99958"/>
<path d="M133.391 90.1192C133.145 90.72 132.745 91.3838 132.232 92.0871C126.552 99.8739 115.104 100.403 108.547 93.3399C106.944 91.6096 105.599 89.9811 104.915 88.7555C107.875 88.1487 115.089 86.7516 115.089 86.7516H115.092L115.224 86.0575L115.657 83.7772L115.96 82.1969C117.101 83.4106 118.686 84.2126 120.472 84.3177C122.015 84.4107 123.477 83.9663 124.669 83.1492L124.789 84.9485L124.943 87.1145C125.447 87.1752 133.391 90.0892 133.391 90.1192Z" fill="#F99958"/>
<path d="M121.616 77.2183C120.827 77.2102 120.04 77.1859 119.252 77.1492C119.8 75.4927 120.324 73.8284 120.823 72.1561C120.875 71.9799 120.596 71.9192 120.544 72.0948C120.029 73.8224 119.487 75.5422 118.92 77.2533C118.888 77.3497 118.984 77.4225 119.066 77.4269C119.92 77.4697 120.775 77.4953 121.63 77.504C121.814 77.5057 121.799 77.2203 121.616 77.2183Z" fill="#D36D29"/>
<path d="M116.534 77.0137C117.153 77.0137 117.655 76.5113 117.655 75.8916C117.655 75.2719 117.153 74.7695 116.534 74.7695C115.914 74.7695 115.412 75.2719 115.412 75.8916C115.412 76.5113 115.914 77.0137 116.534 77.0137Z" fill="#D36D29"/>
<path d="M125.531 77.5492C126.15 77.5492 126.652 77.0468 126.652 76.4271C126.652 75.8074 126.15 75.3051 125.531 75.3051C124.911 75.3051 124.409 75.8074 124.409 76.4271C124.409 77.0468 124.911 77.5492 125.531 77.5492Z" fill="#D36D29"/>
<path d="M118.464 73.0082C118.496 72.4608 118.163 71.9956 117.72 71.9692C117.277 71.9428 116.891 72.3652 116.859 72.9127C116.826 73.4601 117.159 73.9253 117.602 73.9517C118.045 73.9781 118.431 73.5557 118.464 73.0082Z" fill="#36344C"/>
<path d="M124.533 73.588C124.565 73.0405 124.233 72.5753 123.79 72.5489C123.346 72.5225 122.961 72.945 122.928 73.4924C122.896 74.0399 123.228 74.505 123.672 74.5314C124.115 74.5578 124.5 74.1354 124.533 73.588Z" fill="#36344C"/>
<path d="M118.654 70.7142C118.604 70.5781 118.512 70.448 118.377 70.3843C118.33 70.3668 118.281 70.3493 118.234 70.3318C118.133 70.3099 118.034 70.3146 117.935 70.3459L116.647 70.605C116.516 70.6313 116.377 70.7695 116.317 70.8824C116.251 71.0077 116.229 71.1893 116.279 71.3248C116.329 71.4609 116.421 71.591 116.556 71.6547C116.604 71.6722 116.652 71.6897 116.7 71.7072C116.801 71.7291 116.9 71.7244 116.998 71.6931L118.287 71.434C118.418 71.4077 118.557 71.2695 118.616 71.157C118.682 71.031 118.705 70.8493 118.654 70.7142Z" fill="#36344C"/>
<path d="M122.865 70.9644C122.932 70.8354 123.038 70.7171 123.18 70.6696C123.229 70.6578 123.279 70.6464 123.329 70.6346C123.432 70.6248 123.53 70.6413 123.623 70.6841L124.872 71.0942C124.999 71.136 125.121 71.2893 125.166 71.4086C125.217 71.541 125.218 71.724 125.152 71.8523C125.085 71.9814 124.979 72.0997 124.837 72.1472C124.788 72.159 124.738 72.1708 124.688 72.1822C124.586 72.192 124.488 72.1755 124.394 72.1327L123.145 71.7226C123.018 71.6808 122.896 71.5275 122.851 71.4082C122.8 71.2761 122.799 71.0932 122.865 70.9644Z" fill="#36344C"/>
<path d="M124.669 83.1506C124.669 83.1506 123.201 87.3512 115.225 86.0562L115.658 83.777L115.96 82.1967C117.101 83.4114 118.687 84.2124 120.471 84.3178C122.016 84.4115 123.477 83.9667 124.669 83.1506Z" fill="#D36D29"/>
<path d="M123.674 77.998C123.102 78.802 122.17 79.2926 121.185 79.3115C120.992 79.3152 121.026 79.6137 121.219 79.61C122.274 79.5898 123.295 79.0486 123.906 78.1884C124.018 78.0313 123.786 77.8403 123.674 77.998Z" fill="#36344C"/>
<path d="M115.413 85.069L115.092 86.7515L112.141 87.3344L101.93 154.9C89.7257 154.023 84.55 146.713 84.55 146.713L89.3897 107.13C89.3897 107.13 70.5564 93.0156 68.635 86.7791C66.7166 80.5423 71.6973 62.9495 71.6973 62.9495L73.1985 63.3221L80.1727 65.0494L81.1274 65.2866V79.7069L106.664 86.2022C111.174 84.2067 115.413 85.069 115.413 85.069Z" fill="#6BB2AB"/>
<path d="M124.789 84.9487C124.789 84.9487 128.463 84.7876 131.21 88.0865C131.21 88.0865 138.798 89.7568 140.217 94.7677C141.636 99.7787 149.314 150.055 149.314 150.055C149.314 150.055 148.563 155.274 142.387 155.901L138.881 150.639L139.048 153.062C139.048 153.062 134.458 157.697 128.949 156.987L124.942 87.115L124.789 84.9487Z" fill="#6BB2AB"/>
<path d="M106.841 101.068C106.567 98.1044 106.441 95.1267 106.466 92.1503C106.48 90.4557 106.544 88.7622 106.656 87.0713C106.669 86.8799 106.372 86.831 106.359 87.0245C106.162 90.0079 106.114 93.0012 106.217 95.9893C106.321 98.9886 106.578 101.982 106.985 104.956C107.214 106.624 107.491 108.284 107.813 109.937C107.85 110.125 108.149 110.094 108.112 109.903C107.541 106.982 107.116 104.032 106.841 101.068Z" fill="#389688"/>
<path d="M131.428 88.7151C131.164 91.4226 130.763 94.1159 130.223 96.7819C129.681 99.4578 129.002 102.106 128.186 104.711C127.726 106.178 127.224 107.632 126.68 109.07C126.612 109.25 126.885 109.375 126.953 109.194C127.92 106.637 128.756 104.031 129.455 101.389C130.154 98.7481 130.717 96.0713 131.14 93.3722C131.38 91.8417 131.574 90.3042 131.724 88.7622C131.743 88.5705 131.446 88.5223 131.428 88.7151Z" fill="#389688"/>
<path d="M88.6584 96.5527C88.558 95.6463 88.4657 94.7392 88.3816 93.8314C88.3637 93.639 88.065 93.672 88.0832 93.8651C88.3822 97.0797 88.7816 100.285 89.2827 103.474C89.4241 104.375 89.5743 105.274 89.7315 106.172C89.7649 106.362 90.0636 106.33 90.0299 106.139C89.4723 102.959 89.0139 99.7616 88.6584 96.5527Z" fill="#389688"/>
<path d="M88.6806 104.007C87.83 101.532 86.9797 99.0561 86.1291 96.5804C86.0662 96.3974 85.7867 96.5066 85.8493 96.6896C86.6996 99.1653 87.5502 101.641 88.4004 104.117C88.4634 104.299 88.7432 104.19 88.6806 104.007Z" fill="#389688"/>
<path d="M137.848 133.989C137.526 128.974 137.151 123.962 136.723 118.955C136.48 116.119 136.221 113.285 135.945 110.452C135.926 110.259 135.627 110.292 135.646 110.485C136.137 115.513 136.574 120.545 136.957 125.582C137.339 130.593 137.667 135.608 137.943 140.626C138.099 143.468 138.238 146.311 138.36 149.155C138.368 149.348 138.666 149.314 138.658 149.121C138.441 144.075 138.171 139.03 137.848 133.989Z" fill="#389688"/>
<path d="M101.296 134.516C100.444 136.363 99.3728 138.105 98.1093 139.7C96.853 141.287 95.4127 142.727 93.8223 143.978C92.9202 144.688 91.9709 145.337 90.9819 145.92C90.8152 146.018 90.993 146.26 91.1583 146.163C92.9245 145.121 94.5594 143.869 96.0323 142.442C97.5093 141.012 98.8175 139.407 99.9186 137.67C100.535 136.697 101.087 135.686 101.569 134.64C101.651 134.464 101.377 134.34 101.296 134.516Z" fill="#389688"/>
<path d="M136.363 149.497C133.968 146.671 132.165 143.36 131.085 139.815C130.78 138.812 130.534 137.792 130.348 136.759C130.314 136.57 130.015 136.602 130.05 136.793C130.715 140.477 132.138 144.013 134.208 147.131C134.795 148.015 135.435 148.864 136.121 149.673C136.245 149.82 136.489 149.645 136.363 149.497Z" fill="#389688"/>
<path d="M105.007 98.2086C102.686 102.13 101.056 106.437 100.181 110.909C100.069 111.479 100.959 111.619 101.07 111.05C101.931 106.654 103.547 102.435 105.828 98.5813C106.123 98.0819 105.3 97.7146 105.007 98.2086Z" fill="#F4E9DC"/>
<path d="M131.16 101.775C130.998 101.218 130.16 101.548 130.321 102.103C131.517 106.221 131.885 110.561 131.41 114.823C131.346 115.397 132.235 115.541 132.3 114.963C132.794 110.536 132.403 106.053 131.16 101.775Z" fill="#F4E9DC"/>
<path d="M106.902 109.857C106.272 115.608 105.594 121.354 104.87 127.094C104.149 132.805 103.381 138.51 102.568 144.209C102.111 147.404 101.64 150.596 101.155 153.786C101.126 153.978 101.422 154.025 101.452 153.833C102.322 148.114 103.145 142.387 103.922 136.654C104.694 130.949 105.42 125.239 106.1 119.522C106.481 116.318 106.847 113.112 107.199 109.904C107.22 109.713 106.923 109.664 106.902 109.857Z" fill="#F4E9DC"/>
<path d="M128.667 137.739C128.278 131.734 128.027 125.721 127.917 119.705C127.855 116.315 127.837 112.924 127.863 109.534C127.864 109.341 127.566 109.376 127.565 109.568C127.519 115.585 127.611 121.603 127.843 127.616C128.076 133.628 128.447 139.635 128.958 145.631C129.246 149.009 129.578 152.383 129.954 155.753C129.976 155.945 130.274 155.912 130.253 155.719C129.586 149.739 129.056 143.743 128.667 137.739Z" fill="#F4E9DC"/>
</g>
</svg>
