<svg width="55" height="246" viewBox="0 0 55 246" fill="none" xmlns="http://www.w3.org/2000/svg">
<g opacity="0.3">
<path d="M-61.4187 211.655C-61.5809 211.487 -60.4165 210.473 -59.2913 208.43C-58.735 207.406 -58.2549 206.101 -57.8449 204.579C-57.6521 203.824 -57.3917 202.982 -57.3145 202.246C-57.2786 201.879 -57.305 201.524 -57.4121 201.24C-57.5213 200.972 -57.7214 200.751 -57.9772 200.616C-58.2411 200.491 -58.414 200.5 -58.5666 200.605C-58.7214 200.698 -58.8461 200.949 -58.9073 201.3C-59.021 201.98 -58.9367 202.916 -59.01 203.73C-59.0961 205.186 -59.3399 206.629 -59.7369 208.033C-60.4262 210.424 -61.2665 211.727 -61.4187 211.655C-61.6134 211.575 -61.1051 210.156 -60.6856 207.813C-60.4403 206.448 -60.3041 205.065 -60.2783 203.678C-60.2713 203.279 -60.2739 202.88 -60.2861 202.481C-60.2974 202.067 -60.3185 201.593 -60.2387 201.079C-60.1606 200.584 -59.964 199.92 -59.3597 199.487C-59.0802 199.283 -58.6968 199.15 -58.336 199.151C-57.9925 199.149 -57.6537 199.231 -57.3496 199.391C-56.7853 199.682 -56.3494 200.173 -56.1265 200.767C-55.9239 201.333 -55.9163 201.892 -55.9732 202.388C-56.1101 203.389 -56.3956 204.152 -56.6289 204.941C-57.1197 206.498 -57.7406 207.89 -58.4582 208.935C-59.0109 209.762 -59.6864 210.499 -60.4615 211.122C-61.0069 211.555 -61.361 211.721 -61.4187 211.655ZM-58.1928 210.483C-58.263 210.328 -57.0108 209.534 -54.7411 208.778C-53.4085 208.34 -52.0396 208.02 -50.6506 207.823C-49.8273 207.703 -48.9988 207.624 -48.1678 207.585L-47.513 207.563C-47.2411 207.559 -46.9737 207.586 -46.699 207.649C-46.3869 207.717 -46.0928 207.85 -45.836 208.04C-45.6862 208.16 -45.5347 208.323 -45.4284 208.54C-45.3223 208.762 -45.2919 209.014 -45.3124 209.237L-45.3329 209.45L-45.4796 209.616L-45.6131 209.767C-46.2278 210.458 -46.8806 211.142 -47.6713 211.681C-48.4477 212.222 -49.4291 212.58 -50.3713 212.53C-51.3006 212.487 -52.0414 212.197 -52.6914 212.012C-53.3328 211.818 -53.9446 211.694 -54.5109 211.609C-56.7882 211.293 -58.2552 211.602 -58.2977 211.389C-58.3514 211.24 -56.9238 210.562 -54.4224 210.639C-53.7435 210.668 -53.0686 210.758 -52.4056 210.907C-51.7026 211.063 -51.0037 211.268 -50.3498 211.262C-49.0472 211.291 -47.7992 210.191 -46.6443 208.854L-46.5144 208.707L-46.6816 209.086C-46.6311 209.1 -46.5308 209.071 -46.5848 209.088C-46.6096 209.092 -46.6682 209.144 -46.6677 209.138C-46.6677 209.138 -46.6796 209.129 -46.6859 209.119C-46.7876 209.052 -46.9008 209.004 -47.0199 208.978C-47.176 208.941 -47.3358 208.921 -47.4962 208.92L-48.1208 208.929C-48.9142 208.949 -49.7066 208.998 -50.4963 209.076C-51.8374 209.209 -53.1696 209.421 -54.486 209.71C-56.7409 210.203 -58.1128 210.672 -58.1928 210.483ZM-80.2271 213.677C-80.2404 213.444 -78.5921 213.398 -76.2469 212.425C-75.0868 211.929 -73.7596 211.198 -72.5021 210.123C-71.8673 209.595 -71.2641 208.968 -70.707 208.272C-70.4205 207.928 -70.1676 207.55 -69.9148 207.167L-69.5567 206.574C-69.5047 206.483 -69.4793 206.417 -69.4775 206.405C-69.4744 206.399 -69.4872 206.438 -69.4666 206.479C-69.3898 206.607 -69.3648 206.545 -69.515 206.534C-69.6663 206.524 -69.8182 206.542 -69.9628 206.588C-70.0201 206.602 -70.1171 206.651 -70.2232 206.703L-70.5228 206.846C-70.7249 206.932 -70.9119 207.056 -71.1036 207.164C-71.8613 207.617 -72.5537 208.153 -73.2026 208.698C-74.4929 209.798 -75.65 210.886 -76.7642 211.658C-77.8652 212.445 -78.9136 212.892 -79.6632 213.044C-80.4107 213.211 -80.8404 213.151 -80.8494 213.075C-80.8909 212.847 -79.2687 212.593 -77.3598 210.888C-76.3878 210.07 -75.3361 208.945 -74.0397 207.744C-73.3864 207.149 -72.6554 206.543 -71.8039 206.012C-71.5876 205.883 -71.3788 205.741 -71.1417 205.633L-70.7927 205.461C-70.6809 205.406 -70.5629 205.342 -70.3871 205.286C-70.0668 205.183 -69.7493 205.136 -69.3835 205.166C-69.2033 205.182 -69.0012 205.224 -68.7833 205.331C-68.569 205.433 -68.3239 205.645 -68.2041 205.929C-68.0834 206.198 -68.0793 206.5 -68.1406 206.734C-68.1993 206.963 -68.2882 207.12 -68.3559 207.244L-68.7616 207.907C-69.0472 208.332 -69.336 208.749 -69.6602 209.124C-70.2648 209.858 -70.949 210.522 -71.7 211.106C-72.9598 212.095 -74.3865 212.852 -75.9128 213.34C-78.5336 214.14 -80.2443 213.819 -80.2271 213.677ZM-73.822 213.894C-73.805 213.812 -73.4039 213.781 -72.7492 214.042C-72.0925 214.293 -71.2672 214.906 -70.3956 215.69C-69.5234 216.483 -68.5112 217.29 -67.1364 217.789C-66.4298 218.052 -65.6923 218.223 -64.942 218.298C-64.5472 218.335 -64.1504 218.346 -63.7542 218.33C-63.5544 218.315 -63.3521 218.309 -63.1512 218.279C-62.9529 218.253 -62.7274 218.227 -62.6055 218.189C-62.4695 218.148 -62.4547 218.118 -62.4384 218.101C-62.4071 218.042 -62.3948 217.974 -62.4033 217.908C-62.4117 217.802 -62.4443 217.699 -62.4987 217.607C-62.5655 217.507 -62.6516 217.421 -62.7521 217.355C-63.2148 217.03 -64.1053 216.861 -64.8269 216.645C-66.1444 216.289 -67.4681 215.958 -68.7976 215.65C-71.0722 215.12 -72.4977 214.813 -72.4755 214.617C-72.4553 214.435 -70.9831 214.401 -68.6274 214.692C-67.2484 214.866 -65.8786 215.107 -64.5227 215.413L-63.3457 215.693C-62.9356 215.801 -62.4645 215.93 -61.9928 216.24C-61.7617 216.396 -61.5329 216.594 -61.3453 216.883C-61.1732 217.161 -61.0652 217.467 -61.0369 217.804C-61.0103 218.137 -61.0676 218.523 -61.299 218.87C-61.5314 219.225 -61.9244 219.433 -62.2199 219.51C-64.2443 219.943 -66.0575 219.607 -67.6086 218.967C-68.3335 218.658 -69.015 218.256 -69.6356 217.77C-70.2188 217.308 -70.6747 216.818 -71.0745 216.387C-71.8646 215.512 -72.4956 214.875 -73.0082 214.511C-73.5119 214.143 -73.8483 213.996 -73.822 213.894ZM-87.3397 213.228C-87.3505 213.149 -86.9574 212.983 -86.2379 213.138C-85.5288 213.287 -84.5724 213.841 -83.7586 214.804C-82.9245 215.737 -82.2411 216.985 -81.1027 217.822C-80.5039 218.273 -79.8358 218.624 -79.1246 218.861C-78.7552 218.985 -78.3699 219.08 -77.9739 219.142C-77.8554 219.168 -77.7322 219.167 -77.6144 219.137C-77.4965 219.108 -77.3873 219.051 -77.2954 218.972C-77.1273 218.811 -77.0053 218.549 -77.0273 218.313C-77.0341 218.074 -77.1416 217.884 -77.3473 217.74C-78.025 217.373 -78.7237 217.047 -79.4399 216.763C-80.8887 216.151 -82.1862 215.582 -83.2683 215.086C-85.4326 214.095 -86.7368 213.393 -86.6664 213.216C-86.5963 213.04 -85.1661 213.421 -82.9097 214.182C-81.7816 214.561 -80.4474 215.037 -78.9723 215.583C-78.2328 215.854 -77.4771 216.135 -76.5758 216.633C-76.0677 216.959 -75.6765 217.59 -75.6589 218.242C-75.6157 218.89 -75.8811 219.532 -76.3688 219.99C-76.862 220.448 -77.6221 220.619 -78.1924 220.494C-78.6604 220.415 -79.1205 220.295 -79.5673 220.135C-80.4134 219.833 -81.2005 219.386 -81.8933 218.814C-82.5592 218.271 -83.0739 217.612 -83.4686 217.019C-83.8687 216.42 -84.1945 215.87 -84.5231 215.407C-85.1587 214.477 -85.8654 213.918 -86.4148 213.644C-86.9647 213.368 -87.3373 213.335 -87.3397 213.228ZM12.7091 40.985C12.725 41.0625 12.5455 41.1477 12.535 41.4113C12.5178 41.7047 12.659 42.0105 13.2215 42.1156C13.7735 42.2078 14.6867 42.2897 15.5882 42.3573C16.6104 42.4304 17.6378 42.3547 18.6382 42.1327C20.8402 41.6491 23.2986 40.2687 25.3909 38.0763C27.5135 35.8844 29.2423 32.9068 30.9669 29.6619L31.2892 29.0617L32.3343 30.6147C30.5826 30.7911 28.8308 30.9683 27.0792 31.1464C25.3815 31.3196 23.7382 31.4335 22.2629 31.661C20.7811 31.8869 19.4415 32.2572 18.3325 32.8423C17.2262 33.4249 16.3454 34.2311 15.6518 35.0901C14.2707 36.8229 13.5394 38.5922 12.9673 39.7569C12.4175 40.946 12.0739 41.6009 11.9335 41.5548C11.7997 41.5103 11.8803 40.7779 12.2023 39.4842C12.5564 38.2078 13.0655 36.3019 14.4651 34.2073C15.1673 33.1717 16.1592 32.1179 17.4759 31.331C18.785 30.5431 20.3344 30.0542 21.9295 29.7551C23.5357 29.4502 25.1714 29.2968 26.8601 29.0925C28.557 28.9046 30.3111 28.7095 32.1096 28.5086L34.1073 28.2871L33.1563 30.0621L32.8332 30.6647C31.0955 33.928 29.2109 37.0954 26.7757 39.4508C24.3625 41.8171 21.4877 43.248 18.9087 43.6044C17.7579 43.7692 16.5878 43.7449 15.4446 43.5324C14.4428 43.3306 13.7067 43.1699 12.9556 42.896C12.585 42.7373 12.2552 42.4908 12.0999 42.1269C12.0444 41.9904 12.0185 41.8438 12.0239 41.6966C12.0292 41.5495 12.0656 41.4051 12.1308 41.2731C12.3797 40.8263 12.7357 40.9233 12.7091 40.985Z" fill="#FFDD34"/>
<path d="M-31.3853 84.3966C-31.6007 84.2877 -29.9222 80.3209 -26.1047 74.5211C-22.2903 68.7443 -16.1812 61.2115 -8.01706 54.41C-4.19479 51.2046 -0.124974 48.3063 4.1544 45.7421C8.10089 43.369 11.8349 41.6091 14.8526 40.0269C20.9606 36.9396 23.9994 33.9685 24.2201 34.1832C24.3157 34.2726 23.6966 35.1673 22.2717 36.5087C20.8556 37.8578 18.5704 39.5593 15.5858 41.331C12.601 43.1152 8.97676 44.9938 5.17702 47.4056C1.0428 50.0125 -2.91107 52.8947 -6.6578 56.0326C-14.6514 62.6936 -20.8059 69.9063 -24.8796 75.3823C-28.9499 80.8731 -31.0856 84.5629 -31.3853 84.3966Z" fill="#FFDD34"/>
<path d="M25.5856 39.6556C25.8515 39.293 29.7118 41.6594 34.9428 45.3196L35.9753 46.0437L34.9695 46.888C33.3507 48.2455 31.1274 49.1333 28.7881 49.3883C26.2609 49.6841 23.8411 49.2668 21.8175 48.5936C19.7846 47.9188 18.1066 47.022 16.7573 46.2138C14.0783 44.5635 12.6271 43.2986 12.7651 43.0629C12.9202 42.7933 14.6783 43.6215 17.4511 44.8881C20.2063 46.0961 24.1559 47.7863 28.5479 47.2858C30.5572 47.0634 32.3796 46.3723 33.7439 45.3396L33.7725 46.9078C28.7242 42.9999 25.3196 40.0162 25.5856 39.6556ZM11.8762 41.538C11.819 41.641 11.2406 41.5309 10.4985 40.8059C9.75713 40.0956 9.06261 38.6378 8.99824 36.8343C8.89425 35.0483 9.34705 32.8973 10.2136 30.8129C11.1202 28.5233 12.2952 26.3493 13.714 24.3364C15.0787 22.3939 16.6579 20.6113 18.4218 19.0223L20.5447 17.112L20.0632 19.8875C18.9399 26.3486 20.1944 31.0418 19.6914 31.1423C19.4899 31.1978 18.9342 30.1049 18.4638 28.0722C17.9981 26.0511 17.6729 23.0624 18.122 19.5887L19.7639 20.455C18.1764 22.0227 16.7316 23.7286 15.4466 25.5524C14.1152 27.4469 12.9651 29.4626 12.0116 31.5728C11.0967 33.513 10.5949 35.2888 10.4961 36.8408C10.3807 38.3822 10.729 39.5705 11.1522 40.3035C11.574 41.0424 11.9719 41.3992 11.8762 41.538Z" fill="#FFDD34"/>
<path d="M12.0322 42.7608C11.7533 42.7741 11.4259 41.8824 11.3516 40.3836C11.2721 38.8918 11.5086 36.7975 12.2831 34.6335C13.063 32.4698 14.2161 30.7047 15.2256 29.6037C16.2385 28.496 17.0571 28.0173 17.2651 28.204C17.7164 28.6193 15.6556 31.4213 14.2778 35.3495C12.8396 39.2552 12.6446 42.7297 12.0322 42.7608Z" fill="#FFDD34"/>
<path d="M11.8794 41.5652C11.6532 41.0121 14.405 39.3844 17.7218 37.3626C21.05 35.3558 23.7644 33.6676 24.1505 34.123C24.5256 34.5554 22.3107 37.065 18.8213 39.1728C15.3407 41.2928 12.0888 42.096 11.8794 41.5652ZM28.2329 47.3491C28.0523 47.9054 25.0041 47.413 21.4276 46.2485C17.8482 45.0847 15.0945 43.6893 15.2751 43.133C15.4558 42.5785 18.5033 43.0706 22.0813 44.2357C25.66 45.3992 28.4128 46.7944 28.2329 47.3491ZM-12.5029 58.0134C-12.7335 57.9981 -12.7762 55.0725 -11.148 50.705C-9.56988 46.3832 -5.96969 40.6645 0.00895565 36.6344L0.387534 36.3729L2.0183 35.2452L2.02488 37.2519C2.03632 40.912 0.839741 44.22 -0.62337 46.8767C-2.10037 49.5586 -3.86223 51.643 -5.39816 53.2847C-8.52067 56.5287 -10.7018 58.1938 -10.8896 58.0155C-11.1213 57.7967 -9.28141 55.7261 -6.52248 52.3144C-5.1696 50.5945 -3.61292 48.5034 -2.34078 45.9723C-1.07224 43.4534 -0.075285 40.4503 -0.0926966 37.2648L1.54564 38.1459L1.1953 38.3893C-4.3582 42.1315 -7.91789 47.3142 -9.76952 51.2915C-11.6666 55.2948 -12.1588 58.0773 -12.5029 58.0134ZM-15.4897 63.7676C-15.4244 63.4341 -12.5108 63.9658 -7.82831 63.8758C-5.09679 63.8236 -2.37564 63.5254 0.302142 62.985C1.87597 62.6675 3.43112 62.2638 4.96057 61.7757C5.73416 61.5041 6.62776 61.2539 7.20676 60.9303C7.49427 60.7763 7.73473 60.5635 7.83825 60.4035C7.96334 60.2264 8.0172 59.9763 7.99698 59.8408C7.96362 59.7094 7.97639 59.7088 7.8083 59.6049C7.6369 59.5124 7.29119 59.4408 6.88037 59.4021C6.04084 59.3156 5.19878 59.2559 4.35547 59.2229C2.75747 59.1703 1.15778 59.2206 -0.433686 59.3733C-3.1412 59.6472 -5.8117 60.2086 -8.39992 61.0483C-12.843 62.4962 -15.345 64.0927 -15.5314 63.7932C-15.6727 63.6126 -13.4271 61.5322 -8.92043 59.6445C-6.27392 58.5543 -3.49705 57.8118 -0.659238 57.4353C1.02196 57.2165 2.71699 57.1209 4.41226 57.1495C5.29444 57.1653 6.19075 57.2249 7.10057 57.3082C7.5659 57.3592 8.12262 57.4075 8.75941 57.7165C9.40447 57.9937 10.0369 58.7923 10.0984 59.5758C10.2952 61.1058 9.176 62.3142 8.22061 62.7757C7.23529 63.2887 6.42302 63.4672 5.58144 63.7555C3.96595 64.2426 2.32098 64.6262 0.656549 64.9039C-2.15368 65.3798 -5.00881 65.5371 -7.85461 65.3727C-12.7119 65.0718 -15.552 64.002 -15.4897 63.7676ZM26.0226 22.2627C25.9591 22.0583 26.3201 21.7384 26.9971 21.3511L27.1415 21.2689L27.4572 21.4019C27.8229 21.5543 28.1184 21.9455 28.1916 22.3638C28.2677 22.7769 28.2323 23.2871 27.7846 23.7509C27.3309 24.2403 26.4446 24.2596 25.9441 23.9164C25.6625 23.752 25.4325 23.5123 25.2801 23.2241C25.0876 22.8629 25.04 22.4421 25.1468 22.0471L25.165 21.9841L25.2992 21.7487C25.4875 21.419 26.106 21.136 26.5133 21.2369C26.9197 21.3043 27.1602 21.4781 27.363 21.6665C27.5587 21.862 27.7221 22.0912 27.8109 22.4437C27.9138 22.78 27.8195 23.338 27.5264 23.6582C27.3088 23.9296 26.9556 24.1281 26.6356 24.1868C26.3451 24.2425 26.0453 24.2242 25.7637 24.1337C25.2649 23.9683 24.8055 23.635 24.5669 23.0047L24.4363 22.6635L24.5552 22.3374C24.5884 22.246 24.6216 22.1447 24.6699 22.0536C25.1969 21.0243 26.2814 20.5743 27.3311 20.8538L27.5625 20.9151L27.7238 21.0638C28.285 21.5755 28.5075 22.2418 28.5197 22.8261C28.5362 23.4156 28.3664 23.9938 27.9824 24.4546C27.7972 24.6849 27.5597 24.8678 27.2896 24.9881C27.0195 25.1083 26.7245 25.1624 26.4293 25.1459C25.8609 25.0879 25.4896 24.7992 25.246 24.5258C24.7616 23.964 24.7087 23.2849 24.9127 22.9055C25.1195 22.5263 25.3786 22.5156 25.4518 22.593C25.5483 22.68 25.5299 22.8709 25.6129 23.0422C25.6826 23.2034 25.8597 23.4152 26.1318 23.5426C26.2629 23.604 26.4101 23.6124 26.4527 23.5701C26.4686 23.5277 26.5259 23.482 26.5519 23.3834C26.6572 23.2115 26.5471 22.6712 26.3869 22.6303L26.7798 22.8394C26.7797 22.8277 26.5695 22.9256 26.5788 22.9703C26.5788 22.9703 26.5821 22.9733 26.5748 22.9715L26.1645 22.4463C26.2812 22.4263 26.4157 22.1999 26.3449 22.3274C26.2647 22.4514 26.3954 22.773 26.3368 22.6492L26.4554 22.7489L26.4747 22.7597C26.4826 22.7626 26.4725 22.7606 26.4725 22.7606C26.4331 22.7543 26.3928 22.7567 26.3544 22.7676C26.238 22.7895 26.1361 22.8732 26.1665 22.8514C26.2378 22.773 26.2862 22.6765 26.3063 22.5725C26.3249 22.4363 26.2596 22.4674 26.3886 22.5656L26.6577 22.5112C26.628 22.5117 26.7503 22.5198 26.8395 22.468C26.9362 22.42 26.955 22.3742 26.9179 22.4257C26.8744 22.496 26.8505 22.5767 26.8487 22.6593C26.8446 22.7088 26.8654 22.6987 26.8335 22.6689C26.6464 22.5392 26.7846 22.6032 26.8003 22.5178C26.8316 22.4579 26.8604 22.4454 26.8832 22.4011L27.344 22.4521C26.5661 22.5217 26.0874 22.4658 26.0226 22.2627ZM35.5426 38.2358C35.5505 38.4499 35.3279 38.7373 35.659 39.1793C35.726 39.2758 35.8468 39.3289 35.8453 39.2729C35.8312 39.2336 35.7871 39.1743 35.7038 39.2201C35.6536 39.2443 35.6717 39.1285 35.6181 39.0441C35.5988 39.0047 35.5632 38.9968 35.5838 39.0376C35.5967 39.08 35.7162 39.1532 35.7874 39.152L36.2041 37.3497C36.5021 37.4966 36.8303 37.7738 36.9735 38.1556C37.1152 38.5153 37.1172 38.882 37.0552 39.1612C36.9162 39.7357 36.6537 40.1854 36.0887 40.5554C35.7519 40.7707 35.349 40.8579 34.9532 40.8013C34.5432 40.7431 34.1685 40.5372 33.8996 40.2223C33.3396 39.5679 33.3887 38.7855 33.5751 38.2447C33.7809 37.671 34.1903 37.1204 34.9366 36.8619C35.7221 36.6233 36.4673 36.9343 36.903 37.3938C37.328 37.8556 37.5053 38.3789 37.5354 38.8912C37.5706 39.3973 37.4297 39.9433 37.0909 40.386C36.3596 41.2622 35.3214 41.2759 34.6731 41.0556C33.9881 40.8351 33.4935 40.3536 33.2652 39.8301L33.2189 39.726C33.1579 39.497 33.1689 39.2548 33.2502 39.0323C33.3316 38.8097 33.4794 38.6176 33.6738 38.482C33.9526 38.2862 34.2375 38.2377 34.4654 38.2627C34.9519 38.3385 35.0192 38.6553 34.9387 38.7174C34.8596 38.8096 34.6775 38.8079 34.5449 38.9428C34.465 39.0123 34.4029 39.0998 34.3637 39.1982C34.3439 39.249 34.3466 39.3019 34.3617 39.3236C34.4192 39.3424 34.2694 39.3313 34.3572 39.3237L34.3731 39.1972C34.5309 39.3429 34.7796 39.466 35.058 39.4804C35.3412 39.5108 35.57 39.351 35.5667 39.271C35.598 39.2397 35.5377 38.8683 35.4403 38.8391C35.4069 38.8759 35.5103 38.7355 35.489 38.7517C35.4854 38.7607 35.4833 38.7702 35.483 38.7799L35.4823 38.7841L35.4999 38.6457L35.5019 38.6331C35.5004 38.5914 35.5025 38.6387 35.5092 38.6447C35.5084 38.7044 35.6715 38.8985 35.6218 38.854C35.6082 38.8642 35.5905 38.9068 35.5759 38.9389C35.5266 38.9751 35.6404 38.9916 35.4915 38.9924C35.4029 38.9973 35.3166 39.022 35.2389 39.0647C35.2211 39.0813 35.2804 39.0256 35.2856 38.9971L35.2243 39.0968L35.2084 39.1347L35.1976 39.1683C35.2031 39.1945 35.1912 39.0415 35.0993 38.8918L35.0305 38.7928L35.0355 38.7938C35.0404 38.7831 35.0545 38.7838 35.0627 38.769C35.0886 38.75 35.0997 38.7202 35.1076 38.7205C35.2573 38.7512 35.4517 38.7557 35.5248 38.7158C35.6216 38.6697 35.4977 38.7165 35.4572 38.849L35.7735 37.2491C36.205 37.2489 36.6686 37.48 36.913 37.7751C37.169 38.0683 37.2824 38.3763 37.3329 38.6564C37.4186 39.2118 37.3274 39.771 36.8986 40.2535C36.4179 40.7408 35.7204 40.7894 35.2517 40.5073C34.7838 40.2254 34.644 39.8369 34.5804 39.5367C34.4596 38.9244 34.7171 38.4066 35.0254 38.2183C35.3406 38.0379 35.5251 38.1505 35.5426 38.2358ZM7.85358 106.866C7.87613 106.942 7.66916 107.024 7.53448 107.309C7.40348 107.564 7.35926 108.153 7.71525 108.538C8.08748 108.945 8.86625 109.125 9.85972 109.078C10.9913 109.05 12.1157 108.89 13.2096 108.6C15.6356 107.964 18.3669 106.559 20.8467 104.314C23.3353 102.105 25.6439 99.0345 27.6986 95.7709C27.9086 95.4018 28.0309 95.0716 28.0406 94.8149C28.054 94.6973 28.022 94.6201 28.0254 94.6276C28.0074 94.6424 28.1911 94.7788 28.2411 94.7599C28.3151 94.715 27.7459 94.9018 27.3824 95.0821C26.9892 95.2603 26.6033 95.4716 26.2239 95.7041C24.7059 96.6278 23.2834 97.843 21.6382 98.7354C19.9853 99.6177 18.3346 100.1 16.8489 100.538C15.3611 100.97 14.0068 101.364 12.8605 101.86C10.557 102.839 9.06373 104.309 8.37108 105.492C7.66816 106.688 7.62095 107.531 7.45207 107.518C7.34833 107.532 7.09504 106.639 7.65941 105.146C8.21588 103.675 9.7554 101.825 12.2413 100.56C14.6873 99.2527 17.895 98.6834 20.7206 97.0977C22.1257 96.292 23.4781 95.0874 25.1759 94.008C25.5996 93.7383 26.0513 93.4826 26.531 93.2571C26.7697 93.1403 27.02 93.043 27.2725 92.9395C27.5525 92.8417 27.902 92.7062 28.4331 92.7441C28.9764 92.7588 29.6111 93.2102 29.8146 93.6681C30.0488 94.1134 30.0918 94.5454 30.0721 94.9201C30.0332 95.6608 29.7508 96.2766 29.4695 96.7766C27.2555 100.299 24.866 103.378 22.0775 105.731C19.3187 108.084 16.2405 109.497 13.5284 110.005C12.3084 110.24 11.0623 110.311 9.82343 110.215C8.75405 110.156 7.61294 109.833 7.08031 109.012C6.57252 108.148 6.88791 107.386 7.20794 107.061C7.57164 106.724 7.85701 106.813 7.85358 106.866Z" fill="#FFDD34"/>
<path d="M2.59036 110.741C2.30985 110.255 6.94651 106.875 12.9461 103.197C18.9474 99.5174 24.059 96.9175 24.3688 97.3882C24.6769 97.8584 20.0401 101.236 14.0111 104.932C7.98483 108.629 2.8698 111.228 2.59036 110.741ZM26.2365 81.8702C26.311 81.9105 26.1106 82.5319 25.393 83.4964C24.6819 84.4624 23.3679 85.6697 21.5611 86.8973C19.753 88.1379 17.5715 89.487 15.4561 91.5158C13.0807 93.7445 11.0788 96.34 9.52658 99.2033L7.93555 98.3273C8.12301 97.9829 8.10684 97.4356 7.9196 96.7707C7.74115 96.128 7.42337 95.3331 7.21001 94.527C6.76593 92.9182 6.45482 91.1881 6.50693 89.3626C6.55622 87.5494 7.00952 85.6131 8.08195 83.9372C9.14395 82.2556 10.7509 80.9759 12.5077 80.1009C15.5301 78.5974 18.8343 78.3889 21.7883 78.4811C22.5343 78.5043 23.2681 78.5462 23.989 78.5958C24.7409 78.6587 25.3501 78.6766 26.1935 78.787C26.6069 78.8571 27.0726 78.96 27.5567 79.2703C28.0467 79.5648 28.4563 80.1927 28.5261 80.7547C28.6126 81.3103 28.5248 81.7428 28.463 82.0983L28.2688 83.0995C27.7405 85.746 27.1025 88.3266 25.9315 90.567C24.7999 92.8194 23.0146 94.6089 21.0921 95.5947C19.1777 96.6184 17.2553 96.9628 15.6219 97.1321C13.974 97.2827 12.5636 97.2381 11.4222 97.1659C9.138 97.0014 7.90433 96.7445 7.91172 96.6166C7.91916 96.4646 9.18367 96.4538 11.4316 96.3722C12.5546 96.3257 13.9259 96.2519 15.4739 96.0042C17.0108 95.7407 18.7586 95.3124 20.3886 94.3383C22.0298 93.3916 23.4657 91.8477 24.4213 89.8079C25.4056 87.7824 25.9594 85.3557 26.4242 82.7499C26.5271 82.1208 26.7094 81.3173 26.6403 81.0777C26.6086 80.9585 26.6032 80.961 26.5039 80.8864C26.4016 80.8196 26.1749 80.7458 25.8989 80.7082C25.3502 80.6432 24.5408 80.6098 23.8658 80.5639C23.1583 80.5238 22.4477 80.4897 21.7369 80.4752C18.903 80.4116 15.9742 80.6455 13.4129 81.9255C11.9176 82.6707 10.6168 83.7201 9.783 85.0296C8.93961 86.3337 8.54537 87.8786 8.48473 89.4317C8.42126 90.9899 8.67065 92.5494 9.053 94.026C9.23609 94.7716 9.50208 95.4461 9.72673 96.3011C9.93224 97.1114 10.0781 98.2019 9.52942 99.1981L7.93759 98.3218C9.64419 95.3321 11.8457 92.6536 14.4486 90.4001C16.7585 88.3634 19.1433 87.0623 20.9765 85.9895C22.8303 84.9145 24.1545 83.9177 24.9656 83.1178C25.7763 82.3241 26.1398 81.8127 26.2365 81.8702Z" fill="#FFDD34"/>
<path d="M4.84094 83.2423C5.02195 83.189 5.66027 84.7449 6.62186 87.5085C7.20139 89.1727 7.75732 90.8451 8.2895 92.5251C8.5858 93.5169 8.88573 94.6022 9.02082 95.8175C9.1552 97.0226 9.1204 98.3983 8.60885 99.7464L7.92898 101.536L7.00456 99.8282C5.91597 97.8207 4.31575 95.8265 2.73654 93.5046C1.16399 91.2201 -0.357141 88.3221 -0.451774 85.0149C-0.548523 82.5202 0.327294 79.8468 2.45066 78.2622C2.98801 77.8774 3.63007 77.5719 4.34697 77.4715C5.04747 77.3786 5.76015 77.4791 6.40773 77.7622C7.63347 78.3284 8.39636 79.2284 9.03531 80.0527C10.2098 81.7048 11.3716 83.2903 11.9059 85.2307C12.4197 87.1688 12.0857 89.0108 11.598 90.4895C11.1225 91.9835 10.3633 93.225 9.88497 94.2223C9.39651 95.2588 9.08477 96.2126 8.81883 97.0028C8.30307 98.5927 7.92401 99.4606 7.78718 99.4195C7.65378 99.3787 7.76828 98.464 8.05045 96.8066C8.20067 95.9787 8.41133 94.9478 8.83297 93.788C9.28056 92.5994 9.86787 91.4683 10.219 90.0773C10.5776 88.7169 10.7456 87.169 10.2827 85.6946C9.83347 84.2271 8.70628 82.7242 7.5555 81.2053C6.9851 80.4853 6.3265 79.8362 5.64382 79.5495C4.971 79.2771 4.30121 79.3736 3.62011 79.8775C2.95409 80.3673 2.39988 81.1815 2.04456 82.0457C1.70677 82.9325 1.5515 83.9277 1.58439 84.9537C1.63474 86.3002 1.94937 87.6487 2.4544 88.8874C2.94381 90.1176 3.6536 91.2993 4.37632 92.4224C5.84414 94.666 7.45903 96.7794 8.57058 99.011L6.9663 99.0928C7.7965 97.0868 7.33729 94.8175 6.89033 92.9044C6.47004 91.2021 6.04915 89.5 5.62764 87.798C4.95724 84.9498 4.66023 83.2948 4.84094 83.2423Z" fill="#FFDD34"/>
<path d="M-2.49537 94.0224C-2.37636 94.0346 -2.4421 94.5639 -2.04682 95.3743C-1.85433 95.7825 -1.53379 96.2483 -1.12139 96.7967C-0.717128 97.35 -0.182628 97.9815 0.236784 98.8761C1.10759 100.654 1.03511 103.017 1.4588 105.293C1.66165 106.422 2.20797 107.49 2.81546 108.798C3.1088 109.449 3.40864 110.158 3.58052 110.989C3.76916 111.804 3.72477 112.823 3.31688 113.718L2.97867 114.457L2.18562 114.176C-0.420361 113.246 -2.8674 111.338 -4.59301 108.76C-6.35706 106.203 -7.3176 102.93 -7.32378 99.6207C-7.34824 96.8647 -6.75466 94.2183 -5.82538 91.8314C-5.5525 91.2531 -5.45461 90.6544 -4.76852 89.8875C-4.42462 89.5173 -3.82841 89.2413 -3.2969 89.2444C-2.7604 89.2342 -2.34225 89.3901 -2.00195 89.5483C-1.30822 89.892 -0.889805 90.2225 -0.385987 90.5472C0.103698 90.8739 0.582225 91.2161 1.04996 91.5632C2.90031 92.9564 4.6283 94.6154 5.47232 96.7267C5.87927 97.7318 6.06867 98.8114 6.02807 99.8947C5.98927 100.914 5.79743 101.839 5.59187 102.686C3.84579 109.314 2.61778 113.338 2.34563 113.281C2.06797 113.221 2.80969 109.039 4.18442 102.381C4.50141 100.745 4.67424 98.9971 3.91688 97.3833C3.20395 95.7512 1.70393 94.3356 -0.0589544 93.0752C-0.512303 92.7535 -0.972917 92.4421 -1.44044 92.1413C-1.90944 91.8456 -2.43975 91.4815 -2.81316 91.3136C-3.00616 91.2237 -3.16939 91.1933 -3.23338 91.2017C-3.30041 91.2133 -3.29081 91.2044 -3.36214 91.2709C-3.51483 91.3947 -3.75198 92.014 -3.96506 92.5519C-4.78923 94.7409 -5.31026 97.1495 -5.28683 99.6081C-5.27528 102.574 -4.45939 105.407 -2.9469 107.665C-1.46617 109.944 0.616458 111.625 2.81546 112.481L1.68577 112.94C2.1868 111.985 1.80376 110.695 1.28781 109.457C0.77405 108.232 0.161573 106.892 -0.0103015 105.552C-0.206359 104.243 -0.193216 103.07 -0.266298 102.024C-0.32907 100.98 -0.470511 100.06 -0.750065 99.2874C-1.02626 98.525 -1.465 97.8648 -1.81353 97.2508C-2.1653 96.6383 -2.44785 96.073 -2.57732 95.5702C-2.84974 94.5479 -2.56278 93.9919 -2.49537 94.0224ZM-12.2957 121.045C-12.2457 120.927 -10.2348 121.76 -7.92181 124.633C-6.78965 126.049 -5.65911 128.088 -4.98368 130.512C-4.80015 131.093 -4.60957 131.67 -4.35311 132.199C-4.09868 132.742 -3.78187 133.162 -3.31886 133.69C-2.88007 134.228 -2.30562 134.81 -2.02119 135.8C-1.88727 136.29 -1.87396 136.806 -1.98239 137.302C-2.09517 137.826 -2.44164 138.421 -3.00956 138.753L-3.39706 138.981L-3.8191 138.792C-6.54616 137.568 -9.65219 136.243 -12.5333 133.989C-13.958 132.856 -15.3034 131.49 -16.3517 129.823C-17.4189 128.176 -18.0961 126.16 -18.2622 124.136C-18.5204 121.09 -17.9174 118.296 -17.3874 115.652C-17.2785 115.254 -17.2013 114.786 -16.6736 114.251C-16.4053 113.988 -15.9592 113.8 -15.5505 113.808C-15.1187 113.81 -14.7833 113.979 -14.556 114.126C-14.0976 114.445 -13.913 114.699 -13.6979 114.871C-13.4898 115.074 -13.2618 115.258 -13.0287 115.437C-12.1015 116.156 -11.0353 116.718 -9.95804 117.25C-7.81015 118.309 -5.52583 119.261 -3.77696 120.9C-2.00338 122.53 -1.09041 124.658 -0.727454 126.576C-0.409245 128.308 -0.456593 130.087 -0.866464 131.8C-1.16582 133.063 -1.62026 134.284 -2.21948 135.436C-3.21307 137.309 -4.00803 138.168 -4.10869 138.102C-4.24513 138.019 -3.67825 137.01 -2.94418 135.113C-2.25885 133.243 -1.3329 130.299 -2.13589 126.877C-2.54459 125.197 -3.40268 123.443 -4.90763 122.153C-6.40628 120.828 -8.51464 119.982 -10.7701 118.941C-11.8956 118.413 -13.0811 117.825 -14.1997 116.988C-14.4853 116.781 -14.7583 116.558 -15.0172 116.318C-15.2982 116.076 -15.5406 115.825 -15.6279 115.781C-15.7144 115.886 -15.5056 115.424 -15.5527 115.442C-15.5525 115.43 -15.5527 115.442 -15.5491 115.454C-15.5521 115.434 -15.5588 115.42 -15.5566 115.427C-15.5566 115.427 -15.5329 115.476 -15.4616 115.556C-15.4323 115.583 -15.3778 115.641 -15.3278 115.675C-15.29 115.71 -15.3185 115.684 -15.3136 115.701C-15.3281 115.725 -15.3404 115.75 -15.3501 115.776C-15.3801 115.851 -15.412 115.958 -15.4383 116.082C-15.9329 118.645 -16.4674 121.339 -16.2339 123.955C-15.9955 127.47 -13.8626 130.398 -11.3044 132.46C-8.73002 134.538 -5.77628 135.899 -3.08342 137.199L-3.89267 137.237C-3.70743 137.184 -3.52957 136.705 -3.65588 136.21C-3.74417 135.775 -4.13583 135.24 -4.56193 134.712C-4.99715 134.186 -5.47524 133.497 -5.74279 132.829C-6.02919 132.161 -6.20588 131.514 -6.36521 130.909C-6.90742 128.531 -7.79831 126.682 -8.75334 125.233C-10.6818 122.361 -12.4485 121.234 -12.2957 121.045Z" fill="#FFDD34"/>
<path d="M-0.857288 130.014C-0.929407 129.982 -0.780784 129.329 -0.0478931 128.352C0.669756 127.364 2.10241 126.229 4.04753 125.209C5.99092 124.162 8.3944 123.209 10.6651 121.438C12.9429 119.691 15.1718 117.257 16.7689 114.166L17.278 113.185L18.1615 113.874C19.3941 114.835 20.2543 116.293 20.5728 117.846C20.9004 119.427 20.8054 121.066 20.2975 122.597C19.2949 125.786 16.517 128.24 13.2548 129.276C11.7428 129.756 10.1448 129.903 8.57017 129.708C7.01567 129.484 5.83032 129.1 4.72273 129.324C4.12903 129.416 3.47381 129.606 2.7344 129.728C2.01397 129.862 1.08782 129.875 0.29162 129.595C-0.496987 129.334 -1.38601 128.748 -1.72395 127.741C-1.89815 127.25 -1.88983 126.769 -1.84853 126.385C-1.80833 125.993 -1.72554 125.682 -1.65598 125.34C-1.0234 122.646 0.505868 120.494 2.09189 118.814C3.70783 117.128 5.40677 115.839 7.03175 114.76C8.66646 113.684 10.3522 112.918 11.9352 112.629C13.5293 112.32 14.9471 112.524 16.0082 112.893C18.1759 113.689 18.756 114.983 18.6586 115.004C18.5358 115.139 17.768 114.123 15.7852 113.655C14.5959 113.391 13.3605 113.42 12.1849 113.738C10.8068 114.095 9.33792 114.86 7.84616 115.947C6.35462 117.042 4.76539 118.359 3.33488 119.956C1.91969 121.555 0.649528 123.499 0.175233 125.749C-0.64337 128.115 1.50988 128.179 4.39926 127.356C5.16227 127.211 6.04482 127.238 6.77108 127.355C7.51774 127.465 8.19609 127.624 8.82902 127.701C10.1122 127.851 11.4125 127.725 12.6433 127.334C15.3354 126.49 17.6304 124.433 18.4089 121.977C19.2495 119.521 18.7584 116.691 17.0129 115.325L18.4052 115.033C16.7436 118.071 14.4073 120.687 11.5757 122.681C9.04026 124.488 6.45566 125.346 4.53701 126.209C2.58594 127.057 1.19302 127.951 0.391827 128.748C-0.420696 129.528 -0.748399 130.073 -0.857288 130.014Z" fill="#FFDD34"/>
<path d="M-2.89556 158.024C-3.16852 158.019 -3.39618 154.432 -3.42469 148.618C-3.42725 142.813 -3.24862 134.733 -1.79381 125.91C-0.34539 117.08 2.40575 109.338 5.18378 104.169C7.92925 98.966 10.4012 96.2573 10.5823 96.4009C10.8526 96.5885 8.82898 99.5619 6.47916 104.798C4.09326 110.011 1.6379 117.591 0.214736 126.245C-1.21373 134.899 -1.62131 142.885 -1.98483 148.66C-2.32468 154.442 -2.60591 158.03 -2.89556 158.024Z" fill="#FFDD34"/>
<path d="M-2.64521 146.749C-3.21169 146.782 -3.72911 144.47 -3.6752 141.681C-3.644 140.553 -3.61294 139.497 -3.57796 138.299C-3.56566 137.521 -3.73892 137.064 -3.55848 136.83C-3.46582 136.73 -3.26319 136.734 -2.97705 136.908C-2.70749 137.085 -2.39462 137.459 -2.17996 137.954C-1.75052 138.949 -1.62645 140.297 -1.6396 141.699C-1.69231 144.498 -2.08699 146.717 -2.64521 146.749ZM-22.2108 165.557C-22.2115 165.691 -23.3205 165.808 -25.1132 165.888C-26.0101 165.936 -27.0768 165.93 -28.1946 166.102C-29.318 166.257 -30.4309 166.731 -31.4821 167.512C-32.5267 168.299 -33.4235 169.225 -34.2786 170.052C-35.1303 170.881 -35.9562 171.607 -36.7351 172.114C-37.3472 172.524 -38.0235 172.828 -38.7361 173.015C-39.2525 173.104 -39.5356 173.109 -39.5488 173.046C-39.5613 172.979 -39.3081 172.847 -38.8609 172.658C-38.4306 172.421 -37.8073 172.113 -37.1368 171.556C-36.4607 171.016 -35.724 170.278 -34.9156 169.421C-34.1023 168.57 -33.2019 167.593 -32.0605 166.731C-30.9248 165.873 -29.5516 165.325 -28.3152 165.215C-27.0803 165.079 -26.0033 165.163 -25.1107 165.202C-23.3183 165.297 -22.2112 165.423 -22.2108 165.557Z" fill="#FFDD34"/>
<path d="M-21.8845 159.15C-21.9375 159.117 -21.9119 158.916 -21.7183 158.601C-21.5919 158.398 -21.4197 158.227 -21.2154 158.102C-21.0588 158.006 -20.8815 157.949 -20.6983 157.935C-20.5151 157.922 -20.3313 157.953 -20.1624 158.025C-19.9742 158.109 -19.7795 158.235 -19.639 158.461C-19.4897 158.678 -19.4525 159.031 -19.5645 159.298C-19.6779 159.581 -19.8936 159.768 -20.0916 159.896C-20.284 160.013 -20.4881 160.11 -20.7008 160.185C-20.9255 160.275 -21.1609 160.335 -21.4012 160.366C-21.6686 160.391 -22.004 160.373 -22.3202 160.17C-22.6016 159.973 -22.8418 159.686 -22.8687 159.239C-22.8755 159.01 -22.7996 158.786 -22.6547 158.608C-22.5194 158.442 -22.3689 158.35 -22.2459 158.28C-22.0165 158.151 -21.7738 158.048 -21.5222 157.972C-21.2621 157.899 -20.9729 157.841 -20.6298 157.912C-20.2782 157.983 -19.9429 158.255 -19.8238 158.613C-19.7029 158.973 -19.7822 159.306 -19.9081 159.559C-20.0344 159.81 -20.2322 160.017 -20.4765 160.155C-20.677 160.266 -20.8951 160.343 -21.1214 160.381C-21.3065 160.413 -21.4936 160.432 -21.6813 160.437C-21.8371 160.435 -22.0294 160.478 -22.3047 160.38C-22.4466 160.324 -22.5646 160.221 -22.6387 160.088C-22.7012 159.97 -22.7262 159.835 -22.7102 159.703C-22.688 159.506 -22.5951 159.323 -22.4486 159.188C-22.136 158.927 -21.8433 158.989 -21.6602 159.026C-21.2885 159.139 -21.1563 159.284 -21.171 159.34C-21.1887 159.411 -21.4009 159.385 -21.6993 159.403C-21.8366 159.41 -22.0186 159.471 -22.0542 159.562C-22.084 159.611 -22.1062 159.689 -22.0937 159.735C-22.0992 159.764 -22.055 159.751 -22.0991 159.769C-22.1229 159.797 -22.0685 159.72 -22.0735 159.734C-22.0566 159.736 -21.9254 159.721 -21.7566 159.691C-21.6026 159.668 -21.4502 159.637 -21.3002 159.595C-21.1568 159.554 -21.0259 159.501 -20.9222 159.427C-20.8296 159.364 -20.7576 159.276 -20.7155 159.173C-20.6377 158.935 -20.7001 158.874 -20.8291 158.843C-21.0136 158.8 -21.433 158.935 -21.7715 159.128C-21.8195 159.151 -21.8634 159.182 -21.9016 159.22L-21.9052 159.225L-21.9336 159.21C-21.9387 159.211 -21.9025 159.215 -21.9025 159.215C-21.9141 159.222 -21.862 159.332 -21.7909 159.379C-21.6898 159.473 -21.3355 159.459 -20.991 159.337C-20.6322 159.239 -20.3534 159.085 -20.3062 158.982C-20.2781 158.921 -20.2667 158.898 -20.2912 158.831C-20.3271 158.753 -20.3863 158.687 -20.4608 158.643C-20.7803 158.419 -21.1985 158.66 -21.4356 158.851C-21.683 159.049 -21.8243 159.188 -21.8845 159.15ZM-22.776 165.451C-22.7769 165.477 -22.8272 165.511 -22.93 165.489C-23.0223 165.465 -23.1886 165.378 -23.2273 165.134L-23.237 165.076L-23.1581 164.999C-22.9819 164.826 -22.6719 164.643 -22.2537 164.609C-22.0012 164.587 -21.7468 164.621 -21.5091 164.709C-21.2714 164.797 -21.0564 164.937 -20.8796 165.119C-20.8257 165.179 -20.7665 165.248 -20.7155 165.354C-20.6646 165.455 -20.626 165.618 -20.6686 165.78C-20.7727 166.117 -21.0109 166.218 -21.155 166.292C-21.4518 166.424 -21.7712 166.496 -22.0957 166.505C-22.4569 166.516 -22.8165 166.451 -23.1518 166.316C-23.4871 166.181 -23.7909 165.979 -24.0441 165.721L-24.3221 165.434L-24.0712 165.107C-23.6316 164.535 -22.9096 164.2 -22.1629 164.198C-21.8281 164.197 -21.497 164.267 -21.1908 164.403C-20.8999 164.53 -20.5596 164.765 -20.3873 165.129C-20.2985 165.309 -20.231 165.572 -20.322 165.85C-20.4101 166.125 -20.6447 166.305 -20.7974 166.376C-21.0561 166.497 -21.331 166.581 -21.6136 166.624C-22.6923 166.785 -23.648 166.378 -24.2074 165.834L-24.5739 165.478L-24.1517 165.282C-23.4243 164.944 -22.7748 165.066 -22.4069 165.22C-22.0281 165.385 -21.8916 165.574 -21.9252 165.623C-21.9613 165.684 -22.1592 165.612 -22.5012 165.578C-22.8359 165.547 -23.3535 165.568 -23.8244 165.873L-23.769 165.321C-23.2922 165.675 -22.5406 165.907 -21.7705 165.746C-21.5866 165.709 -21.3775 165.633 -21.232 165.558C-21.1995 165.547 -21.2046 165.518 -21.1834 165.543C-21.1648 165.565 -21.114 165.599 -21.1477 165.577L-21.123 165.589C-21.1561 165.583 -21.1902 165.582 -21.2235 165.588L-21.239 165.552C-21.3245 165.357 -21.7613 165.164 -22.1615 165.169C-22.6274 165.17 -23.0742 165.379 -23.3261 165.69L-23.3535 165.076C-23.0329 165.434 -22.544 165.626 -22.0966 165.643C-21.8723 165.652 -21.6517 165.62 -21.4621 165.555C-21.4368 165.546 -21.412 165.536 -21.388 165.525C-21.4017 165.506 -21.3378 165.577 -21.3125 165.591C-21.2825 165.614 -21.2607 165.62 -21.2607 165.62C-21.2355 165.62 -21.3193 165.616 -21.3972 165.653C-21.395 165.649 -21.4065 165.622 -21.4289 165.593C-21.6279 165.325 -21.9635 165.183 -22.2505 165.156C-22.4941 165.128 -22.7405 165.167 -22.9639 165.268L-22.8947 165.133C-22.9413 165.296 -22.7623 165.407 -22.776 165.451ZM-29.4515 143.323C-29.5743 143.389 -29.8063 143.228 -30.1068 142.896L-29.8715 143.081C-29.8647 143.116 -29.8374 143.131 -29.8365 143.16C-29.8366 143.184 -29.8063 143.23 -29.7814 143.154C-29.756 143.067 -29.8518 142.958 -29.8675 142.953C-29.8716 142.939 -29.9475 142.886 -30.0644 143.041L-30.1289 143.248C-30.1715 143.357 -30.0669 143.629 -29.9467 143.694C-29.8374 143.77 -29.7851 143.769 -29.7418 143.775C-29.6972 143.776 -29.6564 143.777 -29.5732 143.729C-29.4902 143.694 -29.365 143.521 -29.3636 143.383C-29.3447 143.183 -29.4858 143.05 -29.5208 143.043C-29.5668 143.023 -29.604 143 -29.7276 143.05L-30.0363 143.355L-30.0414 143.364C-30.0315 143.393 -30.0634 143.303 -30.0309 143.328L-29.7531 143.41C-29.7801 143.359 -30.0235 143.506 -30.0458 143.58C-30.075 143.61 -30.0783 143.631 -30.1071 143.641C-30.1243 143.663 -30.0743 143.721 -30.0058 143.751C-29.8848 143.805 -29.7499 143.819 -29.6205 143.791C-29.5151 143.768 -29.4336 143.684 -29.3506 143.687C-29.281 143.685 -29.1678 143.794 -29.2318 144.045C-29.2992 144.296 -29.6004 144.568 -30.0406 144.611C-30.3175 144.639 -30.5944 144.557 -30.812 144.384C-30.9481 144.267 -31.0541 144.118 -31.1213 143.952C-31.1885 143.785 -31.2148 143.605 -31.1982 143.426C-31.1671 143.072 -31.0067 142.742 -30.7478 142.499C-30.6054 142.358 -30.4358 142.247 -30.2491 142.174C-30.0625 142.101 -29.8628 142.067 -29.6624 142.073L-29.5208 142.078L-29.3839 142.155C-28.8071 142.481 -28.5288 143.132 -28.7368 143.806C-28.7549 143.866 -28.784 143.925 -28.8084 143.978L-28.9032 144.185L-29.1175 144.284C-29.2762 144.36 -29.4505 144.397 -29.6265 144.394C-29.8025 144.391 -29.9753 144.347 -30.1313 144.265C-30.2947 144.184 -30.4347 144.062 -30.5383 143.911C-30.664 143.729 -30.7229 143.508 -30.705 143.287C-30.6957 143.015 -30.4919 142.721 -30.2987 142.616C-30.1043 142.497 -29.9328 142.467 -29.7621 142.466C-29.5911 142.47 -29.4094 142.497 -29.1972 142.646C-28.9701 142.779 -28.8136 143.183 -28.8755 143.414L-28.9219 143.586L-28.9401 143.621C-29.0734 143.865 -29.3042 144.021 -29.5073 144.083C-29.6975 144.143 -29.9005 144.149 -30.0939 144.1C-30.4585 144.036 -30.8424 143.644 -30.8297 143.233C-30.8314 143.079 -30.7942 142.927 -30.7216 142.791C-30.6491 142.655 -30.5434 142.539 -30.4144 142.455C-30.2036 142.307 -29.9071 142.264 -29.6823 142.355L-29.4721 142.44L-29.4454 142.541C-29.3345 142.976 -29.3295 143.258 -29.4515 143.323ZM-25.446 180.609C-25.5688 180.674 -25.8007 180.514 -26.1012 180.182L-25.8659 180.367C-25.8592 180.402 -25.8318 180.417 -25.831 180.446C-25.831 180.47 -25.8008 180.516 -25.7758 180.44C-25.7505 180.353 -25.8462 180.244 -25.862 180.239C-25.866 180.225 -25.9419 180.172 -26.0588 180.327L-26.1234 180.534C-26.166 180.643 -26.0613 180.915 -25.9412 180.979C-25.8319 181.056 -25.7795 181.055 -25.7362 181.061C-25.6917 181.062 -25.6508 181.063 -25.5677 181.015C-25.4847 180.98 -25.3595 180.807 -25.3581 180.669C-25.3392 180.469 -25.4802 180.336 -25.5153 180.329C-25.5613 180.309 -25.5984 180.286 -25.722 180.336L-26.0308 180.641L-26.0358 180.65C-26.026 180.678 -26.0579 180.589 -26.0253 180.614L-25.7476 180.695C-25.7745 180.645 -26.018 180.792 -26.0402 180.866C-26.0694 180.896 -26.0728 180.917 -26.1015 180.927C-26.1188 180.949 -26.0688 181.007 -26.0003 181.037C-25.8792 181.09 -25.7444 181.104 -25.6149 181.077C-25.5095 181.054 -25.428 180.969 -25.3451 180.973C-25.2755 180.971 -25.1622 181.08 -25.2262 181.331C-25.2936 181.581 -25.5948 181.854 -26.0351 181.896C-26.3119 181.924 -26.5888 181.843 -26.8065 181.67C-26.9425 181.552 -27.0486 181.404 -27.1157 181.238C-27.1829 181.071 -27.2093 180.891 -27.1927 180.712C-27.1615 180.358 -27.0012 180.028 -26.7422 179.785C-26.5999 179.644 -26.4302 179.533 -26.2436 179.46C-26.0569 179.387 -25.8573 179.353 -25.6568 179.359L-25.5153 179.364L-25.3783 179.441C-24.8015 179.767 -24.5233 180.418 -24.7313 181.091C-24.7493 181.152 -24.7785 181.211 -24.8029 181.264L-24.8977 181.471L-25.1119 181.57C-25.2707 181.646 -25.445 181.683 -25.621 181.68C-25.7969 181.677 -25.9698 181.633 -26.1258 181.551C-26.2892 181.47 -26.4292 181.348 -26.5328 181.197C-26.6585 181.015 -26.7173 180.794 -26.6994 180.573C-26.6902 180.301 -26.4864 180.007 -26.2932 179.901C-26.0987 179.783 -25.9273 179.753 -25.7566 179.752C-25.5855 179.756 -25.4038 179.783 -25.1916 179.932C-24.9646 180.065 -24.808 180.469 -24.87 180.7L-24.9163 180.872L-24.9345 180.906C-25.0678 181.151 -25.2986 181.307 -25.5017 181.369C-25.6919 181.429 -25.8949 181.435 -26.0884 181.386C-26.453 181.322 -26.8369 180.93 -26.8241 180.519C-26.8258 180.365 -26.7887 180.213 -26.7161 180.077C-26.6435 179.941 -26.5379 179.825 -26.4089 179.741C-26.198 179.593 -25.9016 179.55 -25.6768 179.641L-25.4666 179.726L-25.4399 179.827C-25.329 180.262 -25.324 180.544 -25.446 180.609ZM-60.3878 185.477C-60.5106 185.542 -60.7425 185.381 -61.0431 185.049L-60.8077 185.234C-60.801 185.269 -60.7736 185.285 -60.7728 185.313C-60.7728 185.338 -60.7426 185.384 -60.7176 185.307C-60.6923 185.22 -60.788 185.112 -60.8038 185.106C-60.8078 185.093 -60.8837 185.039 -61.0006 185.195L-61.0652 185.401C-61.1078 185.511 -61.0031 185.782 -60.883 185.847C-60.7737 185.923 -60.7213 185.922 -60.678 185.929C-60.6335 185.929 -60.5926 185.93 -60.5095 185.882C-60.4265 185.847 -60.3013 185.675 -60.2999 185.536C-60.281 185.337 -60.422 185.204 -60.4571 185.197C-60.5031 185.176 -60.5403 185.153 -60.6639 185.204L-60.9726 185.508L-60.9777 185.517C-60.9678 185.546 -60.9997 185.456 -60.9671 185.482L-60.6894 185.563C-60.7163 185.513 -60.9598 185.659 -60.982 185.733C-61.0112 185.763 -61.0146 185.784 -61.0434 185.794C-61.0606 185.816 -61.0106 185.874 -60.9421 185.904C-60.821 185.958 -60.6862 185.972 -60.5567 185.944C-60.4514 185.921 -60.3699 185.837 -60.2869 185.84C-60.2173 185.838 -60.104 185.948 -60.168 186.198C-60.2354 186.449 -60.5367 186.721 -60.9769 186.764C-61.2538 186.792 -61.5306 186.711 -61.7483 186.537C-61.8843 186.42 -61.9904 186.272 -62.0576 186.105C-62.1247 185.939 -62.1511 185.759 -62.1345 185.58C-62.1033 185.226 -61.943 184.896 -61.684 184.652C-61.5417 184.511 -61.372 184.401 -61.1854 184.328C-60.9987 184.254 -60.7991 184.22 -60.5987 184.227L-60.4571 184.231L-60.3201 184.308C-59.7433 184.634 -59.4651 185.286 -59.6731 185.959C-59.6911 186.019 -59.7203 186.078 -59.7447 186.132L-59.8395 186.338L-60.0537 186.437C-60.2125 186.513 -60.3868 186.551 -60.5628 186.548C-60.7388 186.544 -60.9116 186.5 -61.0676 186.419C-61.231 186.337 -61.371 186.215 -61.4746 186.065C-61.6003 185.882 -61.6592 185.662 -61.6412 185.441C-61.632 185.169 -61.4282 184.874 -61.235 184.769C-61.0406 184.651 -60.8691 184.621 -60.6984 184.619C-60.5273 184.624 -60.3456 184.65 -60.1335 184.799C-59.9064 184.932 -59.7498 185.336 -59.8118 185.567L-59.8581 185.74L-59.8763 185.774C-60.0096 186.019 -60.2404 186.174 -60.4435 186.236C-60.6337 186.296 -60.8368 186.302 -61.0302 186.254C-61.3948 186.189 -61.7787 185.797 -61.7659 185.386C-61.7676 185.232 -61.7305 185.08 -61.6579 184.944C-61.5853 184.808 -61.4797 184.693 -61.3507 184.609C-61.1398 184.461 -60.8434 184.417 -60.6186 184.508L-60.4084 184.593L-60.3817 184.694C-60.2708 185.129 -60.2658 185.411 -60.3878 185.477ZM-13.0174 68.0236C-13.1401 68.0887 -13.3721 67.928 -13.6726 67.5958L-13.4373 67.7811C-13.4305 67.8158 -13.4032 67.8314 -13.4024 67.8603C-13.4024 67.8845 -13.3722 67.9306 -13.3472 67.854C-13.3219 67.7669 -13.4176 67.6587 -13.4333 67.6528C-13.4374 67.6397 -13.5133 67.5863 -13.6302 67.7414L-13.6948 67.9482C-13.7373 68.0576 -13.6327 68.3292 -13.5126 68.3937C-13.4032 68.4703 -13.3509 68.4692 -13.3076 68.4755C-13.263 68.476 -13.2222 68.4769 -13.139 68.4292C-13.056 68.3939 -12.9308 68.2214 -12.9295 68.0832C-12.9105 67.8835 -13.0516 67.7504 -13.0867 67.7436C-13.1327 67.7229 -13.1698 67.7001 -13.2934 67.7506L-13.6021 68.0552L-13.6072 68.064C-13.5974 68.0927 -13.6293 68.003 -13.5967 68.0286L-13.319 68.1097C-13.3459 68.0594 -13.5894 68.2058 -13.6116 68.2798C-13.6408 68.3101 -13.6442 68.3312 -13.6729 68.3411C-13.6902 68.3633 -13.6402 68.4213 -13.5717 68.4513C-13.4506 68.5048 -13.3157 68.5187 -13.1863 68.4912C-13.0809 68.4679 -12.9994 68.3837 -12.9164 68.3869C-12.8468 68.3851 -12.7336 68.4944 -12.7976 68.7453C-12.865 68.9958 -13.1662 69.2682 -13.6065 69.3108C-13.8833 69.3388 -14.1602 69.2574 -14.3779 69.084C-14.5139 68.9667 -14.6199 68.8186 -14.6871 68.6521C-14.7543 68.4855 -14.7807 68.3054 -14.7641 68.1266C-14.7329 67.7727 -14.5726 67.4426 -14.3136 67.1993C-14.1713 67.0582 -14.0016 66.9476 -13.8149 66.8744C-13.6283 66.8012 -13.4286 66.7669 -13.2282 66.7736L-13.0866 66.7781L-12.9497 66.8551C-12.3729 67.1811 -12.0947 67.8325 -12.3027 68.5057C-12.3207 68.5661 -12.3498 68.625 -12.3743 68.6785L-12.4691 68.8848L-12.6833 68.9839C-12.842 69.0598 -13.0163 69.0977 -13.1923 69.0945C-13.3683 69.0913 -13.5412 69.0472 -13.6971 68.9656C-13.8605 68.8838 -14.0006 68.762 -14.1041 68.6116C-14.2299 68.4289 -14.2887 68.2085 -14.2708 67.9875C-14.2615 67.7153 -14.0578 67.4209 -13.8646 67.3157C-13.6701 67.1976 -13.4987 67.1676 -13.3279 67.166C-13.1569 67.1707 -12.9752 67.1973 -12.763 67.3462C-12.5359 67.4792 -12.3794 67.8829 -12.4413 68.114L-12.4877 68.2864L-12.5059 68.3208C-12.6392 68.5654 -12.87 68.721 -13.0731 68.7831C-13.2633 68.8428 -13.4663 68.8488 -13.6598 68.8005C-14.0244 68.7362 -14.4083 68.3443 -14.3955 67.9329C-14.3972 67.7789 -14.36 67.6269 -14.2875 67.491C-14.2149 67.3551 -14.1092 67.2397 -13.9803 67.1554C-13.7694 67.0076 -13.473 66.9642 -13.2481 67.0552L-13.038 67.1399L-13.0112 67.2411C-12.9004 67.6762 -12.8954 67.9581 -13.0174 68.0236Z" fill="#FFDD34"/>
</g>
</svg>
