<svg width="56" height="246" viewBox="0 0 56 246" fill="none" xmlns="http://www.w3.org/2000/svg">
<g opacity="0.3">
<path d="M116.909 211.655C117.071 211.487 115.906 210.473 114.781 208.43C114.225 207.406 113.745 206.101 113.335 204.579C113.142 203.824 112.882 202.982 112.805 202.246C112.769 201.879 112.795 201.524 112.902 201.24C113.011 200.972 113.211 200.751 113.467 200.616C113.731 200.491 113.904 200.5 114.057 200.605C114.211 200.698 114.336 200.949 114.397 201.3C114.511 201.98 114.427 202.916 114.5 203.73C114.586 205.186 114.83 206.629 115.227 208.033C115.916 210.424 116.756 211.727 116.909 211.655C117.103 211.575 116.595 210.156 116.176 207.813C115.93 206.448 115.794 205.065 115.768 203.678C115.761 203.279 115.764 202.88 115.776 202.481C115.787 202.067 115.808 201.593 115.729 201.079C115.651 200.584 115.454 199.92 114.85 199.487C114.57 199.283 114.187 199.15 113.826 199.151C113.482 199.149 113.144 199.231 112.84 199.391C112.275 199.682 111.839 200.173 111.617 200.767C111.414 201.333 111.406 201.892 111.463 202.388C111.6 203.389 111.886 204.152 112.119 204.941C112.61 206.498 113.231 207.89 113.948 208.935C114.501 209.762 115.176 210.499 115.951 211.122C116.497 211.555 116.851 211.721 116.909 211.655ZM113.683 210.483C113.753 210.328 112.501 209.534 110.231 208.778C108.898 208.34 107.53 208.02 106.141 207.823C105.317 207.703 104.489 207.624 103.658 207.585L103.003 207.563C102.731 207.559 102.464 207.586 102.189 207.649C101.877 207.717 101.583 207.85 101.326 208.04C101.176 208.16 101.025 208.323 100.918 208.54C100.812 208.762 100.782 209.014 100.802 209.237L100.823 209.45L100.97 209.616L101.103 209.767C101.718 210.458 102.371 211.142 103.161 211.681C103.938 212.222 104.919 212.58 105.861 212.53C106.791 212.487 107.531 212.197 108.181 212.012C108.823 211.818 109.435 211.694 110.001 211.609C112.278 211.293 113.745 211.602 113.788 211.389C113.841 211.24 112.414 210.562 109.912 210.639C109.234 210.668 108.559 210.758 107.896 210.907C107.193 211.063 106.494 211.268 105.84 211.262C104.537 211.291 103.289 210.191 102.134 208.854L102.004 208.707L102.172 209.086C102.121 209.1 102.021 209.071 102.075 209.088C102.1 209.092 102.158 209.144 102.158 209.138C102.158 209.138 102.17 209.129 102.176 209.119C102.278 209.052 102.391 209.004 102.51 208.978C102.666 208.941 102.826 208.921 102.986 208.92L103.611 208.929C104.404 208.949 105.197 208.998 105.986 209.076C107.327 209.209 108.66 209.421 109.976 209.71C112.231 210.203 113.603 210.672 113.683 210.483ZM135.717 213.677C135.73 213.444 134.082 213.398 131.737 212.425C130.577 211.929 129.25 211.198 127.992 210.123C127.357 209.595 126.754 208.968 126.197 208.272C125.911 207.928 125.658 207.55 125.405 207.167L125.047 206.574C124.995 206.483 124.969 206.417 124.968 206.405C124.964 206.399 124.977 206.438 124.957 206.479C124.88 206.607 124.855 206.545 125.005 206.534C125.156 206.524 125.308 206.542 125.453 206.588C125.51 206.602 125.607 206.651 125.713 206.703L126.013 206.846C126.215 206.932 126.402 207.056 126.594 207.164C127.351 207.617 128.044 208.153 128.693 208.698C129.983 209.798 131.14 210.886 132.254 211.658C133.355 212.445 134.404 212.892 135.153 213.044C135.901 213.211 136.33 213.151 136.339 213.075C136.381 212.847 134.759 212.593 132.85 210.888C131.878 210.07 130.826 208.945 129.53 207.744C128.876 207.149 128.145 206.543 127.294 206.012C127.078 205.883 126.869 205.741 126.632 205.633L126.283 205.461C126.171 205.406 126.053 205.342 125.877 205.286C125.557 205.183 125.239 205.136 124.874 205.166C124.693 205.182 124.491 205.224 124.273 205.331C124.059 205.433 123.814 205.645 123.694 205.929C123.573 206.198 123.569 206.5 123.631 206.734C123.689 206.963 123.778 207.12 123.846 207.244L124.252 207.907C124.537 208.332 124.826 208.749 125.15 209.124C125.755 209.858 126.439 210.522 127.19 211.106C128.45 212.095 129.876 212.852 131.403 213.34C134.024 214.14 135.734 213.819 135.717 213.677ZM129.312 213.894C129.295 213.812 128.894 213.781 128.239 214.042C127.583 214.293 126.757 214.906 125.886 215.69C125.013 216.483 124.001 217.29 122.626 217.789C121.92 218.052 121.182 218.223 120.432 218.298C120.037 218.335 119.64 218.346 119.244 218.33C119.044 218.315 118.842 218.309 118.641 218.279C118.443 218.253 118.217 218.227 118.096 218.189C117.96 218.148 117.945 218.118 117.928 218.101C117.897 218.042 117.885 217.974 117.893 217.908C117.902 217.802 117.934 217.699 117.989 217.607C118.055 217.507 118.142 217.421 118.242 217.355C118.705 217.03 119.595 216.861 120.317 216.645C121.634 216.289 122.958 215.958 124.288 215.65C126.562 215.12 127.988 214.813 127.965 214.617C127.945 214.435 126.473 214.401 124.117 214.692C122.738 214.866 121.369 215.107 120.013 215.413L118.836 215.693C118.426 215.801 117.954 215.93 117.483 216.24C117.252 216.396 117.023 216.594 116.835 216.883C116.663 217.161 116.555 217.467 116.527 217.804C116.5 218.137 116.558 218.523 116.789 218.87C117.021 219.225 117.414 219.433 117.71 219.51C119.734 219.943 121.547 219.607 123.099 218.967C123.824 218.658 124.505 218.256 125.126 217.77C125.709 217.308 126.165 216.818 126.565 216.387C127.355 215.512 127.986 214.875 128.498 214.511C129.002 214.143 129.338 213.996 129.312 213.894ZM142.83 213.228C142.84 213.149 142.447 212.983 141.728 213.138C141.019 213.287 140.062 213.841 139.249 214.804C138.415 215.737 137.731 216.985 136.593 217.822C135.994 218.273 135.326 218.624 134.615 218.861C134.245 218.985 133.86 219.08 133.464 219.142C133.345 219.168 133.222 219.167 133.104 219.137C132.987 219.108 132.877 219.051 132.785 218.972C132.617 218.811 132.495 218.549 132.517 218.313C132.524 218.074 132.632 217.884 132.837 217.74C133.515 217.373 134.214 217.047 134.93 216.763C136.379 216.151 137.676 215.582 138.758 215.086C140.923 214.095 142.227 213.393 142.156 213.216C142.086 213.04 140.656 213.421 138.4 214.182C137.272 214.561 135.937 215.037 134.462 215.583C133.723 215.854 132.967 216.135 132.066 216.633C131.558 216.959 131.166 217.59 131.149 218.242C131.106 218.89 131.371 219.532 131.859 219.99C132.352 220.448 133.112 220.619 133.682 220.494C134.15 220.415 134.611 220.295 135.057 220.135C135.903 219.833 136.69 219.386 137.383 218.814C138.049 218.271 138.564 217.612 138.959 217.019C139.359 216.42 139.684 215.87 140.013 215.407C140.649 214.477 141.355 213.918 141.905 213.644C142.455 213.368 142.827 213.335 142.83 213.228ZM42.7808 40.985C42.765 41.0625 42.9445 41.1477 42.955 41.4113C42.9722 41.7047 42.831 42.0105 42.2685 42.1156C41.7164 42.2078 40.8033 42.2897 39.9018 42.3573C38.8796 42.4304 37.8522 42.3547 36.8518 42.1327C34.6498 41.6491 32.1914 40.2687 30.0991 38.0763C27.9765 35.8844 26.2477 32.9068 24.5231 29.6619L24.2008 29.0617L23.1556 30.6147C24.9074 30.7911 26.6591 30.9683 28.4108 31.1464C30.1085 31.3196 31.7518 31.4335 33.2271 31.661C34.7089 31.8869 36.0485 32.2572 37.1575 32.8423C38.2638 33.4249 39.1445 34.2311 39.8382 35.0901C41.2193 36.8229 41.9505 38.5922 42.5227 39.7569C43.0725 40.946 43.4161 41.6009 43.5565 41.5548C43.6903 41.5103 43.6097 40.7779 43.2877 39.4842C42.9336 38.2078 42.4245 36.3019 41.0249 34.2073C40.3227 33.1717 39.3308 32.1179 38.0141 31.331C36.705 30.5431 35.1556 30.0542 33.5605 29.7551C31.9543 29.4502 30.3186 29.2968 28.6299 29.0925C26.933 28.9046 25.1788 28.7095 23.3804 28.5086L21.3827 28.2871L22.3337 30.0621L22.6568 30.6647C24.3945 33.928 26.2791 37.0954 28.7143 39.4508C31.1275 41.8171 34.0023 43.248 36.5813 43.6044C37.7321 43.7692 38.9022 43.7449 40.0454 43.5324C41.0472 43.3306 41.7832 43.1699 42.5344 42.896C42.905 42.7373 43.2348 42.4908 43.3901 42.1269C43.4455 41.9904 43.4715 41.8438 43.4661 41.6966C43.4608 41.5495 43.4244 41.4051 43.3592 41.2731C43.1103 40.8263 42.7543 40.9233 42.7808 40.985Z" fill="#FFDD34"/>
<path d="M86.8753 84.3966C87.0907 84.2877 85.4122 80.3209 81.5946 74.5211C77.7803 68.7443 71.6712 61.2115 63.507 54.41C59.6848 51.2046 55.615 48.3063 51.3356 45.7421C47.3891 43.369 43.6551 41.6091 40.6373 40.0269C34.5294 36.9396 31.4906 33.9685 31.2699 34.1832C31.1743 34.2726 31.7934 35.1673 33.2183 36.5087C34.6344 37.8578 36.9196 39.5593 39.9042 41.331C42.889 43.1152 46.5132 44.9938 50.313 47.4056C54.4472 50.0125 58.4011 52.8947 62.1478 56.0326C70.1414 62.6936 76.2959 69.9063 80.3696 75.3823C84.4399 80.8731 86.5756 84.5629 86.8753 84.3966Z" fill="#FFDD34"/>
<path d="M29.9046 39.6556C29.6388 39.293 25.7784 41.6594 20.5474 45.3196L19.5149 46.0437L20.5207 46.888C22.1395 48.2455 24.3629 49.1333 26.7021 49.3883C29.2293 49.6841 31.6491 49.2668 33.6727 48.5936C35.7056 47.9188 37.3836 47.022 38.733 46.2138C41.4119 44.5635 42.8632 43.2986 42.7252 43.0629C42.5701 42.7933 40.8119 43.6215 38.0391 44.8881C35.2839 46.0961 31.3344 47.7863 26.9423 47.2858C24.933 47.0634 23.1106 46.3723 21.7463 45.3396L21.7178 46.9078C26.766 42.9999 30.1707 40.0162 29.9046 39.6556ZM43.614 41.538C43.6712 41.641 44.2496 41.5309 44.9918 40.8059C45.7331 40.0956 46.4276 38.6378 46.492 36.8343C46.596 35.0483 46.1432 32.8973 45.2766 30.8129C44.37 28.5233 43.195 26.3493 41.7763 24.3364C40.4116 22.3939 38.8323 20.6113 37.0684 19.0223L34.9455 17.112L35.427 19.8875C36.5503 26.3486 35.2958 31.0418 35.7988 31.1423C36.0003 31.1978 36.556 30.1049 37.0264 28.0722C37.4921 26.0511 37.8173 23.0624 37.3682 19.5887L35.7263 20.455C37.3138 22.0227 38.7586 23.7286 40.0436 25.5524C41.3751 27.4469 42.5252 29.4626 43.4786 31.5728C44.3935 33.513 44.8953 35.2888 44.9941 36.8408C45.1096 38.3822 44.7612 39.5705 44.3381 40.3035C43.9162 41.0424 43.5184 41.3992 43.614 41.538Z" fill="#FFDD34"/>
<path d="M43.458 42.7608C43.7369 42.7741 44.0644 41.8824 44.1386 40.3836C44.2181 38.8918 43.9817 36.7975 43.2071 34.6335C42.4273 32.4698 41.2741 30.7047 40.2646 29.6037C39.2517 28.496 38.4331 28.0173 38.2251 28.204C37.7738 28.6193 39.8347 31.4213 41.2124 35.3495C42.6506 39.2552 42.8456 42.7297 43.458 42.7608Z" fill="#FFDD34"/>
<path d="M43.6109 41.5652C43.837 41.0121 41.0853 39.3844 37.7685 37.3626C34.4402 35.3558 31.7259 33.6676 31.3397 34.123C30.9647 34.5554 33.1796 37.065 36.669 39.1728C40.1495 41.2928 43.4014 42.096 43.6109 41.5652ZM27.2574 47.3491C27.4379 47.9054 30.4861 47.413 34.0626 46.2485C37.642 45.0847 40.3957 43.6893 40.2151 43.133C40.0344 42.5785 36.987 43.0706 33.4089 44.2357C29.8303 45.3992 27.0774 46.7944 27.2574 47.3491ZM67.9931 58.0134C68.2238 57.9981 68.2665 55.0725 66.6382 50.705C65.0601 46.3832 61.4599 40.6645 55.4813 36.6344L55.1027 36.3729L53.4719 35.2452L53.4654 37.2519C53.4539 40.912 54.6505 44.22 56.1136 46.8767C57.5906 49.5586 59.3525 51.643 60.8884 53.2847C64.0109 56.5287 66.1921 58.1938 66.3798 58.0155C66.6116 57.7967 64.7716 55.7261 62.0127 52.3144C60.6598 50.5945 59.1032 48.5034 57.831 45.9723C56.5625 43.4534 55.5655 40.4503 55.5829 37.2648L53.9446 38.1459L54.2949 38.3893C59.8484 42.1315 63.4081 47.3142 65.2598 51.2915C67.1569 55.2948 67.649 58.0773 67.9931 58.0134ZM70.9799 63.7676C70.9146 63.4341 68.001 63.9658 63.3185 63.8758C60.587 63.8236 57.8659 63.5254 55.1881 62.985C53.6143 62.6675 52.0591 62.2638 50.5297 61.7757C49.7561 61.5041 48.8625 61.2539 48.2835 60.9303C47.996 60.7763 47.7555 60.5635 47.652 60.4035C47.5269 60.2264 47.473 59.9763 47.4933 59.8408C47.5266 59.7094 47.5138 59.7088 47.6819 59.6049C47.8533 59.5124 48.199 59.4408 48.6099 59.4021C49.4494 59.3156 50.2915 59.2559 51.1348 59.2229C52.7328 59.1703 54.3325 59.2206 55.9239 59.3733C58.6314 59.6472 61.3019 60.2086 63.8902 61.0483C68.3332 62.4962 70.8352 64.0927 71.0217 63.7932C71.1629 63.6126 68.9174 61.5322 64.4107 59.6445C61.7642 58.5543 58.9873 57.8118 56.1495 57.4353C54.4683 57.2165 52.7732 57.1209 51.078 57.1495C50.1958 57.1653 49.2995 57.2249 48.3897 57.3082C47.9243 57.3592 47.3676 57.4075 46.7308 57.7165C46.0858 57.9937 45.4533 58.7923 45.3918 59.5758C45.195 61.1058 46.3142 62.3142 47.2696 62.7757C48.2549 63.2887 49.0672 63.4672 49.9088 63.7555C51.5243 64.2426 53.1693 64.6262 54.8337 64.9039C57.6439 65.3798 60.499 65.5371 63.3448 65.3727C68.2021 65.0718 71.0422 64.002 70.9799 63.7676ZM29.4677 22.2627C29.5311 22.0583 29.1701 21.7384 28.4931 21.3511L28.3488 21.2689L28.0331 21.4019C27.6674 21.5543 27.3718 21.9455 27.2986 22.3638C27.2225 22.7769 27.2579 23.2871 27.7056 23.7509C28.1593 24.2403 29.0457 24.2596 29.5462 23.9164C29.8277 23.752 30.0577 23.5123 30.2102 23.2241C30.4026 22.8629 30.4503 22.4421 30.3434 22.0471L30.3253 21.9841L30.191 21.7487C30.0027 21.419 29.3843 21.136 28.9769 21.2369C28.5706 21.3043 28.3301 21.4781 28.1273 21.6665C27.9316 21.862 27.7681 22.0912 27.6793 22.4437C27.5764 22.78 27.6708 23.338 27.9638 23.6582C28.1814 23.9296 28.5347 24.1281 28.8547 24.1868C29.1451 24.2425 29.4449 24.2242 29.7265 24.1337C30.2253 23.9683 30.6847 23.635 30.9233 23.0047L31.0539 22.6635L30.935 22.3374C30.9019 22.246 30.8686 22.1447 30.8203 22.0536C30.2933 21.0243 29.2088 20.5743 28.1591 20.8538L27.9277 20.9151L27.7665 21.0638C27.2052 21.5755 26.9828 22.2418 26.9705 22.8261C26.954 23.4156 27.1239 23.9938 27.5078 24.4546C27.693 24.6849 27.9306 24.8678 28.2007 24.9881C28.4708 25.1083 28.7657 25.1624 29.061 25.1459C29.6293 25.0879 30.0006 24.7992 30.2442 24.5258C30.7286 23.964 30.7816 23.2849 30.5775 22.9055C30.3708 22.5263 30.1116 22.5156 30.0384 22.593C29.9419 22.68 29.9603 22.8709 29.8774 23.0422C29.8076 23.2034 29.6306 23.4152 29.3585 23.5426C29.2274 23.604 29.0801 23.6124 29.0375 23.5701C29.0217 23.5277 28.9643 23.482 28.9383 23.3834C28.8331 23.2115 28.9432 22.6712 29.1034 22.6303L28.7105 22.8394C28.7106 22.8277 28.9208 22.9256 28.9114 22.9703C28.9114 22.9703 28.9081 22.9733 28.9155 22.9715L29.3257 22.4463C29.209 22.4263 29.0745 22.1999 29.1453 22.3274C29.2256 22.4514 29.0948 22.773 29.1534 22.6492L29.0348 22.7489L29.0155 22.7597C29.0077 22.7626 29.0177 22.7606 29.0177 22.7606C29.0571 22.7543 29.0974 22.7567 29.1358 22.7676C29.2523 22.7895 29.3542 22.8732 29.3237 22.8514C29.2524 22.773 29.2041 22.6765 29.1839 22.5725C29.1653 22.4363 29.2307 22.4674 29.1017 22.5656L28.8325 22.5112C28.8622 22.5117 28.7399 22.5198 28.6508 22.468C28.5541 22.42 28.5352 22.3742 28.5723 22.4257C28.6159 22.496 28.6398 22.5767 28.6415 22.6593C28.6457 22.7088 28.6249 22.6987 28.6567 22.6689C28.8438 22.5392 28.7057 22.6032 28.6899 22.5178C28.6586 22.4579 28.6298 22.4454 28.607 22.4011L28.1462 22.4521C28.9242 22.5217 29.4028 22.4658 29.4677 22.2627ZM19.9476 38.2358C19.9397 38.4499 20.1624 38.7373 19.8312 39.1793C19.7642 39.2758 19.6435 39.3289 19.645 39.2729C19.659 39.2336 19.7031 39.1743 19.7864 39.2201C19.8366 39.2443 19.8185 39.1285 19.8721 39.0441C19.8914 39.0047 19.927 38.9968 19.9064 39.0376C19.8935 39.08 19.774 39.1532 19.7028 39.152L19.2861 37.3497C18.9881 37.4966 18.66 37.7738 18.5167 38.1556C18.3751 38.5153 18.373 38.882 18.4351 39.1612C18.574 39.7357 18.8366 40.1854 19.4016 40.5554C19.7383 40.7707 20.1412 40.8579 20.537 40.8013C20.9471 40.7431 21.3218 40.5372 21.5906 40.2223C22.1506 39.5679 22.1015 38.7855 21.9151 38.2447C21.7093 37.671 21.2999 37.1204 20.5536 36.8619C19.7682 36.6233 19.0229 36.9343 18.5872 37.3938C18.1623 37.8556 17.9849 38.3789 17.9548 38.8912C17.9197 39.3973 18.0606 39.9433 18.3993 40.386C19.1306 41.2622 20.1688 41.2759 20.8172 41.0556C21.5022 40.8351 21.9968 40.3536 22.2251 39.8301L22.2713 39.726C22.3323 39.497 22.3214 39.2548 22.24 39.0323C22.1586 38.8097 22.0108 38.6176 21.8165 38.482C21.5376 38.2862 21.2527 38.2377 21.0248 38.2627C20.5383 38.3385 20.4711 38.6553 20.5515 38.7174C20.6307 38.8096 20.8127 38.8079 20.9453 38.9428C21.0252 39.0123 21.0873 39.0998 21.1265 39.1982C21.1463 39.249 21.1436 39.3019 21.1285 39.3236C21.071 39.3424 21.2208 39.3313 21.133 39.3237L21.1172 39.1972C20.9593 39.3429 20.7107 39.466 20.4322 39.4804C20.149 39.5108 19.9203 39.351 19.9236 39.271C19.8922 39.2397 19.9525 38.8683 20.0499 38.8391C20.0833 38.8759 19.98 38.7355 20.0012 38.7517C20.0049 38.7607 20.0069 38.7702 20.0073 38.7799L20.0079 38.7841L19.9904 38.6457L19.9883 38.6331C19.9898 38.5914 19.9877 38.6387 19.981 38.6447C19.9818 38.7044 19.8187 38.8985 19.8684 38.854C19.882 38.8642 19.8997 38.9068 19.9144 38.9389C19.9637 38.9751 19.8498 38.9916 19.9988 38.9924C20.0873 38.9973 20.1736 39.022 20.2513 39.0647C20.2691 39.0813 20.2099 39.0256 20.2046 38.9971L20.266 39.0968L20.2819 39.1347L20.2926 39.1683C20.2872 39.1945 20.2991 39.0415 20.391 38.8918L20.4597 38.7928L20.4547 38.7938C20.4498 38.7831 20.4358 38.7838 20.4275 38.769C20.4017 38.75 20.3905 38.7202 20.3826 38.7205C20.2329 38.7512 20.0385 38.7557 19.9655 38.7158C19.8686 38.6697 19.9926 38.7165 20.033 38.849L19.7168 37.2491C19.2852 37.2489 18.8217 37.48 18.5772 37.7751C18.3212 38.0683 18.2078 38.3763 18.1573 38.6564C18.0716 39.2118 18.1628 39.771 18.5916 40.2535C19.0723 40.7408 19.7699 40.7894 20.2385 40.5073C20.7064 40.2254 20.8462 39.8369 20.9098 39.5367C21.0307 38.9244 20.7732 38.4066 20.4648 38.2183C20.1496 38.0379 19.9651 38.1505 19.9476 38.2358ZM47.6367 106.866C47.6141 106.942 47.8211 107.024 47.9558 107.309C48.0868 107.564 48.131 108.153 47.775 108.538C47.4028 108.945 46.624 109.125 45.6305 109.078C44.4989 109.05 43.3746 108.89 42.2806 108.6C39.8546 107.964 37.1234 106.559 34.6435 104.314C32.1549 102.105 29.8464 99.0345 27.7917 95.7709C27.5816 95.4018 27.4594 95.0716 27.4496 94.8149C27.4362 94.6973 27.4683 94.6201 27.4648 94.6276C27.4829 94.6424 27.2992 94.7788 27.2492 94.7599C27.1751 94.715 27.7443 94.9018 28.1079 95.0821C28.501 95.2603 28.8869 95.4716 29.2663 95.7041C30.7843 96.6278 32.2069 97.843 33.852 98.7354C35.505 99.6177 37.1556 100.1 38.6413 100.538C40.1291 100.97 41.4834 101.364 42.6298 101.86C44.9332 102.839 46.4265 104.309 47.1191 105.492C47.8221 106.688 47.8693 107.531 48.0382 107.518C48.1419 107.532 48.3952 106.639 47.8308 105.146C47.2744 103.675 45.7348 101.825 43.2489 100.56C40.8029 99.2527 37.5953 98.6834 34.7696 97.0977C33.3645 96.292 32.0121 95.0874 30.3143 94.008C29.8906 93.7383 29.439 93.4826 28.9592 93.2571C28.7205 93.1403 28.4703 93.043 28.2177 92.9395C27.9377 92.8417 27.5882 92.7062 27.0572 92.7441C26.5139 92.7588 25.8791 93.2102 25.6756 93.6681C25.4415 94.1134 25.3984 94.5454 25.4182 94.9201C25.4571 95.6608 25.7395 96.2766 26.0207 96.7766C28.2347 100.299 30.6242 103.378 33.4128 105.731C36.1716 108.084 39.2497 109.497 41.9618 110.005C43.1818 110.24 44.4279 110.311 45.6668 110.215C46.7362 110.156 47.8773 109.833 48.4099 109.012C48.9177 108.148 48.6023 107.386 48.2823 107.061C47.9186 106.724 47.6332 106.813 47.6367 106.866Z" fill="#FFDD34"/>
<path d="M52.8999 110.741C53.1804 110.255 48.5437 106.875 42.5441 103.197C36.5428 99.5174 31.4312 96.9175 31.1215 97.3882C30.8133 97.8584 35.4502 101.236 41.4791 104.932C47.5054 108.629 52.6204 111.228 52.8999 110.741ZM29.2538 81.8702C29.1793 81.9105 29.3796 82.5319 30.0972 83.4964C30.8083 84.4624 32.1224 85.6697 33.9292 86.8973C35.7372 88.1379 37.9188 89.487 40.0341 91.5158C42.4095 93.7445 44.4115 96.34 45.9637 99.2033L47.5547 98.3273C47.3672 97.9829 47.3834 97.4356 47.5706 96.7707C47.7491 96.128 48.0669 95.3331 48.2802 94.527C48.7243 92.9182 49.0354 91.1881 48.9833 89.3626C48.934 87.5494 48.4807 85.6131 47.4083 83.9372C46.3463 82.2556 44.7394 80.9759 42.9826 80.1009C39.9601 78.5974 36.6559 78.3889 33.702 78.4811C32.9559 78.5043 32.2222 78.5462 31.5012 78.5958C30.7494 78.6587 30.1401 78.6766 29.2968 78.787C28.8833 78.8571 28.4177 78.96 27.9335 79.2703C27.4435 79.5648 27.0339 80.1927 26.9641 80.7547C26.8776 81.3103 26.9655 81.7428 27.0272 82.0983L27.2215 83.0995C27.7498 85.746 28.3877 88.3266 29.5587 90.567C30.6903 92.8194 32.4756 94.6089 34.3982 95.5947C36.3125 96.6184 38.2349 96.9628 39.8684 97.1321C41.5162 97.2827 42.9266 97.2381 44.068 97.1659C46.3522 97.0014 47.5859 96.7445 47.5785 96.6166C47.5711 96.4646 46.3066 96.4538 44.0586 96.3722C42.9356 96.3257 41.5643 96.2519 40.0163 96.0042C38.4794 95.7407 36.7316 95.3124 35.1017 94.3383C33.4605 93.3916 32.0245 91.8477 31.0689 89.8079C30.0846 87.7824 29.5308 85.3557 29.0661 82.7499C28.9631 82.1208 28.7809 81.3173 28.85 81.0777C28.8816 80.9585 28.887 80.961 28.9863 80.8864C29.0886 80.8196 29.3153 80.7458 29.5914 80.7082C30.1401 80.6432 30.9495 80.6098 31.6244 80.5639C32.3319 80.5238 33.0425 80.4897 33.7533 80.4752C36.5873 80.4116 39.516 80.6455 42.0773 81.9255C43.5727 82.6707 44.8735 83.7201 45.7072 85.0296C46.5506 86.3337 46.9449 87.8786 47.0055 89.4317C47.069 90.9899 46.8196 92.5494 46.4372 94.026C46.2541 94.7716 45.9882 95.4461 45.7635 96.3011C45.558 97.1114 45.4122 98.2019 45.9608 99.1981L47.5526 98.3218C45.846 95.3321 43.6445 92.6536 41.0416 90.4001C38.7317 88.3634 36.347 87.0623 34.5137 85.9895C32.66 84.9145 31.3358 83.9177 30.5246 83.1178C29.7139 82.3241 29.3505 81.8127 29.2538 81.8702Z" fill="#FFDD34"/>
<path d="M50.6493 83.2423C50.4683 83.189 49.83 84.7449 48.8684 87.5085C48.2888 89.1727 47.7329 90.8451 47.2007 92.5251C46.9044 93.5169 46.6045 94.6022 46.4694 95.8175C46.335 97.0226 46.3698 98.3983 46.8814 99.7464L47.5613 101.536L48.4857 99.8282C49.5743 97.8207 51.1745 95.8265 52.7537 93.5046C54.3262 91.2201 55.8474 88.3221 55.942 85.0149C56.0388 82.5202 55.1629 79.8468 53.0396 78.2622C52.5022 77.8774 51.8602 77.5719 51.1433 77.4715C50.4428 77.3786 49.7301 77.4791 49.0825 77.7622C47.8568 78.3284 47.0939 79.2284 46.4549 80.0527C45.2804 81.7048 44.1187 83.2903 43.5843 85.2307C43.0705 87.1688 43.4045 89.0108 43.8923 90.4895C44.3678 91.9835 45.1269 93.225 45.6053 94.2223C46.0937 95.2588 46.4055 96.2126 46.6714 97.0028C47.1872 98.5927 47.5662 99.4606 47.7031 99.4195C47.8365 99.3787 47.722 98.464 47.4398 96.8066C47.2896 95.9787 47.0789 94.9478 46.6573 93.788C46.2097 92.5994 45.6224 91.4683 45.2712 90.0773C44.9126 88.7169 44.7447 87.169 45.2075 85.6946C45.6568 84.2271 46.7839 82.7242 47.9347 81.2053C48.5051 80.4853 49.1637 79.8362 49.8464 79.5495C50.5192 79.2771 51.189 79.3736 51.8701 79.8775C52.5361 80.3673 53.0904 81.1815 53.4457 82.0457C53.7835 82.9325 53.9387 83.9277 53.9058 84.9537C53.8555 86.3002 53.5409 87.6487 53.0358 88.8874C52.5464 90.1176 51.8366 91.2993 51.1139 92.4224C49.6461 94.666 48.0312 96.7794 46.9197 99.011L48.5239 99.0928C47.6937 97.0868 48.1529 94.8175 48.5999 92.9044C49.0202 91.2021 49.4411 89.5 49.8626 87.798C50.533 84.9498 50.83 83.2948 50.6493 83.2423Z" fill="#FFDD34"/>
<path d="M57.9852 94.0223C57.8662 94.0345 57.932 94.5639 57.5367 95.3743C57.3442 95.7825 57.0237 96.2482 56.6113 96.7966C56.207 97.35 55.6725 97.9815 55.2531 98.876C54.3823 100.654 54.4548 103.017 54.0311 105.293C53.8282 106.422 53.2819 107.49 52.6744 108.798C52.3811 109.449 52.0812 110.158 51.9093 110.989C51.7207 111.803 51.7651 112.823 52.173 113.718L52.5112 114.457L53.3042 114.176C55.9102 113.246 58.3573 111.338 60.0829 108.76C61.8469 106.203 62.8075 102.93 62.8137 99.6206C62.8381 96.8646 62.2445 94.2183 61.3152 91.8313C61.0424 91.2531 60.9445 90.6543 60.2584 89.8874C59.9145 89.5173 59.3183 89.2412 58.7868 89.2444C58.2503 89.2341 57.8321 89.3901 57.4918 89.5483C56.7981 89.8919 56.3797 90.2224 55.8759 90.5472C55.3862 90.8738 54.9076 91.216 54.4399 91.5631C52.5896 92.9563 50.8616 94.6153 50.0175 96.7267C49.6106 97.7317 49.4212 98.8114 49.4618 99.8946C49.5006 100.914 49.6924 101.839 49.898 102.686C51.6441 109.314 52.8721 113.338 53.1442 113.28C53.4219 113.221 52.6802 109.039 51.3054 102.381C50.9885 100.745 50.8156 98.997 51.573 97.3832C52.2859 95.7511 53.7859 94.3355 55.5488 93.0751C56.0022 92.7534 56.4628 92.442 56.9303 92.1412C57.3993 91.8456 57.9296 91.4814 58.303 91.3135C58.496 91.2237 58.6593 91.1932 58.7232 91.2016C58.7903 91.2133 58.7807 91.2043 58.852 91.2708C59.0047 91.3946 59.2419 92.0139 59.4549 92.5518C60.2791 94.7409 60.8001 97.1494 60.7767 99.608C60.7651 102.574 59.9493 105.407 58.4368 107.665C56.956 109.944 54.8734 111.625 52.6744 112.481L53.8041 112.94C53.3031 111.985 53.6861 110.695 54.2021 109.456C54.7158 108.231 55.3283 106.892 55.5002 105.552C55.6962 104.243 55.6831 103.07 55.7562 102.024C55.8189 100.98 55.9604 100.06 56.2399 99.2874C56.5161 98.5249 56.9549 97.8648 57.3034 97.2507C57.6552 96.6382 57.9377 96.0729 58.0672 95.5701C58.3396 94.5479 58.0526 93.9918 57.9852 94.0223ZM67.7856 121.045C67.7355 120.927 65.7247 121.76 63.4117 124.633C62.2795 126.049 61.149 128.088 60.4736 130.512C60.29 131.093 60.0994 131.67 59.843 132.199C59.5885 132.742 59.2717 133.162 58.8087 133.69C58.3699 134.228 57.7955 134.81 57.5111 135.8C57.3771 136.29 57.3638 136.806 57.4723 137.302C57.585 137.826 57.9315 138.421 58.4994 138.753L58.8869 138.981L59.309 138.792C62.036 137.568 65.1421 136.243 68.0232 133.989C69.4479 132.856 70.7933 131.49 71.8415 129.823C72.9088 128.176 73.586 126.16 73.7521 124.136C74.0103 121.09 73.4073 118.296 72.8772 115.652C72.7683 115.254 72.6912 114.785 72.1634 114.251C71.8952 113.988 71.4491 113.8 71.0404 113.808C70.6086 113.81 70.2732 113.979 70.0458 114.126C69.5875 114.445 69.4029 114.699 69.1878 114.871C68.9796 115.074 68.7517 115.258 68.5185 115.437C67.5914 116.156 66.5252 116.718 65.4479 117.25C63.3 118.309 61.0157 119.261 59.2668 120.9C57.4932 122.53 56.5803 124.658 56.2173 126.576C55.8991 128.308 55.9465 130.087 56.3563 131.799C56.6557 133.063 57.1101 134.284 57.7093 135.436C58.7029 137.309 59.4979 138.168 59.5986 138.102C59.735 138.019 59.1681 137.01 58.4341 135.113C57.7487 133.243 56.8228 130.299 57.6258 126.877C58.0345 125.197 58.8925 123.443 60.3975 122.153C61.8961 120.827 64.0045 119.982 66.26 118.941C67.3854 118.413 68.5709 117.825 69.6896 116.988C69.9752 116.781 70.2482 116.558 70.507 116.318C70.7881 116.076 71.0304 115.825 71.1178 115.781C71.2043 115.886 70.9955 115.424 71.0425 115.442C71.0424 115.43 71.0425 115.442 71.039 115.454C71.042 115.434 71.0487 115.42 71.0465 115.426C71.0465 115.426 71.0227 115.476 70.9515 115.556C70.9222 115.583 70.8677 115.641 70.8176 115.675C70.7799 115.71 70.8084 115.683 70.8034 115.701C70.818 115.725 70.8302 115.75 70.84 115.775C70.87 115.851 70.9019 115.958 70.9282 116.082C71.4228 118.645 71.9573 121.339 71.7238 123.955C71.4854 127.47 69.3524 130.398 66.7942 132.46C64.2199 134.538 61.2661 135.899 58.5733 137.199L59.3825 137.237C59.1973 137.184 59.0194 136.705 59.1458 136.21C59.234 135.775 59.6257 135.24 60.0518 134.712C60.487 134.186 60.9651 133.497 61.2327 132.829C61.5191 132.161 61.6958 131.514 61.8551 130.909C62.3973 128.531 63.2882 126.682 64.2432 125.233C66.1717 122.361 67.9384 121.234 67.7856 121.045Z" fill="#FFDD34"/>
<path d="M56.3475 130.014C56.4196 129.982 56.271 129.329 55.5381 128.352C54.8205 127.364 53.3878 126.229 51.4427 125.209C49.4993 124.162 47.0958 123.209 44.8251 121.438C42.5473 119.691 40.3184 117.257 38.7213 114.166L38.2123 113.185L37.3287 113.874C36.0961 114.835 35.236 116.293 34.9174 117.846C34.5898 119.427 34.6848 121.066 35.1928 122.597C36.1953 125.786 38.9732 128.24 42.2354 129.276C43.7475 129.756 45.3454 129.903 46.9201 129.708C48.4746 129.484 49.6599 129.1 50.7675 129.324C51.3612 129.416 52.0164 129.606 52.7558 129.728C53.4763 129.862 54.4024 129.875 55.1986 129.595C55.9872 129.334 56.8762 128.748 57.2142 127.741C57.3884 127.25 57.3801 126.769 57.3388 126.385C57.2986 125.993 57.2158 125.682 57.1462 125.34C56.5136 122.646 54.9844 120.494 53.3983 118.814C51.7824 117.128 50.0835 115.839 48.4585 114.76C46.8238 113.684 45.1381 112.918 43.555 112.629C41.9609 112.32 40.5432 112.524 39.482 112.893C37.3143 113.689 36.7343 114.983 36.8316 115.004C36.9544 115.139 37.7222 114.123 39.705 113.655C40.8944 113.391 42.1298 113.42 43.3053 113.738C44.6834 114.095 46.1523 114.86 47.6441 115.947C49.1356 117.042 50.7248 118.359 52.1554 119.956C53.5705 121.555 54.8407 123.499 55.315 125.749C56.1336 128.115 53.9804 128.179 51.091 127.356C50.328 127.211 49.4454 127.238 48.7192 127.355C47.9725 127.465 47.2941 127.624 46.6612 127.701C45.378 127.851 44.0778 127.725 42.847 127.334C40.1548 126.49 37.8598 124.433 37.0813 121.977C36.2407 119.521 36.7318 116.691 38.4773 115.325L37.085 115.033C38.7467 118.071 41.083 120.687 43.9145 122.681C46.45 124.488 49.0346 125.346 50.9532 126.209C52.9043 127.057 54.2972 127.951 55.0984 128.748C55.9109 129.528 56.2386 130.073 56.3475 130.014Z" fill="#FFDD34"/>
<path d="M58.3858 158.024C58.6588 158.019 58.8864 154.432 58.9149 148.618C58.9175 142.813 58.7389 134.733 57.284 125.91C55.8356 117.08 53.0845 109.338 50.3064 104.169C47.561 98.966 45.089 96.2573 44.908 96.4009C44.6377 96.5885 46.6613 99.5619 49.0111 104.798C51.397 110.011 53.8523 117.591 55.2755 126.245C56.704 134.899 57.1115 142.885 57.4751 148.66C57.8149 154.442 58.0961 158.03 58.3858 158.024Z" fill="#FFDD34"/>
<path d="M58.1354 146.749C58.7019 146.782 59.2193 144.47 59.1654 141.681C59.1342 140.553 59.1032 139.497 59.0682 138.299C59.0559 137.521 59.2292 137.064 59.0487 136.83C58.9561 136.73 58.7534 136.734 58.4673 136.908C58.1977 137.085 57.8849 137.459 57.6702 137.954C57.2408 138.949 57.1167 140.297 57.1298 141.699C57.1825 144.498 57.5772 146.717 58.1354 146.749ZM77.7011 165.557C77.7018 165.691 78.8107 165.808 80.6035 165.888C81.5003 165.936 82.5671 165.93 83.6849 166.102C84.8082 166.257 85.9212 166.731 86.9724 167.512C88.0169 168.299 88.9137 169.225 89.7688 170.052C90.6206 170.881 91.4464 171.607 92.2253 172.114C92.8374 172.524 93.5137 172.828 94.2264 173.015C94.7428 173.104 95.0259 173.109 95.0391 173.046C95.0516 172.979 94.7983 172.847 94.3511 172.658C93.9209 172.421 93.2975 172.113 92.627 171.556C91.951 171.016 91.2142 170.278 90.4058 169.421C89.5926 168.57 88.6922 167.593 87.5508 166.731C86.4151 165.873 85.0418 165.325 83.8054 165.215C82.5705 165.079 81.4935 165.163 80.601 165.202C78.8086 165.297 77.7014 165.423 77.7011 165.557Z" fill="#FFDD34"/>
<path d="M77.3748 159.15C77.4278 159.117 77.4022 158.916 77.2085 158.601C77.0821 158.398 76.9099 158.227 76.7056 158.102C76.5491 158.006 76.3718 157.949 76.1885 157.935C76.0053 157.922 75.8215 157.953 75.6526 158.025C75.4644 158.109 75.2697 158.235 75.1293 158.461C74.98 158.678 74.9427 159.031 75.0548 159.298C75.1681 159.581 75.3839 159.768 75.5818 159.896C75.7742 160.013 75.9784 160.11 76.191 160.185C76.4158 160.275 76.6512 160.335 76.8914 160.366C77.1588 160.391 77.4942 160.373 77.8104 160.17C78.0918 159.973 78.3321 159.686 78.3589 159.239C78.3658 159.01 78.2898 158.786 78.1449 158.608C78.0096 158.442 77.8591 158.35 77.7361 158.28C77.5067 158.151 77.2641 158.048 77.0124 157.972C76.7524 157.899 76.4632 157.841 76.1201 157.912C75.7684 157.983 75.4332 158.255 75.314 158.613C75.1931 158.973 75.2724 159.306 75.3983 159.559C75.5246 159.81 75.7224 160.017 75.9667 160.155C76.1673 160.266 76.3854 160.343 76.6117 160.381C76.7968 160.413 76.9839 160.432 77.1716 160.437C77.3273 160.435 77.5196 160.478 77.7949 160.38C77.9368 160.324 78.0548 160.221 78.129 160.088C78.1914 159.97 78.2164 159.835 78.2005 159.703C78.1782 159.506 78.0853 159.323 77.9388 159.188C77.6263 158.927 77.3336 158.989 77.1504 159.026C76.7787 159.139 76.6466 159.284 76.6613 159.34C76.6789 159.411 76.8911 159.385 77.1896 159.403C77.3268 159.41 77.5089 159.471 77.5444 159.562C77.5743 159.611 77.5964 159.689 77.5839 159.735C77.5895 159.764 77.5452 159.751 77.5894 159.769C77.6132 159.797 77.5587 159.72 77.5637 159.734C77.5468 159.736 77.4157 159.721 77.2469 159.691C77.0929 159.668 76.9404 159.637 76.7904 159.595C76.647 159.554 76.5161 159.501 76.4124 159.427C76.3198 159.364 76.2479 159.276 76.2058 159.173C76.1279 158.935 76.1903 158.874 76.3193 158.843C76.5039 158.8 76.9232 158.935 77.2617 159.128C77.3097 159.151 77.3536 159.182 77.3918 159.22L77.3954 159.225L77.4238 159.21C77.4289 159.211 77.3927 159.215 77.3927 159.215C77.4044 159.222 77.3522 159.332 77.2811 159.379C77.1801 159.473 76.8258 159.459 76.4812 159.337C76.1224 159.239 75.8436 159.085 75.7965 158.982C75.7683 158.921 75.7569 158.898 75.7814 158.831C75.8173 158.753 75.8765 158.687 75.951 158.643C76.2705 158.419 76.6887 158.66 76.9258 158.851C77.1732 159.049 77.3145 159.188 77.3748 159.15ZM78.2662 165.451C78.2672 165.477 78.3175 165.511 78.4202 165.489C78.5126 165.465 78.6789 165.378 78.7176 165.134L78.7272 165.076L78.6483 164.999C78.4722 164.826 78.1621 164.643 77.7439 164.609C77.4914 164.587 77.2371 164.621 76.9994 164.709C76.7617 164.797 76.5466 164.937 76.3698 165.119C76.3159 165.179 76.2567 165.248 76.2058 165.354C76.1549 165.455 76.1163 165.618 76.1588 165.78C76.263 166.117 76.5011 166.218 76.6452 166.292C76.942 166.424 77.2615 166.496 77.5859 166.505C77.9472 166.516 78.3067 166.451 78.642 166.316C78.9773 166.181 79.2811 165.979 79.5344 165.721L79.8123 165.434L79.5615 165.107C79.1218 164.535 78.3998 164.2 77.6531 164.198C77.3184 164.197 76.9872 164.267 76.6811 164.403C76.3901 164.53 76.0498 164.765 75.8775 165.129C75.7888 165.309 75.7213 165.572 75.8122 165.85C75.9004 166.125 76.1349 166.305 76.2877 166.376C76.5463 166.497 76.8212 166.581 77.1038 166.624C78.1825 166.785 79.1382 166.378 79.6976 165.834L80.0642 165.478L79.6419 165.282C78.9145 164.944 78.265 165.066 77.8972 165.22C77.5184 165.385 77.3819 165.574 77.4155 165.623C77.4516 165.684 77.6494 165.612 77.9915 165.578C78.3261 165.547 78.8437 165.568 79.3146 165.873L79.2592 165.321C78.7824 165.675 78.0308 165.907 77.2608 165.746C77.0768 165.709 76.8677 165.633 76.7222 165.558C76.6898 165.547 76.6948 165.518 76.6737 165.543C76.6551 165.565 76.6042 165.599 76.638 165.577L76.6132 165.589C76.6463 165.583 76.6804 165.582 76.7137 165.588L76.7292 165.552C76.8148 165.357 77.2516 165.164 77.6517 165.169C78.1176 165.17 78.5645 165.379 78.8163 165.69L78.8438 165.076C78.5231 165.434 78.0343 165.626 77.5868 165.643C77.3626 165.652 77.1419 165.62 76.9523 165.555C76.927 165.546 76.9023 165.536 76.8782 165.525C76.8919 165.506 76.828 165.577 76.8028 165.591C76.7728 165.614 76.751 165.62 76.751 165.62C76.7257 165.62 76.8095 165.616 76.8875 165.653C76.8852 165.649 76.8968 165.622 76.9191 165.593C77.1181 165.325 77.4537 165.183 77.7407 165.156C77.9844 165.128 78.2308 165.167 78.4542 165.268L78.3849 165.133C78.4315 165.296 78.2525 165.407 78.2662 165.451ZM84.9418 143.323C85.0645 143.389 85.2965 143.228 85.597 142.896L85.3617 143.081C85.3549 143.116 85.3276 143.131 85.3268 143.16C85.3268 143.184 85.2966 143.23 85.2716 143.154C85.2463 143.067 85.342 142.958 85.3577 142.953C85.3618 142.939 85.4377 142.886 85.5546 143.041L85.6192 143.248C85.6617 143.357 85.5571 143.629 85.437 143.694C85.3276 143.77 85.2753 143.769 85.232 143.775C85.1874 143.776 85.1466 143.777 85.0634 143.729C84.9805 143.694 84.8552 143.521 84.8539 143.383C84.8349 143.183 84.976 143.05 85.0111 143.043C85.0571 143.023 85.0942 143 85.2178 143.05L85.5265 143.355L85.5316 143.364C85.5218 143.393 85.5537 143.303 85.5211 143.328L85.2434 143.41C85.2703 143.359 85.5138 143.506 85.536 143.58C85.5652 143.61 85.5686 143.631 85.5973 143.641C85.6146 143.663 85.5646 143.721 85.4961 143.751C85.375 143.805 85.2401 143.819 85.1107 143.791C85.0053 143.768 84.9238 143.684 84.8408 143.687C84.7712 143.685 84.658 143.794 84.722 144.045C84.7894 144.296 85.0906 144.568 85.5309 144.611C85.8077 144.639 86.0846 144.557 86.3023 144.384C86.4383 144.267 86.5444 144.118 86.6115 143.952C86.6787 143.785 86.7051 143.605 86.6885 143.426C86.6573 143.072 86.497 142.742 86.238 142.499C86.0957 142.358 85.926 142.247 85.7393 142.174C85.5527 142.101 85.353 142.067 85.1526 142.073L85.011 142.078L84.8741 142.155C84.2973 142.481 84.0191 143.132 84.2271 143.806C84.2451 143.866 84.2742 143.925 84.2987 143.978L84.3935 144.185L84.6077 144.284C84.7665 144.36 84.9407 144.397 85.1167 144.394C85.2927 144.391 85.4656 144.347 85.6215 144.265C85.7849 144.184 85.925 144.062 86.0285 143.911C86.1543 143.729 86.2131 143.508 86.1952 143.287C86.1859 143.015 85.9822 142.721 85.789 142.616C85.5945 142.497 85.4231 142.467 85.2523 142.466C85.0813 142.47 84.8996 142.497 84.6874 142.646C84.4603 142.779 84.3038 143.183 84.3657 143.414L84.4121 143.586L84.4303 143.621C84.5636 143.865 84.7944 144.021 84.9975 144.083C85.1877 144.143 85.3907 144.149 85.5842 144.1C85.9488 144.036 86.3327 143.644 86.3199 143.233C86.3216 143.079 86.2844 142.927 86.2119 142.791C86.1393 142.655 86.0336 142.539 85.9047 142.455C85.6938 142.307 85.3974 142.264 85.1726 142.355L84.9624 142.44L84.9356 142.541C84.8248 142.976 84.8198 143.258 84.9418 143.323ZM80.9362 180.609C81.059 180.674 81.2909 180.514 81.5915 180.182L81.3561 180.367C81.3494 180.402 81.3221 180.417 81.3212 180.446C81.3213 180.47 81.291 180.516 81.2661 180.44C81.2407 180.353 81.3365 180.244 81.3522 180.239C81.3562 180.225 81.4321 180.172 81.5491 180.327L81.6136 180.534C81.6562 180.643 81.5515 180.915 81.4314 180.979C81.3221 181.056 81.2698 181.055 81.2265 181.061C81.1819 181.062 81.141 181.063 81.0579 181.015C80.9749 180.98 80.8497 180.807 80.8483 180.669C80.8294 180.469 80.9705 180.336 81.0055 180.329C81.0515 180.309 81.0887 180.286 81.2123 180.336L81.521 180.641L81.5261 180.65C81.5162 180.678 81.5481 180.589 81.5156 180.614L81.2378 180.695C81.2647 180.645 81.5082 180.792 81.5304 180.866C81.5596 180.896 81.563 180.917 81.5918 180.927C81.609 180.949 81.559 181.007 81.4905 181.037C81.3694 181.09 81.2346 181.104 81.1052 181.077C80.9998 181.054 80.9183 180.969 80.8353 180.973C80.7657 180.971 80.6525 181.08 80.7164 181.331C80.7839 181.581 81.0851 181.854 81.5253 181.896C81.8022 181.924 82.079 181.843 82.2967 181.67C82.4328 181.552 82.5388 181.404 82.606 181.238C82.6732 181.071 82.6995 180.891 82.6829 180.712C82.6517 180.358 82.4914 180.028 82.2324 179.785C82.0901 179.644 81.9204 179.533 81.7338 179.46C81.5472 179.387 81.3475 179.353 81.1471 179.359L81.0055 179.364L80.8686 179.441C80.2918 179.767 80.0135 180.418 80.2215 181.091C80.2396 181.152 80.2687 181.211 80.2931 181.264L80.3879 181.471L80.6021 181.57C80.7609 181.646 80.9352 181.683 81.1112 181.68C81.2872 181.677 81.46 181.633 81.616 181.551C81.7794 181.47 81.9194 181.348 82.023 181.197C82.1487 181.015 82.2076 180.794 82.1896 180.573C82.1804 180.301 81.9766 180.007 81.7834 179.901C81.589 179.783 81.4175 179.753 81.2468 179.752C81.0757 179.756 80.8941 179.783 80.6819 179.932C80.4548 180.065 80.2982 180.469 80.3602 180.7L80.4066 180.872L80.4248 180.906C80.5581 181.151 80.7888 181.307 80.9919 181.369C81.1821 181.429 81.3852 181.435 81.5786 181.386C81.9432 181.322 82.3271 180.93 82.3144 180.519C82.3161 180.365 82.2789 180.213 82.2063 180.077C82.1338 179.941 82.0281 179.825 81.8991 179.741C81.6882 179.593 81.3918 179.55 81.167 179.641L80.9568 179.726L80.9301 179.827C80.8192 180.262 80.8142 180.544 80.9362 180.609ZM115.878 185.477C116.001 185.542 116.233 185.381 116.533 185.049L116.298 185.234C116.291 185.269 116.264 185.285 116.263 185.313C116.263 185.338 116.233 185.384 116.208 185.307C116.183 185.22 116.278 185.112 116.294 185.106C116.298 185.093 116.374 185.039 116.491 185.195L116.555 185.401C116.598 185.511 116.493 185.782 116.373 185.847C116.264 185.923 116.212 185.922 116.168 185.929C116.124 185.929 116.083 185.93 116 185.882C115.917 185.847 115.792 185.675 115.79 185.536C115.771 185.337 115.912 185.204 115.947 185.197C115.993 185.176 116.03 185.153 116.154 185.204L116.463 185.508L116.468 185.517C116.458 185.546 116.49 185.456 116.457 185.482L116.18 185.563C116.207 185.513 116.45 185.659 116.472 185.733C116.501 185.763 116.505 185.784 116.534 185.794C116.551 185.816 116.501 185.874 116.432 185.904C116.311 185.958 116.176 185.972 116.047 185.944C115.942 185.921 115.86 185.837 115.777 185.84C115.708 185.838 115.594 185.948 115.658 186.198C115.726 186.449 116.027 186.721 116.467 186.764C116.744 186.792 117.021 186.711 117.239 186.537C117.375 186.42 117.481 186.272 117.548 186.105C117.615 185.939 117.641 185.759 117.625 185.58C117.594 185.226 117.433 184.896 117.174 184.652C117.032 184.511 116.862 184.401 116.676 184.328C116.489 184.254 116.289 184.22 116.089 184.227L115.947 184.231L115.81 184.308C115.234 184.634 114.955 185.286 115.163 185.959C115.181 186.019 115.211 186.078 115.235 186.132L115.33 186.338L115.544 186.437C115.703 186.513 115.877 186.551 116.053 186.548C116.229 186.544 116.402 186.5 116.558 186.419C116.721 186.337 116.861 186.215 116.965 186.065C117.091 185.882 117.149 185.662 117.131 185.441C117.122 185.169 116.918 184.874 116.725 184.769C116.531 184.651 116.359 184.621 116.189 184.619C116.018 184.624 115.836 184.65 115.624 184.799C115.397 184.932 115.24 185.336 115.302 185.567L115.348 185.74L115.367 185.774C115.5 186.019 115.731 186.174 115.934 186.236C116.124 186.296 116.327 186.302 116.52 186.254C116.885 186.189 117.269 185.797 117.256 185.386C117.258 185.232 117.221 185.08 117.148 184.944C117.076 184.808 116.97 184.693 116.841 184.609C116.63 184.461 116.334 184.417 116.109 184.508L115.899 184.593L115.872 184.694C115.761 185.129 115.756 185.411 115.878 185.477ZM68.5076 68.0236C68.6304 68.0887 68.8623 67.928 69.1629 67.5958L68.9275 67.7811C68.9208 67.8158 68.8934 67.8314 68.8926 67.8603C68.8926 67.8845 68.8624 67.9306 68.8374 67.854C68.8121 67.7669 68.9078 67.6587 68.9236 67.6528C68.9276 67.6397 69.0035 67.5863 69.1204 67.7414L69.185 67.9482C69.2276 68.0576 69.1229 68.3292 69.0028 68.3937C68.8935 68.4703 68.8411 68.4692 68.7978 68.4755C68.7533 68.476 68.7124 68.4769 68.6293 68.4292C68.5463 68.3939 68.4211 68.2214 68.4197 68.0832C68.4008 67.8835 68.5418 67.7504 68.5769 67.7436C68.6229 67.7229 68.6601 67.7001 68.7837 67.7506L69.0924 68.0552L69.0975 68.064C69.0876 68.0927 69.1195 68.003 69.0869 68.0286L68.8092 68.1097C68.8361 68.0594 69.0796 68.2058 69.1018 68.2798C69.131 68.3101 69.1344 68.3312 69.1632 68.3411C69.1804 68.3633 69.1304 68.4213 69.0619 68.4513C68.9408 68.5048 68.806 68.5187 68.6766 68.4912C68.5712 68.4679 68.4896 68.3837 68.4067 68.3869C68.3371 68.3851 68.2238 68.4944 68.2878 68.7453C68.3552 68.9958 68.6565 69.2682 69.0967 69.3108C69.3736 69.3388 69.6504 69.2574 69.8681 69.084C70.0041 68.9667 70.1102 68.8186 70.1774 68.6521C70.2445 68.4855 70.2709 68.3054 70.2543 68.1266C70.2231 67.7727 70.0628 67.4426 69.8038 67.1993C69.6615 67.0582 69.4918 66.9476 69.3052 66.8744C69.1185 66.8012 68.9189 66.7669 68.7185 66.7736L68.5769 66.7781L68.4399 66.8551C67.8631 67.1811 67.5849 67.8325 67.7929 68.5057C67.8109 68.5661 67.8401 68.625 67.8645 68.6785L67.9593 68.8848L68.1735 68.9839C68.3323 69.0598 68.5066 69.0977 68.6826 69.0945C68.8586 69.0913 69.0314 69.0472 69.1874 68.9656C69.3508 68.8838 69.4908 68.762 69.5944 68.6116C69.7201 68.4289 69.779 68.2085 69.761 67.9875C69.7518 67.7153 69.548 67.4209 69.3548 67.3157C69.1604 67.1976 68.9889 67.1676 68.8182 67.166C68.6471 67.1707 68.4654 67.1973 68.2533 67.3462C68.0262 67.4792 67.8696 67.8829 67.9316 68.114L67.9779 68.2864L67.9961 68.3208C68.1294 68.5654 68.3602 68.721 68.5633 68.7831C68.7535 68.8428 68.9566 68.8488 69.15 68.8005C69.5146 68.7362 69.8985 68.3443 69.8857 67.9329C69.8874 67.7789 69.8503 67.6269 69.7777 67.491C69.7051 67.3551 69.5995 67.2397 69.4705 67.1554C69.2596 67.0076 68.9632 66.9642 68.7384 67.0552L68.5282 67.1399L68.5015 67.2411C68.3906 67.6762 68.3856 67.9581 68.5076 68.0236Z" fill="#FFDD34"/>
</g>
</svg>
