<svg width="172" height="257" viewBox="0 0 172 257" fill="none" xmlns="http://www.w3.org/2000/svg">
<g opacity="0.3">
<path d="M145.279 138.791C145.361 138.753 145.116 137.993 144.549 136.586C143.692 134.543 142.728 132.547 141.662 130.605C140.267 128.078 138.422 125.035 135.852 121.8C133.295 118.563 129.989 115.135 125.757 112.042L123.969 110.736L124.295 112.947C124.98 117.606 126.819 122.591 130.033 127.139C133.226 131.671 137.805 135.788 143.541 138.372L144.952 139.009L145.19 137.461C146.531 128.79 145.683 118.891 141.871 109.598L140.851 107.112L139.582 109.483C138.033 112.379 137.245 115.879 137.287 119.349C137.381 123.095 138.245 126.689 139.506 130.007C140.776 133.331 142.374 136.434 144.154 139.335C147.773 145.067 151.674 150.277 155.734 154.968C159.572 159.406 163.7 163.585 168.091 167.476C172.236 171.104 176.318 174.217 180.145 176.906C187.875 182.19 194.636 185.647 199.399 187.769C201.22 188.604 203.077 189.357 204.965 190.025C206.256 190.49 206.949 190.694 206.982 190.612C207.015 190.531 206.387 190.169 205.164 189.554C203.937 188.95 202.12 188.087 199.827 186.877C193.34 183.529 187.109 179.706 181.187 175.438C177.477 172.692 173.519 169.543 169.5 165.906C165.247 162.008 161.245 157.846 157.517 153.444C153.582 148.805 149.775 143.63 146.282 138.037C142.941 132.45 140.016 126.066 139.831 119.311C139.802 116.208 140.484 113.191 141.815 110.677L139.529 110.563C143.176 119.392 144.044 128.831 142.848 137.115L144.496 136.204C139.175 133.868 134.844 130.088 131.783 125.883C128.703 121.667 126.887 117.02 126.139 112.66L124.677 113.566C132.973 119.376 137.754 126.352 140.767 131.127C143.748 135.992 145.077 138.885 145.279 138.791Z" fill="#FFDD34"/>
<path d="M164.118 163.939C164.313 163.719 162.445 161.571 158.681 158.819C154.941 156.071 149.179 152.844 142.104 150.82L141.477 150.643L140.892 151.12C140.223 151.669 139.859 152.939 140.142 153.737C140.362 154.566 140.777 155.138 141.211 155.63C141.608 156.073 142.057 156.466 142.549 156.8C143.078 157.154 143.502 157.353 143.919 157.586L146.441 158.926C148.035 159.758 149.641 160.569 151.258 161.356C153.994 162.693 156.767 163.954 159.572 165.139C160.655 165.595 161.745 166.033 162.844 166.45C163.852 166.817 164.8 167.031 165.61 167.021C166.421 167.015 167.052 166.773 167.391 166.513C167.737 166.256 167.825 166.035 167.777 165.978C167.658 165.81 166.977 166.313 165.694 166.034C164.418 165.817 162.656 164.709 160.342 163.512L152.325 159.268L147.615 156.727L145.132 155.365C144.712 155.128 144.262 154.899 143.984 154.703C143.664 154.483 143.372 154.226 143.112 153.938C142.837 153.644 142.652 153.309 142.609 153.128C142.581 152.923 142.576 153.082 142.632 152.956L141.421 153.256C148.206 155.128 153.864 157.944 157.749 160.245C161.645 162.54 163.886 164.214 164.118 163.939Z" fill="#FFDD34"/>
<path d="M169.776 166.463C170.126 166.417 169.999 163.473 169.263 158.83C168.908 156.507 168.416 153.76 167.864 150.72C167.599 149.2 167.319 147.612 167.032 145.967C166.866 145.124 166.847 144.395 166.555 143.297C166.401 142.786 166.203 142.253 165.788 141.7C165.421 141.155 164.542 140.555 163.637 140.598C162.734 140.582 161.882 141.187 161.515 141.741C161.111 142.302 160.919 142.844 160.777 143.362C160.631 143.908 160.594 144.366 160.535 144.797C160.472 145.242 160.422 145.683 160.394 146.12C160.254 147.804 160.267 149.497 160.434 151.178C160.751 154.387 161.568 157.192 162.518 159.409C164.438 163.874 166.662 165.973 166.875 165.791C167.219 165.557 165.581 163.132 164.205 158.785C163.405 156.258 162.923 153.642 162.772 150.996C162.681 149.446 162.717 147.89 162.877 146.346C162.907 145.943 162.962 145.541 163.026 145.136C163.089 144.719 163.131 144.313 163.222 144.017C163.307 143.7 163.437 143.407 163.555 143.255C163.583 143.21 163.621 143.171 163.666 143.142C163.683 143.163 163.65 143.094 163.66 143.119C163.66 143.119 163.669 143.156 163.669 143.141C163.674 143.155 163.677 143.111 163.681 143.093C163.693 143.076 163.651 143.155 163.664 143.139C163.664 143.139 163.717 143.169 163.775 143.25C163.895 143.4 164.033 143.693 164.127 144.013C164.304 144.595 164.408 145.589 164.576 146.395C164.887 148.074 165.227 149.67 165.567 151.188C166.172 153.866 166.817 156.534 167.501 159.193C168.683 163.721 169.43 166.511 169.776 166.463ZM199.314 186.762C199.631 186.731 199.763 184.044 198.968 179.79C198.489 177.3 197.808 174.854 196.932 172.475C196.413 171.068 195.832 169.684 195.192 168.329C194.851 167.611 194.493 166.902 194.119 166.201C193.898 165.757 193.618 165.343 193.288 164.972C192.925 164.583 192.519 164.175 191.773 163.914C191.345 163.769 190.885 163.753 190.448 163.867C190.009 163.987 189.616 164.236 189.319 164.581C188.77 165.259 188.703 165.862 188.615 166.3C188.495 167.136 188.399 167.954 188.373 168.765C188.317 170.32 188.429 171.876 188.708 173.406C189.185 175.977 190.136 178.436 191.513 180.659C192.679 182.544 193.935 183.841 194.876 184.62C195.816 185.405 196.442 185.699 196.547 185.58C196.84 185.271 194.873 183.466 193.086 179.787C192.052 177.654 191.356 175.374 191.021 173.027C190.836 171.656 190.783 170.271 190.863 168.89C190.9 168.175 191 167.451 191.109 166.726C191.131 166.595 191.161 166.466 191.201 166.339C191.211 166.308 191.223 166.277 191.238 166.248L191.246 166.236L191.126 166.143L191.058 166.077L191.041 166.057L191.122 166.173L191.107 166.155C191.081 166.119 191.059 166.079 191.043 166.037C191.034 166.023 191.027 166.006 191.023 165.99C191.031 165.926 191.029 166.203 190.979 166.33C191.006 166.326 191.229 166.469 191.398 166.67C191.593 166.892 191.714 167.063 191.894 167.408C192.264 168.083 192.615 168.756 192.952 169.423C193.594 170.706 194.193 172.01 194.75 173.333C195.69 175.585 196.515 177.884 197.221 180.22C198.432 184.222 198.934 186.806 199.314 186.762ZM194.594 184.795C194.658 184.495 192.571 183.689 188.96 183.223C186.825 182.946 184.668 182.873 182.519 183.004C180.072 183.165 177.3 183.581 174.54 184.941L172.136 186.125L174.614 187.222C175.183 187.475 175.796 187.734 176.42 187.979C182.203 190.217 187.758 190.97 191.888 190.708C193.964 190.544 195.647 189.859 196.574 189.096C197.512 188.334 197.749 187.683 197.631 187.591C197.487 187.46 197.003 187.85 196.063 188.249C195.125 188.652 193.684 188.976 191.824 188.911C188.11 188.714 182.756 187.721 177.349 185.611C176.759 185.379 176.179 185.137 175.637 184.905L175.71 187.186C177.944 186.053 180.456 185.543 182.725 185.272C185.008 184.992 187.098 184.941 188.849 184.942C192.356 184.945 194.526 185.144 194.594 184.795ZM176.32 161.495C175.657 161.613 176.1 166.438 178.904 171.594C181.682 176.77 185.473 179.784 185.935 179.293C186.462 178.786 183.72 175.205 181.144 170.385C178.526 165.589 177.032 161.33 176.32 161.495ZM159.555 171.519C159.403 172.24 164.56 173.758 170.794 175.612C177.023 177.477 182.035 179.278 182.346 178.618C182.644 178.015 177.98 175.112 171.531 173.177C165.095 171.268 159.688 170.867 159.555 171.519ZM154.288 134.026C153.594 134.027 153.025 138.078 153.431 143.054C153.827 148.032 155.034 151.939 155.719 151.826C156.419 151.712 156.351 147.714 155.967 142.85C155.569 137.985 154.998 134.027 154.289 134.027L154.288 134.026Z" fill="#FFDD34"/>
<path d="M133.927 137.463C133.576 138.092 139.589 142.057 146.668 147.337C153.665 152.639 159.667 157.027 159.06 157.002C159.073 157.043 159.113 157.075 159.209 157.071C159.306 157.075 159.47 156.908 159.472 156.725C159.505 156.359 159.352 156.031 159.145 155.63C158.712 154.852 157.938 153.904 156.91 152.826C154.835 150.691 151.81 147.989 148.187 145.297C140.95 139.9 134.25 136.859 133.927 137.463Z" fill="#FFDD34"/>
<path d="M133.343 138.09C133.202 138.129 133.145 138.665 133.812 139.212C134.223 139.521 134.723 139.689 135.238 139.692C135.625 139.703 136.009 139.619 136.357 139.449C136.704 139.278 137.006 139.026 137.234 138.713L137.51 138.338L137.253 137.813C137.075 137.45 136.791 137.023 136.3 136.717C135.814 136.408 135.214 136.316 134.732 136.332C133.764 136.374 132.996 136.638 132.253 136.775L131.102 136.988L131.396 138.203C131.501 138.632 131.711 139.224 132.302 139.678C132.909 140.122 133.593 140.155 134.062 140.115C135.024 140.016 135.694 139.715 136.365 139.47L136.989 139.24L137.14 138.549C137.264 137.935 137.214 137.297 136.994 136.71C136.71 135.94 136.176 135.287 135.478 134.856C134.795 134.424 133.872 134.236 133.049 134.455C131.424 134.914 130.541 136.269 130.488 137.684C130.465 138.401 130.752 139.127 131.189 139.61C131.618 140.105 132.149 140.38 132.661 140.535C133.685 140.847 134.773 140.578 135.401 139.96L135.008 140.122C135.433 140.059 135.819 139.754 135.975 139.451C136.115 139.201 136.183 138.917 136.171 138.63C136.15 138.152 135.96 137.789 135.721 137.554C135.161 137.067 134.749 137.377 134.8 137.482C134.811 137.627 135.045 137.752 135.057 138.024C135.074 138.157 135.069 138.353 134.996 138.525C134.961 138.612 134.899 138.678 134.86 138.686C134.848 138.682 134.845 138.694 134.837 138.68C134.847 138.684 134.876 138.728 134.869 138.718L134.864 138.7C134.854 138.672 134.848 138.644 134.846 138.614L134.452 138.777C134.161 138.914 133.729 138.924 133.312 138.706C132.882 138.476 132.671 138.127 132.75 137.785C132.781 137.411 133.244 136.89 133.606 136.862C133.88 136.779 134.427 137.078 134.607 137.591C134.66 137.731 134.678 137.882 134.66 138.031L135.434 137.113C134.801 137.373 134.185 137.611 133.826 137.66C133.738 137.675 133.678 137.674 133.669 137.675C133.657 137.647 133.656 137.752 133.614 137.829C133.587 137.89 133.589 137.89 133.572 137.913C133.604 137.869 133.587 137.897 133.653 137.83C133.681 137.804 133.712 137.78 133.744 137.761C133.744 137.761 133.74 137.767 133.737 137.756C133.721 137.748 133.697 137.684 133.668 137.623L132.809 139.051C133.677 138.799 134.396 138.504 134.888 138.423C135.364 138.37 135.402 138.36 135.713 138.684L135.733 137.783C135.599 138.271 134.705 138.475 134.261 138.353C133.771 138.269 133.507 138.012 133.343 138.09ZM155.249 134.899C155.422 134.888 155.573 134.545 155.639 133.916C155.676 133.535 155.682 133.153 155.657 132.772C155.643 132.534 155.62 132.296 155.588 132.06C155.53 131.696 155.398 131.348 155.201 131.037C154.733 130.332 153.833 129.858 152.871 129.892C152.387 129.914 151.873 130.047 151.399 130.366C150.89 130.706 150.521 131.219 150.36 131.809C150.08 132.989 150.371 133.971 150.939 134.885C151.499 135.744 152.56 136.628 154.023 136.553C155.105 136.495 156.032 135.778 156.463 134.983C156.925 134.188 157.055 133.163 156.663 132.252C155.803 130.477 153.871 130.057 152.489 130.779L152.283 130.886L152.186 131.005C151.868 131.393 151.647 131.852 151.542 132.343C151.437 132.834 151.45 133.342 151.58 133.827C151.774 134.621 152.218 135.19 152.649 135.545C153.574 136.262 154.291 136.027 154.29 135.842C154.333 135.611 153.868 135.37 153.55 134.736C153.201 134.173 153.096 132.912 153.725 132.442L153.424 132.666C153.706 132.54 154.382 132.858 154.413 133.167C154.551 133.403 154.13 134.092 153.85 134.015C153.657 134.042 153.273 133.863 152.999 133.481C152.72 133.14 152.604 132.579 152.633 132.386C152.619 132.238 152.742 132.087 153.036 131.994C153.163 131.964 153.295 131.96 153.422 131.985C153.55 132.01 153.671 132.061 153.777 132.136C153.882 132.23 153.965 132.344 154.022 132.472L154.266 133.072C154.402 133.411 154.531 133.736 154.659 134.053C154.888 134.6 155.071 134.913 155.248 134.901L155.249 134.899ZM178.341 163.462C178.413 163.564 178.78 163.519 179.099 162.999C179.282 162.673 179.364 162.3 179.333 161.928C179.314 161.648 179.236 161.376 179.104 161.129C178.971 160.882 178.787 160.666 178.565 160.496C178.015 160.078 177.229 159.963 176.501 160.197C176.134 160.316 175.765 160.521 175.453 160.865C175.131 161.214 174.927 161.684 174.87 162.155C174.734 163.18 175.293 164.108 175.889 164.663C176.511 165.251 177.268 165.678 178.093 165.907L179.155 166.213L179.537 165.113C179.757 164.487 180.04 163.753 180.067 162.774C180.066 162.271 180.014 161.769 179.738 161.178C179.456 160.613 179.002 160.152 178.441 159.862C177.772 159.507 176.755 159.3 175.807 159.915C174.878 160.571 174.766 161.511 174.706 162.01C174.61 163.021 174.713 164.041 175.011 165.012C175.576 166.845 176.727 168.21 177.888 168.997L178.376 169.329L178.777 169.134C179.702 168.688 180.052 167.833 180.116 167.219C180.184 166.681 180.071 166.135 179.794 165.668C179.294 164.903 178.713 164.923 178.671 165.064C178.582 165.225 178.845 165.517 178.882 166.033C178.901 166.287 178.877 166.611 178.737 166.914C178.605 167.223 178.35 167.448 178.125 167.472L179.012 167.608C178.145 166.722 177.542 165.612 177.272 164.402C177.12 163.712 177.089 163.002 177.181 162.301C177.193 162.188 177.22 162.076 177.261 161.969C177.371 162 176.997 161.774 177.056 161.778C177.054 161.726 177.123 162.003 177.112 162.063C177.162 162.071 177.21 162.088 177.253 162.112C177.34 162.155 177.413 162.221 177.464 162.302C177.498 162.358 177.555 162.572 177.555 162.764C177.568 163.184 177.419 163.755 177.24 164.352L178.683 163.559C178.221 163.463 177.74 163.232 177.408 162.976C177.059 162.705 176.943 162.471 176.926 162.337C176.766 162.033 177.44 161.632 177.749 161.77C178.109 161.849 178.335 162.415 178.33 162.748C178.349 163.105 178.243 163.35 178.341 163.462ZM162.111 172.751C162.025 172.815 162.09 173.157 162.605 173.167C162.878 173.15 163.136 173.031 163.325 172.833C163.474 172.688 163.584 172.508 163.646 172.31C163.708 172.112 163.719 171.902 163.679 171.698C163.612 171.266 163.324 170.851 163 170.578C162.669 170.294 162.317 170.104 161.927 169.942C161.714 169.866 161.497 169.768 161.088 169.759C160.662 169.717 160.098 170.042 159.962 170.163C159.676 170.355 159.629 170.327 159.316 170.389L157.84 170.681L158.537 172.046C158.848 172.659 159.124 173.383 160.038 174.094C160.497 174.443 161.178 174.65 161.737 174.64C162.306 174.642 162.771 174.525 163.186 174.398C163.545 174.289 163.861 174.164 164.164 174.038L165.881 173.333L164.599 171.987C164.108 171.47 163.789 171.079 163.684 170.647L163.633 170.472C163.611 170.417 163.642 170.475 163.575 170.325C163.517 170.205 163.443 170.093 163.355 169.993C163.219 169.812 162.876 169.604 162.506 169.576C162.426 169.568 162.315 169.57 162.273 169.577L162.203 169.588L162.066 169.62C161.836 169.685 161.823 169.708 161.756 169.736L161.6 169.814L161.149 170.061L160.312 170.494L158.86 171.251L159.923 172.216C160.364 172.616 160.725 172.996 160.935 173.327C160.99 173.411 161.036 173.487 161.084 173.589L161.189 173.839C161.189 173.839 161.289 174.073 161.469 174.221C161.594 174.361 161.982 174.442 162.128 174.403C162.526 174.301 162.526 174.222 162.653 174.154L162.906 173.958C163.515 173.465 163.849 173.111 163.762 172.899C163.68 172.696 163.179 172.662 162.374 172.844L162.069 172.915C162.01 172.932 161.973 172.935 161.935 172.94C161.921 172.94 161.875 172.955 161.893 172.941C161.893 172.941 161.903 172.929 161.911 172.936L161.963 173.092C161.994 173.199 162.013 173.309 162.019 173.422C162.024 173.531 162.042 173.486 162.036 173.531C162.042 173.551 161.995 173.608 162.04 173.544C162.068 173.511 162.107 173.488 162.15 173.482C162.035 173.546 162.822 173.185 162.647 173.275C162.67 173.314 162.655 173.23 162.649 173.166C162.627 172.999 162.593 172.835 162.547 172.674C162.351 171.984 161.958 171.359 161.49 170.76L161.103 172.481C161.421 172.379 161.753 172.27 162.096 172.139L162.594 171.939L162.681 171.908L162.713 171.895L162.718 171.895C162.718 171.895 162.731 171.922 162.675 171.777C162.623 171.643 162.619 171.67 162.592 171.609C162.549 171.526 162.513 171.44 162.484 171.351C162.346 170.911 162.449 170.754 162.362 170.885C162.333 170.908 162.296 170.921 162.259 170.923C162.239 170.929 162.265 170.913 162.207 170.934L161.931 171.038L161.371 171.229C161.343 171.222 161.354 171.203 161.344 171.19C161.511 172.216 162.178 173.108 162.775 173.743L163.209 171.693C162.949 171.792 162.685 171.893 162.442 171.965C162.152 172.059 161.896 172.109 161.743 172.112C161.583 172.112 161.555 172.106 161.45 172.051C161.228 171.943 160.862 171.448 160.581 170.983L159.802 172.641C160.089 172.566 160.365 172.458 160.626 172.319C160.892 172.174 161.133 171.989 161.344 171.773C161.337 171.756 161.382 171.832 161.252 171.611C161.221 171.57 161.195 171.526 161.173 171.479L161.138 171.4C161.159 171.474 161.154 171.492 161.162 171.606C161.168 171.664 161.168 171.74 161.165 171.78C161.165 171.78 161.157 171.77 161.167 171.773L161.21 171.764C161.26 171.769 161.307 171.766 161.371 171.777C161.94 171.866 162.253 172.017 162.353 172.091C162.49 171.996 162.458 172.376 162.402 172.462C162.373 172.613 162.191 172.656 162.111 172.751ZM178.065 212.959C178.033 212.818 177.459 212.987 176.558 212.701C175.68 212.446 174.461 211.608 173.794 210.096C173.128 208.629 173.351 206.501 174.283 204.417C175.223 202.315 176.614 200.049 178.23 197.871L178.595 197.392L177.335 197.437C178.952 199.248 180.114 201.418 180.723 203.768C180.999 204.851 181.164 205.901 181.122 206.841C181.093 207.706 180.848 208.551 180.408 209.297C179.576 210.691 178.429 211.578 177.707 212.217C176.959 212.849 176.547 213.222 176.61 213.318C176.668 213.408 177.188 213.219 178.064 212.732C178.915 212.227 180.231 211.484 181.371 209.915C181.988 209.036 182.365 208.01 182.463 206.94C182.577 205.799 182.439 204.617 182.181 203.421C181.597 200.79 180.35 198.352 178.556 196.341L177.896 195.6L177.297 196.387L176.916 196.887C175.216 199.186 173.839 201.5 172.883 203.844C171.937 206.174 171.731 208.754 172.751 210.607C173.728 212.406 175.327 213.226 176.431 213.328C177.565 213.447 178.104 213.024 178.065 212.959Z" fill="#FFDD34"/>
<path d="M198.929 227.151C198.966 226.889 196.544 226.56 192.811 225.624C190.952 225.143 188.787 224.422 186.608 223.214C184.258 221.874 182.156 220.14 180.394 218.088C179.48 217 178.733 215.834 178.221 214.63C177.732 213.468 177.456 212.228 177.404 210.968C177.298 208.52 177.729 206.21 177.914 204.265C178.348 200.38 178.503 197.96 178.279 197.927C178.055 197.894 177.493 200.252 176.766 204.093C176.44 206.01 175.87 208.291 175.892 211.022C175.908 212.47 176.193 213.902 176.733 215.245C177.3 216.637 178.135 217.952 179.135 219.145C181.027 221.354 183.318 223.186 185.889 224.547C188.275 225.77 190.608 226.408 192.558 226.757C196.474 227.427 198.907 227.338 198.929 227.151Z" fill="#FFDD34"/>
<path d="M199.908 226.661C200.028 226.41 198.329 225.699 196.288 223.808C195.273 222.858 194.24 221.561 193.204 219.992C192.702 219.209 192.091 218.353 191.728 217.55C191.549 217.147 191.446 216.736 191.46 216.374C191.483 216.029 191.627 215.704 191.866 215.455C192.118 215.214 192.317 215.16 192.529 215.221C192.739 215.268 192.975 215.505 193.176 215.88C193.56 216.607 193.816 217.698 194.204 218.592C194.849 220.209 195.666 221.751 196.643 223.192C198.322 225.641 199.762 226.8 199.908 226.661C200.098 226.497 198.99 225.082 197.635 222.587C196.844 221.133 196.171 219.619 195.621 218.058C195.463 217.609 195.316 217.156 195.18 216.7C195.038 216.227 194.884 215.682 194.6 215.13C194.326 214.599 193.854 213.921 193.007 213.658C192.614 213.531 192.13 213.525 191.722 213.661C191.332 213.788 190.98 214.009 190.695 214.304C190.166 214.845 189.856 215.564 189.827 216.321C189.81 217.038 190.011 217.673 190.262 218.213C190.793 219.295 191.403 220.053 191.963 220.858C193.104 222.436 194.329 223.779 195.534 224.694C196.47 225.422 197.512 226.003 198.623 226.417C199.404 226.702 199.867 226.758 199.908 226.661ZM195.815 226.546C195.836 226.344 194.12 225.915 191.267 225.911C189.593 225.915 187.923 226.067 186.277 226.366C185.3 226.54 184.332 226.761 183.376 227.029L182.627 227.249C182.317 227.347 182.025 227.478 181.737 227.652C181.409 227.847 181.127 228.108 180.907 228.42C180.782 228.611 180.672 228.853 180.633 229.138C180.596 229.429 180.657 229.726 180.764 229.971L180.867 230.205L181.095 230.337L181.303 230.459C182.259 231.01 183.255 231.54 184.352 231.852C185.434 232.173 186.68 232.21 187.728 231.8C188.764 231.402 189.494 230.796 190.16 230.342C190.814 229.882 191.46 229.512 192.069 229.203C194.529 227.99 196.306 227.789 196.274 227.532C196.279 227.343 194.408 227.111 191.605 228.138C190.847 228.426 190.117 228.781 189.422 229.198C188.684 229.639 187.97 230.133 187.227 230.372C185.764 230.895 183.938 230.118 182.128 229.037L181.926 228.92L182.257 229.286C182.205 229.321 182.081 229.326 182.148 229.325C182.178 229.32 182.264 229.357 182.261 229.35C182.261 229.35 182.271 229.335 182.275 229.322C182.364 229.208 182.475 229.111 182.6 229.037C182.762 228.936 182.936 228.854 183.117 228.793L183.828 228.568C184.733 228.292 185.649 228.05 186.572 227.842C188.141 227.49 189.729 227.229 191.328 227.062C194.066 226.774 195.795 226.79 195.815 226.546ZM221.962 221.888C221.89 221.619 220.006 222.186 216.985 221.965C215.486 221.839 213.708 221.509 211.881 220.765C210.964 220.405 210.046 219.923 209.153 219.343C208.7 219.061 208.272 218.728 207.842 218.39L207.214 217.853C207.12 217.769 207.067 217.704 207.061 217.691C207.055 217.686 207.084 217.725 207.076 217.779C207.037 217.953 206.985 217.892 207.151 217.823C207.319 217.755 207.498 217.718 207.678 217.715C207.749 217.71 207.877 217.729 208.016 217.748L208.41 217.798C208.671 217.819 208.929 217.889 209.187 217.94C210.214 218.168 211.2 218.515 212.139 218.888C214.013 219.649 215.732 220.447 217.283 220.903C218.825 221.38 220.18 221.492 221.086 221.383C221.995 221.292 222.459 221.063 222.44 220.972C222.402 220.699 220.47 221.021 217.668 219.807C216.261 219.246 214.647 218.366 212.729 217.494C211.765 217.066 210.71 216.654 209.547 216.372C209.254 216.308 208.964 216.225 208.655 216.193L208.195 216.128C208.048 216.108 207.89 216.08 207.67 216.082C207.269 216.086 206.892 216.152 206.489 216.323C206.291 216.409 206.078 216.532 205.871 216.735C205.667 216.932 205.469 217.264 205.44 217.63C205.404 217.981 205.513 218.323 205.67 218.565C205.823 218.803 205.982 218.947 206.106 219.062L206.814 219.66C207.297 220.034 207.78 220.398 208.288 220.7C209.248 221.304 210.272 221.8 211.342 222.179C213.14 222.826 215.039 223.147 216.951 223.126C220.218 223.048 222.035 222.043 221.962 221.888ZM214.791 224.538C214.742 224.453 214.276 224.568 213.632 225.109C212.983 225.64 212.279 226.644 211.587 227.859C210.897 229.084 210.054 230.378 208.684 231.459C207.983 232.022 207.213 232.493 206.391 232.86C205.958 233.049 205.513 233.211 205.058 233.342C204.826 233.4 204.595 233.468 204.356 233.51C204.122 233.556 203.857 233.611 203.705 233.613C203.535 233.618 203.507 233.59 203.482 233.576C203.425 233.521 203.386 233.449 203.37 233.371C203.34 233.248 203.338 233.119 203.365 232.994C203.403 232.856 203.469 232.726 203.557 232.614C203.959 232.072 204.904 231.546 205.64 231.031C206.998 230.134 208.372 229.261 209.762 228.414C212.139 226.96 213.637 226.077 213.538 225.863C213.447 225.665 211.768 226.179 209.209 227.392C207.714 228.108 206.253 228.895 204.833 229.751L203.605 230.509C203.182 230.786 202.697 231.109 202.279 231.637C202.076 231.9 201.891 232.21 201.788 232.608C201.697 232.988 201.69 233.375 201.784 233.767C201.879 234.153 202.089 234.569 202.481 234.875C202.877 235.189 203.401 235.278 203.764 235.254C206.219 234.984 208.145 233.922 209.661 232.615C210.366 231.993 210.987 231.282 211.507 230.5C211.994 229.757 212.326 229.032 212.617 228.394C213.183 227.106 213.658 226.148 214.102 225.543C214.534 224.937 214.859 224.644 214.791 224.538ZM229.846 218.709C229.829 218.615 229.322 218.575 228.565 219.021C227.818 219.455 226.943 220.442 226.384 221.838C225.79 223.208 225.484 224.877 224.51 226.252C224.001 226.988 223.377 227.636 222.66 228.172C222.288 228.45 221.888 228.703 221.463 228.921C221.339 228.996 221.199 229.04 221.054 229.051C220.91 229.062 220.765 229.039 220.631 228.983C220.38 228.865 220.144 228.614 220.08 228.338C219.998 228.065 220.048 227.81 220.227 227.569C220.857 226.9 221.525 226.268 222.229 225.677C223.64 224.44 224.895 223.309 225.934 222.342C228.013 220.407 229.226 219.122 229.08 218.948C228.934 218.775 227.458 219.744 225.189 221.452C224.054 222.306 222.722 223.345 221.257 224.517C220.521 225.102 219.771 225.704 218.938 226.606C218.485 227.165 218.279 228.028 218.504 228.772C218.698 229.522 219.24 230.149 219.964 230.484C220.695 230.818 221.619 230.726 222.218 230.37C222.718 230.105 223.194 229.797 223.64 229.448C224.484 228.788 225.208 227.986 225.777 227.079C226.327 226.213 226.663 225.275 226.887 224.454C227.115 223.627 227.277 222.881 227.475 222.233C227.846 220.942 228.436 220.044 228.955 219.527C229.474 219.008 229.884 218.831 229.846 218.709ZM51.8925 61.2602C51.9037 61.3539 52.1389 61.383 52.2498 61.6775C52.3794 62.0032 52.3344 62.4025 51.737 62.7326C51.1465 63.0443 50.1434 63.4799 49.1482 63.8951C48.0182 64.3616 46.8265 64.6617 45.6105 64.786C42.9358 65.0653 39.634 64.4255 36.4418 62.7289C33.2155 61.0442 30.14 58.3221 26.9689 55.2957L26.3787 54.7372L25.7785 56.8879C27.8281 56.4299 29.878 55.9728 31.9281 55.5167C33.9153 55.0753 35.8186 54.5872 37.5744 54.2908C39.3371 53.9902 40.9928 53.9064 42.4681 54.1524C43.9394 54.3966 45.2394 54.9787 46.3472 55.6908C48.5616 57.1342 50.054 58.8628 51.1391 59.9667C52.2081 61.1065 52.843 61.719 52.9847 61.6141C53.1194 61.5134 52.7533 60.7145 51.9028 59.3707C51.0226 58.0584 49.7305 56.0918 47.3594 54.2458C46.1755 53.3368 44.6568 52.5161 42.8705 52.1197C41.0925 51.7192 39.1546 51.7475 37.2362 52.0077C35.3032 52.2656 33.3936 52.7062 31.405 53.1089C29.4132 53.5334 27.3538 53.9712 25.2421 54.419L22.8971 54.9183L24.6403 56.571L25.2324 57.1319C28.4253 60.1741 31.7484 63.0526 35.39 64.8051C39.0109 66.5781 42.803 67.1187 45.8568 66.5539C47.2217 66.3084 48.5374 65.8414 49.7519 65.1716C50.8105 64.567 51.5834 64.1085 52.3311 63.5164C52.6911 63.1975 52.9719 62.7947 53.0111 62.3243C53.0226 62.149 52.9969 61.9732 52.9356 61.8086C52.8743 61.644 52.7789 61.4943 52.6555 61.3692C52.2059 60.9569 51.8393 61.2003 51.8925 61.2602Z" fill="#FFDD34"/>
<path d="M118.118 93.8543C118.321 93.65 114.931 89.789 108.431 84.6559C101.943 79.5476 92.1979 73.3127 80.4004 68.6775C74.8691 66.4836 69.1729 64.7303 63.3648 63.4339C58.0055 62.2289 53.117 61.6385 49.1061 60.9802C41.0312 59.7783 36.4751 57.5554 36.3058 57.8814C36.2311 58.0184 37.268 58.799 39.385 59.7827C41.4949 60.7784 44.7212 61.8468 48.7657 62.7321C52.8151 63.6314 57.6239 64.3975 62.8317 65.7013C68.4914 67.1005 74.0503 68.8791 79.4707 71.025C91.0224 75.5653 100.699 81.4205 107.368 86.0909C114.038 90.7793 117.841 94.1551 118.118 93.8543Z" fill="#FFDD34"/>
<path d="M36.8143 64.59C36.3772 64.2794 32.8949 68.4081 28.3467 74.5165L27.4496 75.7241L28.9054 76.3024C31.248 77.2315 34.0987 77.4018 36.8429 76.8121C39.8154 76.1981 42.3984 74.8169 44.4368 73.2949C46.4851 71.7675 48.0482 70.1221 49.2725 68.7003C51.686 65.8259 52.8541 63.8488 52.6094 63.6338C52.3325 63.3867 50.6529 64.9847 47.9891 67.4599C45.3232 69.8622 41.4861 73.2589 36.3254 74.3414C33.967 74.8441 31.6441 74.746 29.7116 74.089L30.2682 75.8753C34.5165 69.5551 37.2509 64.8984 36.8143 64.59ZM53.0431 61.5735C53.1466 61.6686 53.7601 61.3268 54.3282 60.2273C54.9008 59.1447 55.1398 57.2333 54.5354 55.1672C53.9825 53.106 52.6622 50.8406 50.8983 48.806C49.0121 46.5541 46.8654 44.5339 44.5033 42.7876C42.2288 41.1007 39.7714 39.6754 37.1776 38.5386L34.0566 37.173L35.644 40.1346C39.3419 47.0282 39.6839 52.813 40.2911 52.7379C40.5401 52.7251 40.7589 51.279 40.5282 48.8009C40.2965 46.3377 39.5425 42.8318 37.7296 39.0673L36.1959 40.6647C38.582 41.8437 40.8584 43.2325 42.9981 44.815C45.217 46.46 47.2761 48.3104 49.148 50.3415C50.9124 52.1948 52.1473 54.0169 52.842 55.7371C53.5515 57.4389 53.6033 58.9151 53.3994 59.9039C53.1992 60.8989 52.8828 61.4522 53.0431 61.5735Z" fill="#FFDD34"/>
<path d="M53.3256 63.0167C53.6463 62.9269 53.6823 61.7944 53.2035 60.0696C52.7334 58.3507 51.6793 56.0682 49.9897 53.909C48.2943 51.752 46.3259 50.1866 44.7695 49.3191C43.2067 48.4452 42.1001 48.2107 41.9348 48.5001C41.5797 49.1398 44.9652 51.5384 48.0001 55.4687C51.0951 59.3507 52.6205 63.2113 53.3256 63.0167Z" fill="#FFDD34"/>
<path d="M53.0502 61.6054C53.0985 60.8942 49.3717 60.0846 44.8572 59.0409C40.3354 58.0185 36.6283 57.1264 36.362 57.787C36.0998 58.4174 39.5499 60.4272 44.2921 61.5034C49.0289 62.5967 53.0124 62.2851 53.0502 61.6054ZM36.7062 74.2947C37.1195 74.8568 40.3859 73.1547 43.998 70.4932C47.6137 67.8315 50.2074 65.2176 49.7941 64.6555C49.3813 64.0957 46.1158 65.7971 42.5021 68.4598C38.8872 71.121 36.2942 73.7342 36.7062 74.2947ZM86.8325 71.0729C87.0879 70.969 86.0376 67.6406 82.5541 63.307C79.1445 59.0064 72.921 53.8834 64.6385 51.5653L64.1117 51.4114L61.8419 50.747L62.5879 53.0214C63.9493 57.1698 66.5463 60.4659 69.2004 62.9244C71.8798 65.4063 74.6573 67.1048 77.0128 68.3868C81.7662 70.8872 84.861 71.9535 85.0066 71.6811C85.1869 71.3463 82.3262 69.6929 77.9213 66.866C75.7438 65.4268 73.1961 63.6436 70.8053 61.2556C68.4232 58.88 66.1668 55.8541 64.9904 52.241L63.4663 53.8538L63.9543 53.9977C71.6473 56.1494 77.6237 60.6807 81.2136 64.4886C84.8648 68.3089 86.4669 71.2745 86.8325 71.0729ZM92.3748 76.4664C92.1757 76.1133 89.0765 77.8093 83.7411 79.4657C80.6288 80.4322 77.4359 81.1165 74.2012 81.5101C72.3 81.7416 70.3877 81.8684 68.4727 81.8901C67.4949 81.8731 66.3892 81.9254 65.6121 81.7764C65.2287 81.7099 64.8766 81.5593 64.6993 81.417C64.4912 81.2635 64.3363 81.0006 64.3083 80.8396C64.2967 80.6782 64.282 80.6823 64.4334 80.5017C64.5927 80.3325 64.9572 80.1216 65.4078 79.9236C66.3259 79.5104 67.2568 79.1266 68.1993 78.7726C69.9888 78.113 71.8189 77.5692 73.6781 77.1446C76.8464 76.4379 80.0809 76.0709 83.3266 76.0497C88.9008 76.0208 92.333 76.8888 92.4317 76.4797C92.5238 76.2221 89.2002 74.7099 83.3888 74.2649C79.983 74.0243 76.5602 74.2263 73.2058 74.8657C71.2201 75.2491 69.2651 75.7775 67.3564 76.4464C66.3635 76.7956 65.3711 77.1995 64.3723 77.6355C63.8645 77.8679 63.2524 78.1317 62.6474 78.7207C62.0211 79.2768 61.605 80.4185 61.8295 81.3286C62.1812 83.1348 63.9021 84.0827 65.1571 84.2465C66.4654 84.4573 67.4521 84.3544 68.5132 84.3648C70.5252 84.3097 72.5317 84.1263 74.5205 83.8158C77.881 83.2994 81.1726 82.4054 84.333 81.1506C89.7195 78.9861 92.5334 76.7084 92.3748 76.4664ZM29.789 45.0615C29.7841 44.8063 29.2552 44.5796 28.3432 44.3953L28.149 44.3565L27.8414 44.6255C27.4846 44.9355 27.2969 45.4893 27.3711 45.9904C27.4401 46.4867 27.6717 47.0511 28.3528 47.4081C29.0502 47.7918 30.061 47.4809 30.4988 46.9044C30.7558 46.6126 30.9262 46.2547 30.9906 45.8713C31.0729 45.39 30.9688 44.8956 30.6995 44.4886L30.6553 44.424L30.4149 44.208C30.0779 43.9053 29.2714 43.8172 28.8482 44.0844C28.4134 44.3133 28.2063 44.6003 28.0474 44.8898C27.8993 45.1846 27.8003 45.5055 27.8321 45.9379C27.8419 46.3574 28.1583 46.9537 28.6103 47.2062C28.9585 47.4318 29.433 47.5238 29.8174 47.4701C30.1672 47.4242 30.4998 47.2909 30.7846 47.0826C31.2872 46.7081 31.6822 46.1583 31.7157 45.355L31.7354 44.9196L31.4784 44.5951C31.4065 44.504 31.3308 44.4019 31.2419 44.3168C30.2588 43.3493 28.8619 43.247 27.7783 43.9577L27.5393 44.1139L27.4126 44.3428C26.9693 45.1329 26.9676 45.9709 27.1732 46.6371C27.3758 47.3108 27.7853 47.9016 28.393 48.2791C28.6892 48.4704 29.0268 48.5882 29.3778 48.623C29.7288 48.6577 30.083 48.6082 30.4111 48.4787C31.0328 48.1996 31.3448 47.7332 31.518 47.3322C31.8554 46.5143 31.6604 45.7254 31.2869 45.3726C30.9104 45.0209 30.613 45.106 30.5592 45.2211C30.4826 45.3558 30.5751 45.5651 30.5455 45.7903C30.5271 45.9989 30.4061 46.3052 30.1459 46.5516C30.0206 46.6704 29.857 46.7352 29.7928 46.7033C29.759 46.6612 29.6769 46.631 29.6105 46.5292C29.4267 46.3741 29.3485 45.721 29.5145 45.6145L29.1482 45.9988C29.1439 45.9855 29.4186 46.0174 29.4249 46.0715C29.4249 46.0715 29.4222 46.0762 29.4299 46.0713L29.6972 45.3226C29.5575 45.3438 29.3203 45.138 29.4483 45.2558C29.5857 45.366 29.5584 45.7793 29.5783 45.6171L29.4814 45.7745L29.4637 45.7939C29.4559 45.8002 29.4665 45.7942 29.4665 45.7942C29.5087 45.7723 29.5552 45.7598 29.6028 45.7578C29.7429 45.7388 29.8897 45.7953 29.847 45.7821C29.7369 45.7201 29.6459 45.629 29.584 45.5188C29.5118 45.3716 29.5975 45.3823 29.4883 45.5419L29.1631 45.5813C29.197 45.5708 29.0615 45.6258 28.9411 45.6007C28.8136 45.5826 28.7751 45.5379 28.8364 45.5822C28.9121 45.6455 28.9695 45.7278 29.0025 45.8208C29.0258 45.8752 28.9984 45.8716 29.0233 45.8259C29.1864 45.6088 29.054 45.7332 29.0042 45.6424C28.9463 45.5863 28.9089 45.583 28.8665 45.5414L28.3639 45.7722C29.2708 45.5589 29.7918 45.3158 29.789 45.0615ZM25.008 66.7212C25.0795 66.9666 25.4395 67.2084 25.2305 67.8332C25.1909 67.9677 25.0741 68.0731 25.0548 68.0091C25.0559 67.9594 25.0835 67.8756 25.1951 67.8963C25.2611 67.9048 25.1971 67.7805 25.2261 67.6648C25.2331 67.6129 25.2704 67.5907 25.2624 67.6446C25.2638 67.6974 25.1559 67.8251 25.0749 67.8505L23.9263 65.9665C23.6441 66.2446 23.3766 66.6817 23.3578 67.1677C23.3325 67.6282 23.4679 68.0441 23.643 68.337C24.016 68.9353 24.4822 69.3458 25.2608 69.5526C25.7229 69.6699 26.2118 69.6174 26.6387 69.4046C27.0811 69.1849 27.4281 68.811 27.6142 68.3535C28.0025 67.4023 27.6531 66.5348 27.239 65.9926C26.7906 65.4203 26.1203 64.9507 25.1782 64.9382C24.1993 64.963 23.4723 65.5949 23.1516 66.2788C22.8438 66.9612 22.8396 67.6203 22.9978 68.2116C23.1481 68.7978 23.5126 69.3631 24.0624 69.7372C25.2194 70.4546 26.4 70.0803 27.0514 69.5874C27.7441 69.0805 28.1233 68.3496 28.1852 67.6711L28.1985 67.536C28.1816 67.2538 28.0783 66.9837 27.9026 66.7623C27.7269 66.5409 27.4873 66.3789 27.2164 66.2982C26.8271 66.1813 26.4864 66.2333 26.2377 66.3472C25.7154 66.6158 25.7582 66.9996 25.8726 67.0398C25.9968 67.1144 26.2023 67.0442 26.4031 67.1471C26.5197 67.1958 26.6229 67.2716 26.7042 67.3683C26.7457 67.4183 26.7625 67.4792 26.7535 67.5095C26.6955 67.5523 26.8609 67.4835 26.7586 67.508L26.6932 67.3707C26.5692 67.5949 26.3339 67.8276 26.024 67.9484C25.7148 68.0892 25.3958 67.9941 25.3695 67.9024C25.3223 67.8787 25.251 67.4356 25.3504 67.366C25.402 67.395 25.2323 67.2749 25.2625 67.2853C25.2699 67.2941 25.2758 67.3041 25.2799 67.3149L25.2822 67.3194L25.2103 67.1693L25.2033 67.1558C25.1893 67.108 25.2047 67.1623 25.1994 67.1717C25.2227 67.239 25.1109 67.52 25.1505 67.451C25.1697 67.4574 25.2057 67.499 25.2344 67.5298C25.3038 67.5523 25.1811 67.6137 25.35 67.5587C25.4521 67.531 25.5591 67.5266 25.6631 67.5457C25.6895 67.5578 25.6015 67.517 25.5849 67.4867L25.6918 67.5766L25.724 67.6135L25.7488 67.6475C25.7524 67.6792 25.7085 67.5015 25.7563 67.2975L25.797 67.1597L25.7917 67.1626C25.7821 67.1524 25.7665 67.1585 25.7516 67.1448C25.7152 67.133 25.6914 67.1034 25.6825 67.1067C25.5246 67.1977 25.3062 67.2758 25.2085 67.2581C25.0815 67.2422 25.2394 67.2486 25.335 67.3835L24.3761 65.6908C23.8875 65.8527 23.4494 66.2883 23.2834 66.7143C23.1037 67.1423 23.0909 67.5337 23.139 67.8697C23.2505 68.5307 23.5637 69.1296 24.2303 69.5149C24.9576 69.8862 25.7656 69.6792 26.1903 69.1838C26.6142 68.689 26.6267 68.1966 26.5859 67.8329C26.4928 67.0942 26.0069 66.6047 25.587 66.5072C25.1624 66.4213 24.9958 66.6182 25.008 66.7212ZM82.1284 134.028C82.1316 134.123 82.3967 134.139 82.656 134.41C82.9002 134.65 83.1715 135.3 82.9131 135.87C82.6442 136.47 81.8302 136.967 80.6876 137.286C79.3961 137.68 78.0629 137.921 76.7154 138.003C73.7298 138.194 70.11 137.629 66.4592 136.018C62.8121 134.452 59.0453 131.842 55.4934 128.918C55.117 128.579 54.8546 128.251 54.7472 127.964C54.6879 127.836 54.6951 127.737 54.6941 127.746C54.72 127.756 54.5633 127.98 54.4996 127.977C54.3989 127.954 55.1135 127.952 55.5928 128.02C56.1049 128.074 56.6211 128.168 57.138 128.289C59.2035 128.765 61.2705 129.606 63.4682 129.999C65.671 130.377 67.7211 130.303 69.5677 130.242C71.4145 130.172 73.0956 130.109 74.5797 130.24C77.5556 130.485 79.7982 131.588 81.0267 132.667C82.2717 133.758 82.6415 134.694 82.8278 134.616C82.9506 134.593 82.9019 133.486 81.7026 132.009C80.5202 130.552 78.0822 129.035 74.7925 128.536C71.5324 127.975 67.6869 128.535 63.8922 127.8C61.9988 127.416 60.0153 126.56 57.6876 125.975C57.1066 125.829 56.4993 125.709 55.8714 125.634C55.5573 125.591 55.2375 125.575 54.9126 125.552C54.5589 125.547 54.1123 125.525 53.5253 125.767C52.9157 125.988 52.3665 126.737 52.3081 127.332C52.2101 127.924 52.3236 128.429 52.4867 128.846C52.8088 129.67 53.3598 130.261 53.866 130.722C57.6955 133.879 61.557 136.468 65.5978 138.085C69.6047 139.712 73.6204 140.156 76.8819 139.713C78.3515 139.521 79.7889 139.133 81.1556 138.56C82.3443 138.092 83.5152 137.298 83.8098 136.168C84.0603 134.999 83.4172 134.255 82.9326 134.007C82.3944 133.762 82.1049 133.97 82.1284 134.028Z" fill="#FFDD34"/>
<path d="M89.5422 136.44C89.6771 135.784 83.1585 133.699 74.9845 131.787C66.8079 129.874 60.0442 128.85 59.8703 129.499C59.6979 130.147 66.216 132.23 74.4301 134.151C82.6413 136.074 89.4087 137.096 89.5422 136.44ZM51.9287 112.631C51.8594 112.704 52.3196 113.333 53.4943 114.155C54.6621 114.982 56.6033 115.855 59.1099 116.567C61.6228 117.293 64.5994 118.001 67.7563 119.504C71.2826 121.135 74.5239 123.322 77.3564 125.981L78.8289 124.392C78.4873 124.072 78.3001 123.446 78.2625 122.623C78.2232 121.829 78.2845 120.809 78.2233 119.817C78.122 117.828 77.8246 115.753 77.0802 113.705C76.3435 111.671 75.1032 109.649 73.2597 108.154C71.4258 106.649 69.1259 105.803 66.8083 105.472C62.8217 104.905 59.0023 105.91 55.6924 107.123C54.8564 107.43 54.0414 107.753 53.2437 108.079C52.4161 108.433 51.733 108.682 50.8196 109.124C50.3778 109.358 49.8893 109.65 49.4576 110.183C49.0134 110.7 48.7854 111.565 48.9174 112.227C49.0281 112.889 49.29 113.346 49.4934 113.725L50.0893 114.786C51.6812 117.584 53.3725 120.266 55.5395 122.363C57.6665 124.488 60.3598 125.844 62.9067 126.238C65.4586 126.678 67.7645 126.346 69.6775 125.925C71.5998 125.476 73.18 124.896 74.4452 124.386C76.9696 123.342 78.2699 122.588 78.2135 122.446C78.148 122.277 76.7123 122.739 74.1365 123.491C72.8475 123.86 71.2672 124.291 69.4215 124.592C67.5824 124.871 65.4427 125.042 63.2315 124.551C61.0178 124.096 58.8123 122.887 56.9644 120.936C55.0894 119.013 53.5511 116.473 52.0465 113.697C51.6937 113.024 51.1856 112.182 51.1739 111.885C51.165 111.738 51.172 111.739 51.2565 111.617C51.3472 111.503 51.5762 111.335 51.8746 111.188C52.4714 110.909 53.3753 110.567 54.1222 110.262C54.9082 109.95 55.7 109.645 56.4993 109.362C59.6841 108.225 63.0879 107.391 66.4685 107.878C68.4414 108.16 70.3082 108.86 71.7439 110.03C73.1885 111.189 74.215 112.791 74.8668 114.526C75.5238 116.267 75.827 118.126 75.9486 119.941C76.0212 120.854 75.9733 121.718 76.04 122.77C76.1116 123.765 76.356 125.054 77.3512 125.976L78.8245 124.386C75.7697 121.642 72.2713 119.436 68.4781 117.862C65.098 116.423 61.9093 115.846 59.4309 115.32C56.9284 114.798 55.0548 114.167 53.836 113.566C52.6201 112.972 52.0166 112.529 51.9287 112.631Z" fill="#FFDD34"/>
<path d="M76.6684 106.15C76.4434 106.158 76.305 108.159 76.2539 111.649C76.2227 113.751 76.2213 115.853 76.2496 117.955C76.2865 119.189 76.3544 120.531 76.6578 121.957C76.9582 123.372 77.5141 124.917 78.5996 126.251L80.0415 128.023L80.4467 125.741C80.9254 123.06 81.9884 120.201 82.9045 116.979C83.8271 113.802 84.4612 109.95 83.3265 106.17C82.4993 103.309 80.5038 100.611 77.5047 99.614C76.7518 99.3801 75.9102 99.2753 75.0608 99.4308C74.2327 99.5886 73.4636 99.97 72.8367 100.534C71.6615 101.635 71.1357 102.941 70.7218 104.114C70.0123 106.425 69.2924 108.657 69.4159 111.054C69.562 113.442 70.6318 115.402 71.7393 116.893C72.8387 118.406 74.1644 119.526 75.0804 120.476C76.0227 121.466 76.7338 122.429 77.3316 123.224C78.5126 124.83 79.2676 125.67 79.4071 125.572C79.5428 125.476 79.0697 124.484 78.1279 122.713C77.6469 121.832 77.0213 120.744 76.1084 119.589C75.1553 118.411 74.0657 117.351 73.1458 115.908C72.2289 114.503 71.4575 112.813 71.4279 110.97C71.3856 109.14 72.0974 107.015 72.83 104.863C73.2055 103.834 73.7075 102.852 74.3727 102.271C75.0322 101.709 75.8268 101.567 76.7872 101.882C77.7252 102.186 78.6584 102.9 79.3852 103.745C80.1007 104.623 80.6501 105.691 80.9981 106.865C81.4468 108.408 81.5969 110.053 81.4902 111.645C81.398 113.222 81.0381 114.827 80.6415 116.369C79.8221 119.461 78.7873 122.46 78.3667 125.404L80.2138 124.894C78.5206 122.935 78.1884 120.193 77.9761 117.859C77.8128 115.774 77.6502 113.689 77.4884 111.604C77.1779 108.127 76.8927 106.142 76.6684 106.15Z" fill="#FFDD34"/>
<path d="M89.0227 115.601C88.8926 115.659 89.1658 116.234 89.0225 117.3C88.9579 117.834 88.7698 118.482 88.5088 119.258C88.2589 120.036 87.8908 120.952 87.7519 122.122C87.4335 124.462 88.4028 127.11 88.7777 129.846C88.9722 131.201 88.7547 132.615 88.5578 134.324C88.4703 135.172 88.3969 136.087 88.5143 137.092C88.6067 138.085 89.0398 139.223 89.8376 140.083L90.498 140.793L91.2903 140.176C93.8917 138.145 95.9458 135.066 96.9315 131.499C97.9689 127.942 97.8273 123.875 96.5917 120.126C95.5845 116.997 93.9188 114.223 91.9703 111.87C91.4442 111.317 91.1085 110.676 90.0438 110.066C89.5154 109.776 88.7367 109.687 88.1361 109.89C87.5249 110.08 87.11 110.414 86.7841 110.72C86.1277 111.37 85.778 111.901 85.3295 112.458C84.8978 113.012 84.4845 113.579 84.0852 114.148C82.5134 116.42 81.1798 118.947 81.017 121.655C80.9337 122.945 81.1246 124.239 81.5774 125.45C82.0039 126.589 82.5685 127.565 83.1192 128.446C87.5852 135.296 90.4865 139.39 90.773 139.223C91.065 139.051 88.6549 134.595 84.5984 127.573C83.6253 125.84 82.7731 123.925 83.0247 121.814C83.219 119.698 84.3858 117.532 85.9085 115.443C86.301 114.909 86.7056 114.383 87.122 113.867C87.542 113.356 88.0057 112.745 88.3654 112.415C88.5502 112.24 88.7235 112.145 88.7991 112.13C88.8794 112.118 88.8652 112.112 88.9709 112.16C89.1903 112.243 89.6913 112.855 90.1346 113.384C91.8897 115.553 93.384 118.084 94.2807 120.877C95.3813 124.239 95.5212 127.753 94.6569 130.878C93.8361 134.014 92.1091 136.699 89.941 138.495L91.3921 138.589C90.4663 137.696 90.4156 136.092 90.5348 134.496C90.6565 132.916 90.8469 131.169 90.5384 129.588C90.2689 128.032 89.8134 126.709 89.5036 125.497C89.1825 124.292 88.9973 123.197 89.0237 122.217C89.0501 121.25 89.2989 120.338 89.463 119.512C89.6313 118.686 89.7389 117.94 89.6967 117.322C89.6213 116.063 89.0876 115.541 89.0227 115.601ZM110.266 142.516C110.165 142.402 108.201 144.1 106.661 148.221C105.911 150.249 105.396 152.982 105.542 155.981C105.552 156.708 105.553 157.432 105.461 158.128C105.377 158.837 105.176 159.433 104.85 160.204C104.555 160.978 104.123 161.852 104.173 163.08C104.206 163.685 104.384 164.274 104.693 164.796C105.018 165.346 105.634 165.89 106.401 166.053L106.926 166.165L107.333 165.793C109.96 163.383 112.98 160.717 115.395 157.082C116.583 155.265 117.593 153.212 118.154 150.932C118.744 148.666 118.754 146.129 118.182 143.776C117.33 140.23 115.599 137.293 114.006 134.498C113.733 134.089 113.47 133.587 112.671 133.18C112.269 132.983 111.693 132.938 111.234 133.101C110.745 133.265 110.429 133.582 110.227 133.833C109.828 134.367 109.714 134.724 109.535 135C109.376 135.308 109.186 135.601 108.99 135.891C108.21 137.053 107.214 138.09 106.194 139.097C104.16 141.103 101.931 143.038 100.566 145.551C99.1702 148.062 98.9357 150.815 99.2448 153.122C99.5349 155.203 100.257 157.2 101.364 158.984C102.177 160.302 103.15 161.515 104.261 162.594C106.089 164.341 107.312 165.015 107.401 164.903C107.524 164.757 106.504 163.828 104.96 161.956C103.482 160.096 101.328 157.11 100.952 152.934C100.784 150.879 101.097 148.57 102.317 146.545C103.516 144.481 105.586 142.733 107.748 140.707C108.824 139.686 109.946 138.576 110.898 137.208C111.144 136.867 111.369 136.511 111.572 136.143C111.799 135.763 111.98 135.388 112.062 135.305C112.199 135.391 111.789 134.947 111.85 134.95C111.845 134.936 111.85 134.95 111.85 134.965C111.846 134.94 111.848 134.923 111.848 134.93C111.848 134.93 111.84 134.995 111.789 135.113C111.766 135.154 111.726 135.24 111.682 135.297C111.653 135.352 111.675 135.311 111.676 135.333C111.701 135.354 111.725 135.378 111.745 135.403C111.808 135.478 111.884 135.587 111.96 135.717C113.483 138.433 115.1 141.283 115.817 144.332C116.867 148.401 115.552 152.518 113.43 155.813C111.295 159.133 108.462 161.782 105.901 164.265L106.832 164.004C106.602 164.014 106.221 163.538 106.178 162.931C106.115 162.405 106.357 161.652 106.641 160.894C106.937 160.136 107.219 159.176 107.271 158.319C107.345 157.456 107.302 156.656 107.255 155.911C106.976 153.015 107.29 150.587 107.828 148.588C108.933 144.613 110.51 142.673 110.266 142.516Z" fill="#FFDD34"/>
<path d="M100.683 156.966C100.753 156.903 100.339 156.219 99.1425 155.389C97.9588 154.539 95.9108 153.793 93.3254 153.368C90.732 152.912 87.6528 152.736 84.4169 151.583C81.1819 150.461 77.7442 148.541 74.7754 145.642L73.8306 144.722L73.089 145.834C72.0541 147.384 71.6277 149.358 71.8504 151.237C72.073 153.149 72.7959 154.969 73.9462 156.512C76.2787 159.746 80.3454 161.482 84.4278 161.429C86.3198 161.405 88.1845 160.972 89.8942 160.16C91.57 159.322 92.7679 158.443 94.1061 158.28C94.8127 158.161 95.6258 158.13 96.5089 157.991C97.3749 157.872 98.4285 157.54 99.2249 156.924C100.019 156.331 100.806 155.334 100.811 154.067C100.823 153.446 100.633 152.904 100.442 152.485C100.25 152.057 100.039 151.736 99.832 151.374C98.1045 148.562 95.5649 146.7 93.1382 145.393C90.6755 144.091 88.2679 143.269 86.023 142.658C83.7681 142.053 81.5718 141.819 79.6709 142.086C77.7499 142.334 76.2216 143.098 75.1587 143.915C73.0031 145.63 72.8324 147.313 72.9505 147.3C73.1402 147.407 73.6279 145.968 75.697 144.693C76.9447 143.948 78.3542 143.517 79.8047 143.436C81.499 143.322 83.4496 143.637 85.5465 144.307C87.6466 144.987 89.9403 145.881 92.1596 147.152C94.3623 148.431 96.5306 150.156 97.9123 152.525C99.7276 154.896 97.3137 155.777 93.7333 155.931C92.815 156.053 91.8258 156.415 91.0474 156.82C90.2434 157.225 89.535 157.66 88.8473 157.984C87.4507 158.636 85.9315 158.982 84.3909 159.001C81.026 159.057 77.655 157.589 75.8516 155.101C73.9775 152.636 73.471 149.248 74.9341 147.045L73.2483 147.238C76.2703 150.053 79.898 152.138 83.8526 153.333C87.4017 154.426 90.6501 154.427 93.1464 154.683C95.6742 154.912 97.5868 155.4 98.7932 156.002C100.006 156.579 100.582 157.074 100.683 156.966Z" fill="#FFDD34"/>
<path d="M113.508 187.915C113.815 187.807 112.726 183.66 110.575 177.066C108.398 170.492 105.162 161.411 100.202 151.968C95.2464 142.515 89.2245 134.782 84.1379 129.972C79.0759 125.112 75.26 122.974 75.109 123.204C74.8734 123.518 78.281 126.125 82.9078 131.171C87.5666 136.178 93.1929 143.838 98.0538 153.102C102.921 162.363 106.381 171.252 108.961 177.655C111.517 184.074 113.183 188.03 113.508 187.915Z" fill="#FFDD34"/>
<path d="M108.991 175.243C109.645 175.067 109.362 172.255 108.254 169.118C107.795 167.852 107.364 166.668 106.874 165.325C106.568 164.449 106.593 163.866 106.3 163.669C106.158 163.591 105.93 163.671 105.671 163.976C105.433 164.278 105.219 164.818 105.162 165.459C105.049 166.747 105.415 168.32 105.956 169.902C107.067 173.052 108.347 175.416 108.991 175.243ZM138.206 189.19C138.257 189.341 139.557 189.058 141.616 188.475C142.65 188.193 143.855 187.785 145.186 187.56C146.516 187.315 147.954 187.433 149.437 187.922C150.915 188.421 152.279 189.133 153.557 189.748C154.833 190.367 156.041 190.879 157.113 191.161C157.96 191.395 158.84 191.486 159.717 191.43C160.335 191.336 160.657 191.235 160.648 191.159C160.637 191.078 160.301 191.024 159.724 190.978C159.148 190.872 158.327 190.757 157.358 190.378C156.39 190.02 155.279 189.462 154.042 188.795C152.801 188.137 151.415 187.369 149.799 186.822C148.191 186.276 146.43 186.172 144.989 186.511C143.54 186.821 142.352 187.321 141.356 187.699C139.363 188.481 138.156 189.039 138.206 189.19Z" fill="#FFDD34"/>
<path d="M147.203 179.357C147.137 179.419 147.284 179.649 147.396 180.074C147.521 180.5 147.526 181.143 147.469 181.997C147.447 182.425 147.411 182.908 147.455 183.46C147.5 184.072 147.682 184.666 147.988 185.198C148.629 186.325 149.705 187.165 150.793 187.924C153.013 189.472 155.316 190.381 157.014 190.817C158.72 191.254 159.814 191.273 159.841 191.127C159.925 190.787 155.684 189.942 151.454 186.972C150.396 186.239 149.44 185.499 148.904 184.65C148.343 183.828 148.349 182.87 148.288 181.992C148.243 181.127 148.106 180.352 147.811 179.897C147.529 179.437 147.249 179.31 147.203 179.357Z" fill="#FFDD34"/>
<path d="M141.206 176.731C141.05 176.764 141.102 177.711 141.312 179.214C141.427 179.959 141.527 180.869 141.878 181.893C142.052 182.399 142.317 182.934 142.685 183.419C143.059 183.906 143.501 184.337 143.997 184.699C144.984 185.439 146.073 185.888 146.94 186.299C147.839 186.726 148.662 187.109 149.366 187.402C150.769 188.002 151.733 188.207 151.781 188.045C151.825 187.899 151.029 187.449 149.734 186.669C148.971 186.217 148.202 185.776 147.426 185.348C146.511 184.851 145.56 184.422 144.691 183.77C143.818 183.131 143.216 182.371 142.875 181.511C142.521 180.655 142.331 179.773 142.114 179.044C141.698 177.584 141.362 176.697 141.206 176.731Z" fill="#FFDD34"/>
<path d="M135.246 182.303C135.292 182.48 136.286 182.266 137.848 182.38C138.754 182.445 139.649 182.625 140.511 182.914C141.014 183.084 141.501 183.295 141.969 183.545C142.444 183.796 142.949 184.13 143.481 184.457C145.591 185.782 147.627 186.834 149.172 187.42C150.713 188.018 151.732 188.188 151.779 188.044C151.835 187.884 150.928 187.448 149.515 186.675C148.095 185.915 146.188 184.788 144.091 183.472C143.566 183.15 143.056 182.818 142.488 182.535C141.956 182.269 141.399 182.054 140.825 181.895C139.86 181.623 138.857 181.51 137.856 181.562C136.148 181.66 135.201 182.178 135.246 182.303ZM140.988 176.078C141.036 176.078 141.093 175.984 141.092 175.792C141.077 175.499 140.949 175.225 140.734 175.026L140.473 174.772L140.291 175.163C140.108 175.554 140.004 176.153 140.249 176.804L140.411 177.236L140.854 176.991C141.2 176.799 141.628 176.471 141.726 175.832C141.744 175.663 141.726 175.491 141.672 175.328C141.619 175.166 141.531 175.017 141.415 174.892C141.203 174.621 140.685 174.425 140.264 174.612C139.846 174.791 139.635 175.136 139.544 175.49C139.453 175.884 139.538 176.207 139.636 176.485C139.686 176.623 139.743 176.746 139.798 176.86C139.853 176.968 139.9 177.082 140.01 177.246C140.148 177.459 140.358 177.617 140.601 177.692C140.736 177.729 140.878 177.739 141.017 177.719C141.157 177.699 141.29 177.65 141.41 177.576C141.824 177.307 142.052 176.912 142.032 176.391C141.992 175.97 141.784 175.645 141.594 175.419C141.503 175.312 141.407 175.21 141.304 175.113C141.216 175.033 141.129 174.935 140.951 174.816C140.842 174.744 140.721 174.694 140.593 174.669C140.411 174.635 140.223 174.664 140.06 174.753C139.706 174.97 139.662 175.276 139.633 175.43C139.61 175.618 139.62 175.717 139.616 175.829C139.617 175.943 139.619 176.061 139.628 176.181C139.644 176.421 139.683 176.675 139.77 176.917C139.95 177.412 140.346 177.834 140.872 177.928C141.432 178.006 141.857 177.708 142.024 177.308C142.063 177.21 142.081 177.106 142.076 177.001C142.072 176.896 142.045 176.793 141.997 176.7C141.921 176.561 141.801 176.45 141.656 176.387C141.414 176.278 141.183 176.331 141.077 176.421C140.97 176.514 140.974 176.596 141.001 176.617C141.067 176.662 141.243 176.576 141.42 176.772C141.459 176.811 141.484 176.864 141.49 176.92C141.492 176.956 141.469 176.987 141.436 177.034C141.379 177.117 141.162 177.191 141.054 177.13C140.91 177.079 140.746 176.882 140.687 176.626C140.654 176.47 140.64 176.311 140.646 176.152L140.661 175.861C140.669 175.757 140.676 175.635 140.688 175.602L140.694 175.58L140.695 175.581L140.644 175.563L140.559 175.527C140.456 175.478 140.429 175.433 140.434 175.439C140.436 175.451 140.439 175.415 140.43 175.504C140.418 175.555 140.401 175.605 140.378 175.652L140.336 175.735L140.339 175.739C140.4 175.793 140.459 175.85 140.515 175.91C140.589 175.987 140.656 176.063 140.713 176.135C140.842 176.28 140.846 176.407 140.914 176.484C140.849 176.482 140.894 176.5 140.863 176.527C140.853 176.549 140.837 176.567 140.817 176.581C140.868 176.66 140.876 176.789 140.871 176.76C140.869 176.706 141.023 176.587 140.958 176.587C140.909 176.51 140.864 176.43 140.825 176.348C140.779 176.261 140.736 176.171 140.698 176.08C140.633 175.927 140.617 175.783 140.627 175.735C140.63 175.643 140.706 175.621 140.667 175.578C140.668 175.476 140.622 175.618 140.671 175.604C140.714 175.64 140.743 175.691 140.753 175.746C140.769 175.892 140.616 176.124 140.415 176.268L141.019 176.455C140.834 176.115 140.767 175.723 140.83 175.34L140.388 175.478C140.806 175.706 140.881 176.095 140.986 176.078L140.988 176.078ZM146.664 179.653C146.713 179.709 147.043 179.543 147.156 178.964C147.213 178.616 147.162 178.258 147.009 177.941C146.906 177.711 146.752 177.507 146.559 177.345C146.366 177.183 146.139 177.066 145.894 177.004L145.515 176.911L145.374 177.336C145.018 178.414 145.432 180.034 146.888 180.776L147.417 181.047L147.657 180.478C147.865 179.969 147.898 179.406 147.75 178.877C147.518 178.015 146.862 177.301 146.04 177.062L144.881 176.726L145.363 177.809C145.715 178.605 146.083 179.395 146.465 180.177L146.514 180.278C146.582 180.427 146.677 180.561 146.795 180.674C146.899 180.777 147.03 180.851 147.173 180.885C147.267 180.906 147.365 180.903 147.458 180.878C147.551 180.854 147.637 180.807 147.709 180.742C147.96 180.471 147.915 180.277 147.933 180.135C147.922 179.506 147.585 179.126 147.342 178.961C147.085 178.793 146.91 178.804 146.886 178.859C146.855 178.921 146.959 179.028 147.073 179.226C147.185 179.418 147.308 179.742 147.233 180.077C147.222 180.115 147.211 180.164 147.198 180.182C147.207 180.2 147.153 180.179 147.218 180.21C147.254 180.228 147.286 180.251 147.313 180.28C147.312 180.274 147.334 180.314 147.306 180.265C147.314 180.278 147.32 180.299 147.32 180.299C147.324 180.318 147.318 180.296 147.327 180.267C147.342 180.216 147.366 180.167 147.398 180.124C147.422 180.093 147.402 180.108 147.401 180.091C147.349 180.033 147.252 179.682 147.14 179.385C146.9 178.713 146.65 178.045 146.39 177.38L145.712 178.127C146.113 178.262 146.496 178.671 146.631 179.18C146.715 179.486 146.698 179.79 146.603 180.042L147.373 179.743C146.951 179.553 146.614 179.179 146.425 178.773C146.245 178.397 146.183 177.975 146.248 177.563L145.728 177.894C145.981 177.916 146.226 178.084 146.38 178.299C146.542 178.51 146.616 178.748 146.648 178.943C146.709 179.343 146.582 179.593 146.664 179.653Z" fill="#FFDD34"/>
<path d="M135.431 182.059C135.478 182.001 135.374 181.784 135.036 181.5C134.817 181.317 134.558 181.188 134.28 181.124C134.066 181.074 133.844 181.076 133.632 181.129C133.419 181.183 133.222 181.287 133.058 181.432C132.877 181.597 132.704 181.813 132.629 182.122C132.542 182.423 132.632 182.838 132.86 183.098C133.094 183.375 133.409 183.506 133.681 183.576C133.942 183.637 134.21 183.67 134.479 183.675C134.767 183.692 135.056 183.673 135.34 183.617C135.652 183.545 136.025 183.399 136.307 183.05C136.552 182.722 136.716 182.306 136.578 181.791C136.5 181.528 136.33 181.303 136.099 181.156C135.883 181.019 135.679 180.971 135.513 180.938C135.205 180.879 134.891 180.853 134.578 180.861C134.256 180.876 133.907 180.919 133.545 181.129C133.174 181.34 132.896 181.775 132.896 182.225C132.894 182.678 133.109 183.025 133.347 183.265C133.584 183.501 133.885 183.661 134.214 183.725C134.483 183.776 134.758 183.781 135.029 183.739C135.25 183.706 135.469 183.657 135.684 183.593C135.859 183.531 136.093 183.508 136.368 183.294C136.508 183.177 136.603 183.016 136.637 182.837C136.663 182.68 136.641 182.519 136.573 182.375C136.474 182.16 136.3 181.988 136.084 181.891C135.631 181.711 135.324 181.892 135.13 182.003C134.752 182.27 134.656 182.484 134.694 182.542C134.741 182.616 134.971 182.506 135.316 182.414C135.474 182.372 135.703 182.372 135.777 182.462C135.83 182.506 135.884 182.586 135.887 182.643C135.904 182.674 135.849 182.676 135.906 182.679C135.943 182.702 135.853 182.636 135.864 182.649C135.846 182.658 135.691 182.69 135.489 182.719C135.306 182.752 135.122 182.773 134.936 182.782C134.758 182.789 134.59 182.778 134.445 182.733C134.317 182.698 134.202 182.624 134.116 182.523C133.938 182.283 133.986 182.191 134.12 182.108C134.313 181.99 134.839 181.985 135.294 182.076C135.357 182.085 135.419 182.103 135.476 182.131L135.482 182.136L135.509 182.108C135.515 182.108 135.475 182.126 135.475 182.126C135.491 182.13 135.473 182.273 135.411 182.353C135.332 182.498 134.925 182.615 134.489 182.607C134.046 182.63 133.672 182.56 133.581 182.462C133.526 182.403 133.504 182.381 133.507 182.297C133.518 182.194 133.56 182.097 133.628 182.019C133.906 181.646 134.47 181.761 134.81 181.889C135.164 182.02 135.377 182.124 135.431 182.059ZM138.806 188.858C138.817 188.888 138.887 188.907 138.995 188.844C139.09 188.782 139.246 188.621 139.198 188.33L139.187 188.26L139.069 188.203C138.805 188.074 138.385 187.983 137.899 188.101C137.604 188.171 137.329 188.305 137.093 188.494C136.857 188.683 136.666 188.922 136.534 189.195C136.495 189.282 136.455 189.383 136.437 189.522C136.417 189.656 136.434 189.855 136.544 190.022C136.788 190.365 137.096 190.39 137.287 190.42C137.672 190.457 138.061 190.419 138.432 190.307C138.845 190.184 139.227 189.976 139.556 189.697C139.885 189.418 140.153 189.074 140.343 188.687L140.55 188.258L140.143 187.982C139.431 187.5 138.488 187.392 137.641 187.669C137.262 187.795 136.913 187.998 136.618 188.266C136.336 188.52 136.039 188.914 135.981 189.391C135.948 189.628 135.97 189.951 136.177 190.231C136.38 190.509 136.713 190.625 136.913 190.648C137.252 190.689 137.594 190.68 137.93 190.623C139.212 190.4 140.141 189.58 140.571 188.755L140.852 188.213L140.3 188.15C139.35 188.041 138.66 188.422 138.301 188.735C137.935 189.065 137.851 189.329 137.907 189.373C137.971 189.428 138.168 189.272 138.543 189.106C138.91 188.944 139.504 188.774 140.152 188.943L139.882 188.339C139.475 188.918 138.711 189.463 137.778 189.57C137.556 189.597 137.291 189.59 137.098 189.559C137.057 189.559 137.052 189.524 137.037 189.56C137.025 189.592 136.98 189.65 137.01 189.612L136.986 189.636C137.021 189.616 137.06 189.602 137.1 189.596L137.104 189.55C137.127 189.297 137.55 188.915 138.004 188.77C138.532 188.596 139.117 188.665 139.518 188.922L139.319 188.217C139.09 188.742 138.609 189.143 138.109 189.331C137.858 189.425 137.596 189.471 137.357 189.469C137.326 189.469 137.294 189.467 137.262 189.463C137.271 189.437 137.225 189.541 137.202 189.566C137.176 189.604 137.154 189.619 137.154 189.619C137.125 189.628 137.219 189.593 137.321 189.604C137.317 189.601 137.32 189.566 137.334 189.525C137.459 189.147 137.785 188.86 138.1 188.721C138.366 188.599 138.659 188.55 138.95 188.58L138.821 188.453C138.935 188.621 138.774 188.813 138.806 188.858ZM138.055 161.298C138.219 161.326 138.421 161.057 138.637 160.568L138.44 160.866C138.445 160.908 138.42 160.936 138.43 160.969C138.439 160.996 138.422 161.06 138.365 160.983C138.304 160.893 138.371 160.735 138.387 160.722C138.387 160.706 138.453 160.617 138.643 160.749L138.794 160.959C138.883 161.066 138.867 161.413 138.755 161.531C138.66 161.659 138.6 161.678 138.554 161.701C138.503 161.718 138.457 161.735 138.345 161.712C138.238 161.703 138.032 161.555 137.978 161.399C137.882 161.18 137.991 160.976 138.029 160.955C138.073 160.915 138.106 160.875 138.265 160.886L138.729 161.114L138.738 161.123C138.738 161.159 138.74 161.045 138.713 161.086L138.429 161.283C138.441 161.216 138.771 161.29 138.824 161.365C138.869 161.389 138.88 161.411 138.917 161.412C138.945 161.43 138.91 161.515 138.843 161.574C138.726 161.68 138.579 161.747 138.422 161.764C138.294 161.777 138.17 161.713 138.077 161.748C137.998 161.772 137.911 161.938 138.077 162.198C138.248 162.456 138.691 162.652 139.206 162.534C139.53 162.462 139.812 162.266 139.994 161.988C140.104 161.804 140.168 161.597 140.182 161.383C140.195 161.169 140.158 160.955 140.072 160.759C139.903 160.37 139.598 160.057 139.213 159.878C138.999 159.772 138.766 159.71 138.527 159.698C138.288 159.685 138.049 159.721 137.825 159.804L137.666 159.862L137.54 160.001C137.009 160.586 136.939 161.428 137.427 162.113C137.47 162.174 137.525 162.23 137.573 162.281L137.758 162.479L138.038 162.511C138.246 162.537 138.457 162.515 138.655 162.445C138.854 162.375 139.033 162.261 139.179 162.11C139.333 161.956 139.446 161.765 139.507 161.556C139.58 161.302 139.564 161.03 139.461 160.787C139.348 160.482 139.007 160.225 138.749 160.179C138.484 160.118 138.279 160.148 138.085 160.211C137.893 160.28 137.697 160.379 137.513 160.627C137.306 160.863 137.28 161.379 137.437 161.617L137.554 161.795L137.588 161.827C137.831 162.054 138.15 162.143 138.404 162.137C138.641 162.133 138.873 162.064 139.074 161.937C139.463 161.727 139.751 161.139 139.582 160.678C139.526 160.503 139.427 160.345 139.293 160.218C139.16 160.092 138.997 160.001 138.819 159.954C138.525 159.866 138.173 159.928 137.953 160.115L137.747 160.29L137.755 160.415C137.792 160.949 137.893 161.27 138.055 161.298ZM147.521 205.018C147.684 205.046 147.887 204.777 148.102 204.288L147.905 204.586C147.911 204.628 147.886 204.656 147.895 204.689C147.905 204.716 147.888 204.78 147.831 204.702C147.769 204.613 147.837 204.455 147.853 204.442C147.852 204.426 147.918 204.337 148.109 204.469L148.26 204.678C148.349 204.786 148.332 205.133 148.221 205.251C148.125 205.379 148.066 205.397 148.019 205.421C147.969 205.438 147.923 205.455 147.811 205.432C147.704 205.423 147.497 205.275 147.444 205.119C147.347 204.9 147.457 204.696 147.494 204.675C147.538 204.634 147.572 204.595 147.731 204.605L148.195 204.834L148.204 204.842C148.204 204.879 148.206 204.765 148.179 204.806L147.895 205.002C147.906 204.935 148.237 205.01 148.29 205.085C148.334 205.108 148.346 205.131 148.382 205.131C148.41 205.15 148.375 205.235 148.309 205.294C148.192 205.4 148.045 205.467 147.888 205.484C147.76 205.497 147.636 205.433 147.543 205.467C147.464 205.492 147.376 205.658 147.543 205.918C147.713 206.176 148.157 206.371 148.671 206.254C148.995 206.182 149.278 205.986 149.459 205.708C149.569 205.524 149.634 205.317 149.647 205.103C149.661 204.889 149.623 204.675 149.537 204.479C149.369 204.09 149.064 203.776 148.679 203.598C148.465 203.492 148.231 203.43 147.992 203.418C147.754 203.405 147.515 203.441 147.29 203.524L147.132 203.582L147.006 203.721C146.475 204.306 146.404 205.148 146.893 205.832C146.936 205.894 146.991 205.95 147.039 206.001L147.223 206.199L147.503 206.231C147.711 206.257 147.923 206.235 148.121 206.165C148.319 206.095 148.498 205.98 148.644 205.829C148.799 205.676 148.911 205.485 148.972 205.276C149.046 205.022 149.03 204.75 148.926 204.507C148.814 204.202 148.473 203.945 148.214 203.899C147.95 203.838 147.744 203.868 147.55 203.931C147.359 204 147.163 204.098 146.979 204.347C146.771 204.583 146.746 205.098 146.903 205.337L147.02 205.515L147.053 205.547C147.296 205.774 147.616 205.863 147.869 205.857C148.107 205.853 148.339 205.784 148.54 205.657C148.929 205.447 149.216 204.859 149.047 204.398C148.991 204.223 148.892 204.065 148.759 203.938C148.626 203.812 148.463 203.721 148.285 203.674C147.991 203.585 147.639 203.648 147.419 203.835L147.212 204.01L147.22 204.135C147.258 204.669 147.358 204.99 147.521 205.018ZM188.91 197.409C189.074 197.436 189.276 197.167 189.492 196.678L189.295 196.976C189.3 197.018 189.275 197.046 189.285 197.079C189.294 197.107 189.277 197.17 189.22 197.093C189.159 197.004 189.226 196.845 189.242 196.833C189.242 196.816 189.308 196.727 189.498 196.859L189.649 197.069C189.738 197.177 189.722 197.524 189.61 197.642C189.515 197.769 189.455 197.788 189.409 197.811C189.358 197.829 189.312 197.845 189.2 197.822C189.093 197.813 188.887 197.665 188.833 197.509C188.737 197.29 188.847 197.086 188.884 197.066C188.928 197.025 188.961 196.985 189.12 196.996L189.584 197.225L189.593 197.233C189.593 197.269 189.595 197.156 189.568 197.197L189.284 197.393C189.296 197.326 189.626 197.4 189.679 197.476C189.724 197.499 189.736 197.522 189.772 197.522C189.8 197.541 189.765 197.625 189.699 197.685C189.582 197.791 189.434 197.857 189.277 197.875C189.149 197.888 189.025 197.823 188.932 197.858C188.853 197.882 188.766 198.048 188.932 198.308C189.103 198.567 189.546 198.762 190.061 198.645C190.385 198.573 190.668 198.376 190.849 198.098C190.959 197.914 191.023 197.707 191.037 197.493C191.05 197.279 191.013 197.066 190.927 196.869C190.758 196.48 190.453 196.167 190.068 195.989C189.854 195.882 189.621 195.821 189.382 195.808C189.143 195.795 188.904 195.831 188.68 195.914L188.521 195.972L188.395 196.111C187.864 196.697 187.794 197.539 188.282 198.223C188.325 198.284 188.38 198.34 188.428 198.392L188.613 198.59L188.893 198.621C189.101 198.648 189.312 198.625 189.511 198.555C189.709 198.486 189.888 198.371 190.034 198.22C190.188 198.066 190.301 197.876 190.362 197.666C190.435 197.412 190.419 197.141 190.316 196.897C190.203 196.592 189.862 196.336 189.604 196.289C189.339 196.228 189.134 196.259 188.94 196.321C188.748 196.391 188.552 196.489 188.368 196.737C188.161 196.973 188.135 197.489 188.292 197.727L188.409 197.905L188.443 197.937C188.686 198.164 189.005 198.254 189.259 198.248C189.496 198.244 189.729 198.174 189.929 198.047C190.318 197.837 190.606 197.249 190.437 196.789C190.381 196.613 190.282 196.455 190.148 196.329C190.015 196.202 189.852 196.111 189.675 196.064C189.38 195.976 189.028 196.038 188.808 196.226L188.602 196.4L188.61 196.525C188.647 197.059 188.748 197.38 188.91 197.409ZM91.1734 82.2134C91.3368 82.2411 91.5391 81.972 91.7546 81.4831L91.5578 81.7812C91.5632 81.8231 91.5381 81.8509 91.548 81.884C91.5571 81.9113 91.5402 81.975 91.4832 81.8976C91.4217 81.8084 91.4895 81.65 91.5051 81.6375C91.5048 81.621 91.5707 81.5321 91.7613 81.6638L91.912 81.8737C92.0013 81.9816 91.9848 82.3284 91.873 82.4465C91.778 82.5743 91.7184 82.5927 91.6717 82.6161C91.6214 82.6334 91.5755 82.6498 91.4634 82.627C91.3562 82.6182 91.1497 82.4699 91.0962 82.3139C90.9998 82.095 91.1096 81.8913 91.1467 81.8704C91.191 81.8297 91.2245 81.7899 91.3834 81.8007L91.8473 82.0296L91.8564 82.0377C91.856 82.074 91.8584 81.9604 91.8312 82.0015L91.5472 82.1977C91.5588 82.1307 91.8894 82.205 91.9424 82.2804C91.9868 82.3037 91.9986 82.3264 92.0348 82.3267C92.0627 82.3454 92.0279 82.4299 91.9616 82.4896C91.8446 82.5956 91.6971 82.662 91.5403 82.6794C91.4122 82.6926 91.2883 82.6279 91.1955 82.6627C91.1161 82.6868 91.0289 82.8531 91.1955 83.1131C91.3659 83.3714 91.8093 83.5667 92.3237 83.4496C92.6477 83.3773 92.9306 83.1812 93.1119 82.9032C93.2219 82.7193 93.2864 82.5118 93.2999 82.298C93.3134 82.0842 93.2756 81.8704 93.1897 81.6742C93.0215 81.2852 92.716 80.9717 92.3315 80.7935C92.1173 80.6871 91.8837 80.6256 91.6449 80.6128C91.4061 80.6 91.1671 80.6362 90.9428 80.7191L90.7841 80.7773L90.658 80.9159C90.1274 81.5016 90.0569 82.3436 90.5452 83.0277C90.5883 83.0893 90.6434 83.145 90.6912 83.1965L90.876 83.3944L91.1557 83.4261C91.364 83.4525 91.5755 83.4299 91.7736 83.3602C91.9717 83.2906 92.1508 83.1757 92.2967 83.0247C92.451 82.8708 92.5639 82.6803 92.6246 82.4711C92.6984 82.217 92.6823 81.9454 92.579 81.7019C92.4663 81.3973 92.125 81.1404 91.8668 81.0939C91.6023 81.0332 91.3969 81.0636 91.203 81.1258C91.0111 81.1954 90.8154 81.2937 90.631 81.542C90.4239 81.7778 90.3982 82.2938 90.5551 82.5321L90.6724 82.7099L90.7059 82.742C90.9487 82.9689 91.2684 83.0584 91.5217 83.0524C91.7594 83.0486 91.9916 82.9792 92.1925 82.8519C92.5811 82.6421 92.8686 82.0542 92.6997 81.5933C92.6438 81.4183 92.5446 81.2601 92.4114 81.1335C92.2782 81.0069 92.1153 80.9159 91.9376 80.8689C91.6433 80.7808 91.2914 80.843 91.0711 81.0304L90.8649 81.2051L90.8726 81.3298C90.9105 81.864 91.0106 82.1851 91.1734 82.2134Z" fill="#FFDD34"/>
</g>
</svg>
